<mxfile host="Electron" modified="2023-07-17T14:39:30.356Z" agent="Mozilla/5.0 (Windows NT 10.0; Win64; x64) AppleWebKit/537.36 (KHTML, like Gecko) draw.io/21.6.1 Chrome/112.0.5615.204 Electron/24.6.1 Safari/537.36" etag="Jg5T2AB5kpEajLs6eW15" version="21.6.1" type="device">
  <diagram name="第 1 页" id="rMppdbIKrd9zRNcxaUA8">
    <mxGraphModel dx="5670" dy="3667" grid="0" gridSize="10" guides="1" tooltips="1" connect="1" arrows="1" fold="1" page="0" pageScale="1" pageWidth="827" pageHeight="1169" math="0" shadow="0">
      <root>
        <mxCell id="0" />
        <mxCell id="1" parent="0" />
        <mxCell id="7Onpa6XKDJo6FndSiPpH-2" value="" style="ellipse;whiteSpace=wrap;html=1;aspect=fixed;fillColor=#000000;movable=1;resizable=1;rotatable=1;deletable=1;editable=1;locked=0;connectable=1;" vertex="1" parent="1">
          <mxGeometry x="1598" y="-345" width="10" height="10" as="geometry" />
        </mxCell>
        <mxCell id="-JCz-ZJJVY7_VpqyZrt4-398" value="" style="rounded=1;whiteSpace=wrap;html=1;arcSize=2;shadow=1;fillColor=#d5e8d4;strokeColor=#82b366;" parent="1" vertex="1">
          <mxGeometry x="435" y="-30" width="206" height="416" as="geometry" />
        </mxCell>
        <mxCell id="-JCz-ZJJVY7_VpqyZrt4-226" value="" style="rounded=1;whiteSpace=wrap;html=1;arcSize=2;shadow=1;fillColor=#d5e8d4;strokeColor=#82b366;" parent="1" vertex="1">
          <mxGeometry x="478" y="-784" width="168" height="112" as="geometry" />
        </mxCell>
        <mxCell id="-JCz-ZJJVY7_VpqyZrt4-7" value="" style="group;fontFamily=Courier New;" parent="1" vertex="1" connectable="0">
          <mxGeometry x="-1374.01" y="620" width="129.01" height="161" as="geometry" />
        </mxCell>
        <mxCell id="-JCz-ZJJVY7_VpqyZrt4-6" value="" style="rounded=0;whiteSpace=wrap;html=1;fontFamily=Courier New;" parent="-JCz-ZJJVY7_VpqyZrt4-7" vertex="1">
          <mxGeometry width="129.01" height="161" as="geometry" />
        </mxCell>
        <mxCell id="-JCz-ZJJVY7_VpqyZrt4-5" value="" style="shape=image;verticalLabelPosition=bottom;labelBackgroundColor=default;verticalAlign=top;aspect=fixed;imageAspect=0;image=data:image/png,iVBORw0KGgoAAAANSUhEUgAAAb8AAAIPCAYAAADjMdCaAAAgAElEQVR4nOzdWWxc93n38e85s+87h5zhvogUJWrfZcm24k2xUwdOnLR20CJofNE0SC6L3LRAgF4EvQraAE0uXLTB28B1EseGY3iL7dSOVtPaSVES933nkLMv57wXwpyKpmRLoiLJ4fMBDBgzZ3nmUDO/+W9nFF3XdYQQQog1RL3XBQghhBB3m4SfEEKINUfCTwghxJoj4SeEEGLNkfATQgix5kj4CSGEWHMk/IQQQqw5En5CCCHWHAk/IYQQa46EnxBCiDVHwk8IIcSaY77XBfwpdXV10dXVhaZp97oUIYS4pzweD9FolLa2NpxO570u5577sw+/l19+Gbl3txBirausrGTTpk3U1tZK+LEGwu/VV1/F7/fjdrux2+33uiQhhLirCoUCc3NzVFVVUSwWefTRRwmHw/e6rHvuzzr8AEKhEH/1V3/FgQMHaGlpudflCCHEXTU1NcV///d/MzExIb1g1/izDz+LxUJFRQWNjY20t7ff63KEEOKu8vl8hMNh5ufnAVAU5R5XdH+Q2Z5CCCHWHAk/IYQQa46EnxBCiDVHwk8IIcSaI+EnhBBizZHwE0IIseZI+AkhhFhzJPyEEEKsORJ+Qggh1pw/+zu8iD89XdcplUpkMhkURcFisWC1WpfdSaJUKlEoFCgUCphMJqxWKyaTyXjudva9dhtd19F1nUKhQLFYRNd1zGaz8d+drPNGvxJit9ux2WwrHi8fM5/PY7VasdlsN32XjWtrvva8JpMJk8mEzWZDVa//Hfbafc1mM1arFVVVb3juco2apqEoirGPoigoioKmaeTzeXK53HX3N5lMOBwO43oJcT+T8BOrViwWSSQSdHd3G7eTi8fjy4IgmUwyNTXFyMgIoVCImpoavF4vmqbd9r7XfshqmkYmk2FycpL5+XlyuRyhUIiKigqCweAdrTOVSl33OjQ3N9Pc3Lzi8aWlJaamphgdHSUej9PY2LgivG/m2pbPqygKLpeLUChEXV0dDofjuscqlUokEgm6urrw+/3U1tbidruvG06apjEzM8PY2BjJZBKbzUYgECAejxvHz+fz9Pf3Mzg4eN1a3W43W7Zswe12f+7rEuJek/ATq5bP5xkdHeVXv/oVxWKR9vZ2nn32WSoqKoxtLl++zB/+8AcuXLjAtm3beOSRR3A4HJRKpdve12Qykc/nGRsb4/Tp01y8eBGLxWJ8uBcKBRwOB7FYjIcffhir1XpH6jSbzdTW1q64DoFAYFn4lVteZ86c4fe//z19fX0cPnyY2traz2yB3ejals+r6zr5fJ5SqYTT6WTXrl3s3LlzRaBOTk5y9uxZXnvtNWKxGA888AA7duzA4/EY2xQKBaanp3nvvfeYmpqiWCxitVrRdR1FUQgEAmzbto3169eTSqU4fvw4H3zwAa2trSt+FicUCrF+/XoJP/GFIOEnVi2fzzM1NcXvf/97lpaWmJ6e5tChQwSDQUwmE5qm0dPTwxtvvEF3dzeqqrJ161aqq6spFAq3vW+pVGJhYYHjx4/z3nvv0dPTw7p166ioqMBqtTI+Pk4qlSIajbJr1y6AVdf5zjvv0NDQQE1NzbJroCjKijvml4Pl3LlzvPfee5w5c4aamhqefvppLBbLLV3b8nmrq6vRdZ2FhQWGhoa4dOmSEeSfbtUNDw/zxz/+kY8++ohIJIKiKLS1tS0Lv2QyyZUrV/j1r3+Nrus0NDQQiUTIZrMsLi4yNDREZWUlra2tZLNZzp49y+9//3uqqqpwOBzLapVfDBBfJBJ+4o5QFAWbzUaxWMRkMjE2NkY4HCYYDJJOp5mammJ6eppIJILf778j+6bTaa5cucKLL75IbW0tP/jBD9iwYQMejwdFUSgUCkxOTpLJZPD7/RQKhVXVCVfHtTZv3szzzz+/4rlPt4QSiQSvv/46yWSSvXv3cuXKldu+vuXzfutb30LXdYrFIpcvX+af/umfmJycZGRkhMbGxmWB1N/fT3d3N/v27WN0dJSTJ0/yjW98g8rKSqOFODw8zLlz57DZbBw8eJCnn34as9mMpmmUSiV0Xcfr9RrHVFWVYDDIU089xbp161bUeO22QtzPJPzEHVGeFFEe0+rp6SEQCOB0Ounu7iafz9PQ0MDs7KwxAWW1+05PT9Pb20uhUKCuro5du3ZRUVGxrFXl9/vJZrPY7XYj/G63zrJcLsfi4uKy+s1m87Kxw/n5efr6+rh8+TINDQ00Njbym9/8ZlXX+NrzJpNJJicnKZVKOBwOPB7Psok5S0tLjI6OsrCwwDPPPMOpU6c4d+4cg4ODBINB48dMNU0zjlueCBQIBLBarcD/teYKhYJRh6ZppFKpZdfAZDJht9ul9Se+MCT8xB1VV1dHe3s7x44do6qqiurqajo7OwHYtm0bR44cuWP7Tk1NMTg4SCQSobGxkXg8vuKYHo9nWTffauvUdZ3x8XFOnz5tPKaqKk6nk5aWFmNyzNDQEGfPnkXXdWpqaqirq8Nut3/O1buxT593amqK3t5eFEUhFAoRCoWMsM7n8wwPDzMzM4PNZmPbtm0Ui0WjmzQajRrhV544oygKg4ODHDt2jNraWrxeL06nE5/Pt6xuXddJp9N0d3eztLRkPG6z2QiFQrjd7pvu0hXiXpLwE3dUdXU1LS0t/PKXv2RkZIREIsGJEydoa2tj165dnDlz5o7tm0wmSSQS+Hw+XC7Xn7xOXdfRNI3h4WGOHj1qPG42mwkEAng8Hurr68lms3z88cd8+OGHPPfcc3R0dDAzM3NL9X3eeWdnZ5mfnycWi1FRUbGslZpKpThx4gSaprF9+3a8Xi9NTU1s3LiR8+fPU11dzaZNmwCoqalh//79jI+Pc+rUKf7lX/6FYrFILBajo6ODxx9/nNbWVqMLWNd1UqkUp0+fZnh42Din2+2mvr6edevWyYQX8YUg4SfuKIfDQTAYJBqNMj09zbFjx5ifn8fj8RCLxT6zVXCr+5bXummadsO1d3eyTkVRUFWVhoYGHn744WV12O124vE4qVSKkydPMjg4iNlsRlVVFhYWGB4eJp/PG/8fj8dxOp037Fr9vPNmMhmmp6fp7OxkdHSU8+fPs379ehwOB8lkkpMnT1Iqldi4cSOTk5MUCgXcbjcXL16kra2NTCaDzWbDbrdTVVXFI488QlNTE6OjoyQSCRKJBLOzs7z00ks8/vjjHDp0yFj/5/F42L1797JJP+WlEZ+eBCPE/UrCT9xRqqri8XjYsGED/f39vP/++1itVsLh8LJxqTuxr9PpxOv10tvbSzKZpFQqrVhCUB6D+vSygtutU1VVWltbefLJJ6/7fHl5weLiIn6/n/HxcRKJBENDQ2SzWSYnJ7l48SJOpxOLxXJT4Xej8w4NDdHV1cXg4CBnz56lrq4OVVWZmZnh4sWLhEIhYwarruvkcjnGx8cZGRlhamqKqqoqrFYrLpeLHTt2sGPHDorFIouLi5w9e5b333+fX/7yl4RCIfbs2WOEn9fr5cEHH2T9+vU3VbsQ9yO5vZm441wuFzt37iSXy3Hs2DHWr19PfX39Hd83HA5TVVXF4OAgQ0NDpFKpFS3Aa2ct3sk6b8RisRCJRPB4PGQyGc6cOcOxY8c4e/YsmUyG0dFRzp49y+zsLPl8flXnMplM+Hw+dF1nfn6eUqnExMQEPT095PN5lpaW6O/v5+OPP6azs5P+/n58Ph/z8/N0dnZed7F++Zjbt2/n0UcfxWazsbi4yMLCAqVSaVX1CnE/kZafuONsNhstLS08+uij1NTUcPDgQWpra0mn03d033A4TGtrK01NTfT19fFf//VfbNmyhXA4jMlkMtapZTIZnnjiiRWtv9upU9d1FhcXGRsbW/Gc2+3GZrOxdetWampqSCaTwNUAHhwc5IMPPlg2K/V6t0K7mfOWJ51cuXKFixcvUlFRQU1NDVarlYsXL9Ld3c26detoa2szxvbg6tKQmpoaxsfHOXHiBLt37yaXyzEyMkIymcTtdhMIBDCZTExOTnLu3DnMZjM+nw+3222EdXnNo8/nW1ZjedtP3zJOiPuRhJ9YNVVVMZvNeDwebDYbFouFaDTK448/zoEDB/D7/VitVoaGhnA6nTgcDsxmszGWdbv7+nw+WlpaePDBB/n44495//33yeVyVFZWYrFYmJub48qVK5RKJQ4cOIDX6111nS6Xi4WFhetOiCkvaVi/fv2yD39N0+jq6uIXv/gFGzZs4MCBAzidzhvek/N61/ba85aDcGBggPn5edrb22lra8NmszE5Ocno6Cjbt2/nwIEDbNmyxThWOp2mpaWF3/zmN1y8eJFUKkU+n+fSpUsMDQ3h9XqNyTMDAwP09PTQ0NBAc3Mzfr+f+fl57HY7JpOJy5cvr/iS4HK52LhxI2azWe7vKe57En5i1cpdZR0dHcZyg/L9J51Op3HbLbvdTktLCxUVFca4mq7rt70vXL2l2LPPPktHRwfd3d1MTk5y5swZCoUCfr+fbdu20d7ebox/3Yk6FxcXefXVV1dch3ILshyY13K5XGzZsoXa2tpbCoZrr+2157Varfh8Pr71rW+xZcsWmpubjfN6vV6j9Xktu91Oc3Mz69atI5FIkM1mCQQCtLW1kUqlGB0d5fLly2iahsvlYv369Tz33HPGsa1WKzU1NdTW1nL06NEVk4Ki0ShVVVW4XC4JP3Hfk/ATq2az2YjFYnz1q19dttbu0x+AHo+Hhx9+GKfTSTQaNVoIt7svXO1qK99TMhgMMjs7a0x+cblcxGIxqqqqsNlsaJq2qjrj8TjPPvus0Z35aS0tLVgslhXBpygKwWCQr33ta1RVVV13m8+6ttc7r8ViwePxEI/HqaiowOFwoGkaGzduxO/309zcvGJ9Y3k94vbt26msrCQajRotXJPJxPz8vDFu6nQ6CQaD1NXVGV8AXC4Xe/bsIRKJXLfWa7tNhbjfKfqf8S0ZfvSjH/Hiiy/y3e9+l8OHD9PR0XGvSxLCWLdXKpVuOIlEURRjKcfNdI8KcSOjo6P89Kc/5fLly4TDYX74wx9e98bsa420/IS4y3RdJ5PJMD8/v+wWYdcym834/X68Xq+snRPiT0DCT4i7rFQqsbi4SF9fHwMDA9fdxuFw0NzcjKqqEn5C/AlI+Alxl5V/lSGVSrGwsHDdbQqFAtlsVtbWCfEnIuEnxF1msVioqqoiEAgYvzP4aaqqYrfbjV9XEELcWRJ+QtxliqJgsViMGZtCiLtPppEJIYRYcyT8hBBCrDkSfkIIIdYcCT8hhBBrjoSfEEKINUfCTwghxJoj4SeEEGLNkfATQgix5kj4CSGEWHMk/IQQQqw5En5CCCHWHAk/IYQQa46EnxBCiDVHwk8IIcSaI+EnhBBizZHwE0IIseZI+AkhhFhz5Jfcb1I2m2VoaIjR0VFmZmbQdZ1gMEg8Hqe+vp6BgQFGRkbYvn07fr8fVf2/7xWLi4ucOHGCqqoqWltbMZlMLCwsMDExwfDwMLW1tVRVVXHy5EkmJyfJZrMAmEwmgsEgBw8eZHx8nPPnz5NKpdB1HZvNRiQSobm5mbq6OlRVpbu7e1kNyWSSEydOoCgK0WiUpqYmHA4HyWSSU6dOEQwGqa+vx+FwLKtXiNXSdZ1SqYSiKKiqiqIoAGiaRrFYRFVVzOaVHz/FYhFN07BYLMv2KZVK6LqO2WymVCpRLBaX7Vc+nqIo5PN5dF03zm0ymTCZTJ9Zp6qqK94D5efK5y3X8+k6i8XiinrKbqYGcW9I+N2EpaUlxsfH+eSTTxgeHmZ+fh5N0wgGgyQSCcLhMOfPn+fEiRM0NDTg8XhWhN8777zDtm3baGhoQNM0ent7OXfuHDMzM9jtdpxOJ2+//TbT09PYbDZUVcVisVBdXc2uXbvo6uritddew+FwYLFYsNlsuN1ucrkcHo8Hv99PV1cXx44dM2oonzeXy7F+/XoikQh2u52lpSU+/PBDmpubqaioMM4nxGpomkYul2NhYYFEIoGmaQCYzWbsdjterxez2czAwADBYJBYLGbsWw6aiYkJEokEjY2N2O12stkso6OjKIqCy+XC7/czPj7O2NgYDocDk8mEqqo4HA4CgQAWi4XLly+j6zp2u904v9PpJBqNYrVa0XWdbDbLwsICi4uLaJqGoihYLBZ8Ph9utxubzUY2m2V2dpZMJkNtbS12ux1d19E0jfHxcRYWFmhubiaRSDA5OQlAPp+nWCxiNpsxm81YLBY8Hg+BQACv13v3/yjihiT8bkJXVxcffvghw8PDdHR08Mgjj6CqKpcuXWJqaoqlpSUmJiYYGBggm82i6/qy/fP5PAMDA9TU1JBOpxkZGeGdd96hu7ubb3/727S3t7O4uMjg4CDbtm3j2WefxWazYTKZjDfk3NwcyWSSv/3bv6Wuro65uTleffVVzp8/j6IoPPDAA8zNzS2roXzegYEBJicnOXDgAMFgkEKhwOjoKH6/n0KhsKJeIW5HPp9ncHCQd955hyNHjmC3241WXn19PQ888ACxWIx/+7d/4+DBgzz33HPGvpqmkclkePvtt+ns7OQf/uEfqKysZHh4mH//938nHA6zZ88e2traePXVV3nppZdobW3F6XRit9upra1lx44duN1u/vmf/xmz2UxdXR2Li4uUSiWqqqr4zne+Q3V1Nfl8nv7+ft59912OHTuG0+kkn89js9l4+OGH2bVrF7W1tUxMTPD+++/T39/P3/3d3xGPx9F1nVwux5tvvsnRo0f5x3/8R7q6uvjd736HrutMTEwwOztLJBLB6/USCoXYsGEDO3fuZMOGDffwryM+TcLvM5S/jV6+fJkzZ87wpS99ia1bt1JfX298E00kEgQCAeDqm1/TtBVhUg6i6elpLly4wIcffgjAY489RktLC16vl0QiYbwBo9Hoiq7IcjdLMBikqqoKh8NBZWUliUSC6elpo+vl2hrK5y2/Cbu6urDb7ZhMJuMbank7IVajWCwyOTnJb3/7WwqFAg899BA+nw9FUYx/Z16vl3w+b3xh/DRN01hcXGRycpJUKsXJkyc5duwYLpeLxsZGamtrMZvN5HI5VFVl7969VFZWYjab8fv9RKNRFhYWSKVStLW1cejQIbLZLKdPn2ZycpLh4WHsdjuZTIZXX32VUqnEoUOH8Pl8FItF5ubm6OzsxGKx4HK5yGazJBIJZmdnKZVKy+ost/aKxSJNTU089thjABw5coRMJkNbWxsNDQ3EYjEqKioIh8N37W8hbs5Nhd/k5CSFQoF8Pv+nrueOmpubW9UHe/nb6NjYGFNTU+zatcsYswOWdWNcb/zi0wYHBzly5AiXLl3i0KFDPPnkk3i93mVjAYuLi8ab1GazGd1FcPUDZnp6GrfbbYz9Wa1WbDbbsvGIT6uvr6e9vZ1z587h8/lobm6+3UsixHWlUilGRkY4fvw4Bw4c4JlnniEQCBhhNTY2htlsZmZm5jOPo+s6mUyG3t5eent7uXjxIo8++ig7duygrq6OZDKJzWYjFovx6KOP0tjYaOybyWRYWlrC5XLR3t7O4cOHjZba6Ogos7Oz+Hw+EokEJ06c4MEHH+TrX/86Ho8HXdfp7e3lxz/+MZcvX6aurg6bzXZTr721tZXW1lbg6hfgpaUldu/ezZYtW6ipqbn9iyr+pG4q/F5//XUmJiaYmJj4U9dzR504cWJV4VcqlZibmwMgFApht9tXNTZ27Ngxent7+fu//3v27NmD1+tdcbzTp0+TTCYxm81UVlbS0tLCvn37AEgkErz55pt4PB6SySTd3d089NBD7N69G5fLdcPzNjY2snnzZv71X/+VWCxGbW2ttPbEHTU1NcXQ0BA1NTXU19cTDAaNf9tWq5V4PE4+n//c8CsWi4yOjvLzn/+cDRs28Nhjj7F///7bajnpuk6hUCCZTJJKpYyemnKdtbW1y96DwWCQXbt2sbi4yNmzZ9m4ceOtXwjxhXFT4bdp0yYaGhqu21VxP5udnWV8fHxVxyi/Mcph8VktrM8TjUaJx+N0d3cTi8Worq5esU04HKa9vR2LxUIgEKCyshKLxQJc/RCpqakhEomwtLREIpEgk8nQ19f3mR8ODoeDiooKmpqayGQynD59mnQ6fduvQ4hPS6VSJBIJPB4Pbrd7WW+GoihYrdZlXYc3ks/nWVhYoFQqsWXLFtavX08gEFi2fyaTob+/n5deeolIJILT6aS1tZVIJEKpVDJmVzscDlKpFBcuXMBmsxEMBkmn0yQSCbxeLx6PZ1mdFouFSCTC4uIiMzMzN5zB+UVTKpVYWFhgcnKShYUFXnnllS9sN6yiKJhMJjZu3LjqMdSbCr+dO3eu6iT3ypkzZzhy5Mht76+qKk6n0xgjy+VyxkwuwBgvUxTlplpSbW1tdHR0cPLkSc6cOUM8Hicejxuz0gBqa2vZv3+/0e1Z/g+uhtiGDRtoaGggnU6jKAojIyN0dnZ+5rdUVVXxer3s3r2b3t5ejh07xtLSkrT+xB1TKpVuuGTgVpT/TXq9XiwWizE2XZ45ClAoFFhYWKCrqwuv14vP58Pr9eJyuYwZp2NjY5w7d46lpSVSqRSBQABN0ygUCjesU1EU471dLBZRFMV4b5fruvY9/0WZIa1pGtlsllQqRTKZpKen5wvXi1dWnpUbjUZXfSyZ8PIZTCYTPp8Pu91uDNRXVlYaE1zK641UVV325ryRpqYmHn74YUqlEv39/fznf/4nL7zwAvF43NjG6XRSUVFhTEy59k1qMpkIBAJEo1E0TUPTNGZmZrh06ZKxNvBG3G43e/fuZWBggJMnT6Ioyk19ExfiZrhcLrxeL5cuXSKVSt32cZxOJ42NjRw+fJipqSl+9rOf8YMf/ICmpiYjmNxuN+vXr+d73/uescbV6XSiaRrpdJpgMMiBAwf467/+a0qlEidOnOD06dOcPHnSCMrr1VksFpmdnQWuDnM4nU4AY90g/N/kNbjaE7OanqC7xWw2Ew6Hqa6uJhAIGLNev6jKkw1XS8LvM5S/CXZ0dDA3N8cHH3zA5cuXicfjqKpqzAI7dOiQ8cbr7OxkcnLS6KqsrKwkk8mgaRpWq5VoNMqDDz7I0aNHuXTpEm+99Ra7d+/G4XAA/7dY12KxrPhmmc1muXjxIktLS2SzWbq6ukgkEjQ0NHzu4LzJZMLv91NTU0MsFuPs2bMsLCz8aS6cWHMikQi1tbW8/fbbDA0NMT4+TjgcNia8DA8PY7VaP/c4qqri8XjYsWMHY2NjnD59mtdff539+/ezfft2dF1HVVXsdjuRSITKykpj30wmY3SLeTweKioqgKutSF3XSSQSxGIxvF4vb731FkNDQ0xOThIMBimVSkxNTXHmzBlisRibN28mGo2iKAqJRIKlpSXy+TyFQoH+/n6KxSLxeNx4n9/Pyp9jVqsVh8NBOBw2rs1aJuF3E9avXw/AK6+8wuLiInNzcyiKwszMDGazmb179+Lz+QiFQoyMjLC4uGgEV7FYxOfzGS1Gl8vFpk2byOfzZDIZrly5Qjwep7W1laqqKgKBwHW7U/x+P+FwmImJCZLJJOl02gji7du3GwuAY7HYskXysVjMOKbZbKaxsZE9e/YwNjaG3W5fcecKIW5HIBCgtraWYDDI/Pw8Z8+eNcIhk8kwNDRELBZDVVVKpRLT09NcunTJ2N9kMhmTTxwOB3V1dVRXV6PrOu+++y52u51wOGz8W/68O7Zce/yJiQkKhQKRSIRYLEYoFCIQCBh1VlVVUSgUGBgYYGFhgY6ODtrb23E6nQQCARwOB/39/UZvy7lz51BVlQ0bNhhfWsvKPTXynrr/SfjdhGAwyPbt22loaGB2dta4e4Xf7zfW8OzZs4dQKAQsnxQTiUQIhUJ885vfJBaLGbdt6ujoIBaLcenSJSKRCA6Hg69//evLtrnW9u3b8Xq9xjiE2Wxmz549RKNRY9B/+/btVFVVEY1GjS7Sb3zjG8ZaKEVRaG5uxuPx0NjYSHV19YpBfyFuh6qqVFZW8sILL3D06FFeeeUVY4zc4XDQ3t5OKBTCZrOxtLTE22+/TU9Pj7F/ZWUl3/72tzGbzcbSnfJyg3Q6zeDgIC+99BLPPvssJpPphst7NE1bdvzyNtFolD179tDc3IzFYuGFF17gj3/8Iy+99JKxDtHn8/HlL3+ZrVu3GkG8a9cuAN58802SySQmkwmz2cwDDzzAww8/jM/nW3Z+k8mE1WrFbDZ/YcYE1yoJv5tgMpmMO0n4fD7S6TS6ruN0OnG73aiqSiwWw+12G/cCLHO5XMZElfLtmBRFweFwEI1Gje4Iu92+YptrVVVV4XK5jOObTCZcLhdOp9Po8qyqqsLv9+NyuYxztLe3Y7fbjeM5HA6qqqqw2Ww4HI7PXSMoxM2y2Ww0NDQAV8Msn89TKpWMHoh4PI7ZbOaFF14gl8sZY2oAHo+HSCTCvn37jKUSVquViooKHnjgAdatW4emaYTDYfbt20dDQwPBYHDZ+cu3A/z08S0WC36/n/r6etxuN4CxPjAWixmzOl0uF62trVRUVBhfCOPxOHv37iUUCpHJZFBVFavVSlNTE9FodEW358aNG/H5fNTX168IRnF/UfQ/4yl/P/rRj3jxxRf57ne/y+HDh+no6LjXJQkhxF01OjrKT3/6Uy5fvkw4HOaHP/whtbW197qse07a5UIIIdYcCT8hhBBrjoSfEEKINUfCTwghxJoj4SeEEGLNkfATQgix5kj4CSGEWHMk/IQQQqw5En5CCCHWHAk/IYQQa46EnxBCiDVHwk8IIcSaI+EnhBBizZHwE0IIseZI+AkhhFhzJPyEEEKsORJ+Qggh1hwJPyGEEGuOhJ8QQog1x3yvCxBC3N8ymQxzc3P09/eTSCTQNI1AIEBtbS3BYJCxsTEURcHj8RAKhbBYLMa+k5OTzM7O4nK5CAQCeDweCoUCV65cYWJigo0bN5LP55mYmGBsbIx8Pm/sW19fT3V1Nfgr6+oAACAASURBVPPz80xMTDA7OwuAzWYjEAjQ1taGz+czzpdKpZidnaW/v59UKoXZbCYej1NVVUUwGARgdHSUqakpKioqCAQCOJ1OAKamppiZmcFut6NpGul0msHBQXK53HWvSUtLC/X19Ubdn1ebuP9I+AkhrkvTNHK5HAMDA1y6dImRkRGSySSapuHz+SiVSuTzec6fP4/FYiEej+P1epd94E9MTNDd3U00GqWxsRFVVenv7+fcuXPMzc1RV1fHzMwMZ86cob+/HwC73Q6A1WrF7XbT1dVFX18f09PTuFwuzGYzHo+HUqlES0sLlZWV5HI5+vv76enpYWxsjGw2i8lkYnx8nNbWVtatW4fX62VoaIhz586xefNmLBaLEX6Tk5N0dXXh8/lwOBzkcjkuXbpEIpEgm80yPT2N1+s1QtTr9RIOh+nu7uby5cs3rC0Wi93lv5q4WRJ+QojrKhQKjI2N8cYbb3D8+HGeeOIJ1q9fj9ls5vLly4yOjjI7O8ulS5fwer3Y7XaKxeKyY8zNzdHX10epVCIQCJDNZvn5z3+O3+9nz549BINBBgcHGR8fJxgM0tzcTGNjIwDBYBBN0xgdHQWgo6ODjo4OJiYmuHDhAq+88gqPPPIIjzzyCMPDw7z55pt0dnbyF3/xF8RiMVKpFG+88QYDAwMsLCywd+9epqenuXTpErFYjKqqqhV1RiIR2tvbaWlpIR6PMz8/T39/P7/+9a9paWnhySefBCASiQAwPDz8mbVJ+N2/JPyEENe1tLTEBx98QDqdZs+ePWzdupVoNIrJZCIUCqEoCul0msuXL5PP5ymVSui6vuwYpVKJXC5HKpXi6NGjLC0tEQgE6OjoYOPGjbhcLjRNQ9M0vF4vVVVV1NfXA1dbfvPz8xSLRUwmEz6fj8rKSjweD+l0ms7OTubm5kgmk/zhD38gk8mwa9cuNm7cSCQSIZvNUigU6Ozs5N1332XDhg0Ui0VyuRzFYhFN05bVWSgUKBQKWCwWgsEgbrcbt9ttdKH6/X6jNpvNxsLCwufWJu5fEn5CiOtKpVIcO3aMhoYGvvSlL9HS0mJ0E0ajUeBqd6HVav3M4+TzeQYHB5mamqJUKnH48GF27NhBXV2dsU25izWTyZBKpVAUBVVVMZlMKIpCLpdjaWnJCBxVVXE4HFitVlKpFMePH6exsZFDhw7R1NSE0+mkVCoRCoXo6enh+PHjLC0tUSqVPvd1m0wm7HY7drudUqmEy+XCYrHgcDjw+XzGdoqiGK/vRrXdD3Rdp1AokM1mSSaTjIyM3OuSVkVRFHw+H16vd1XHkfATQlxXoVBgfHyc5uZmampqbvvDfGFhgY8++ojm5mYef/xx9uzZQ2Vl5bJtstksFy5cYHp6mosXL2I2m9m+fTvxeByAsbExRkZGGB8fZ2Zmhvn5eTZv3sy6desoFApMTEzQ0tKyrE6TyYTL5cLpdGI2m0kmk2Sz2dVdlOv4rNruB6VSiYWFBaamppienubVV1/F7/ff67Jui6IoWCwW9u3bx969e1d1LAk/IcQN6bputMLKLZ1bZbVaqa+vp1gscvHiRR588EFKpdKyiTGqqhqTSCorKzGZTLjdbuP5ckssGo1itVrRdZ3h4WFmZmbwer03rFNVr67m0jRt2fOf7p7Vdd3Y5lZf52fVdj9QFAWbzYbL5cJms9Hc3ExFRcW9Luu2lbvdV0vCTwhxXeWxLF3XWVhYwOl0YjKZjOd1XV8RItfjdDrZtGmTsVzh7NmzWCwW6uvrjeNZLBZ8Ph9NTU20tLSgKAqhUMiYQOP1eolGo7S1tZHP5/F4PLz++uuMjIzQ2NhoBOC1dWqaRj6fp1AoGAFgs9kwm80UCoVlk3OKxaIx3mc239rH4mfVViqVVvXF4U5QVRWn04nH48Hv97NlyxajRf1FVF5Ws1oSfkKI67LZbDQ1NVEqleju7iYQCCzr+ixPEim3um7EarVSXV3Nhg0bWFxc5Fe/+hXz8/P85V/+pfEhZjabCYVCVFdX09DQYLTSyq0nl8tFVVUVDQ0NuN1uPB4PL730EnNzc5RKJRoaGigWi8vqLBaLTE1NkclkcDgcOJ1OvF4vbrebxcVF0um0UWM6nWZpaQmPx2OMa96sz6otk8ngdDrvafgpioLJZMJisWC32wmHw1/olh/8X4t+NST8hBDX5fF4OHToEJ988gnvvfceiUSCiooKTCYTExMTBAIBbDYbuVyOfD5PX18fHo8Ht9tttBqXlpZQFAWr1UpdXR1Op5P5+XnGxsb4n//5H5588kmjBWYymTCbzdcdW1xcXGRoaAi/34+u61y5cgVN03A4HITDYR5++GFOnTrFu+++SzKZJBQKkcvlOHPmDPl8nsceewyfz0dtbS0tLS10dnaSzWaNdXznzp0jnU5TU1Nzy11qn1Wb1Wq9p8FXVu7OLU8iutXW7Z8juQJCiOtyOp1s376dmZkZBgYGuHLlCjMzM5jNZsbGxqirq6O6uhqPx8Pc3BwzMzNcvnzZ6F6Mx+PG3WDcbjeRSIR4PE6hUOCDDz7g/Pnz7N69G1VVjW0+HXzXhujMzAxXrlwxFp2vW7eO2tpa/H4/O3fuXFbn5OQkxWKR/v5+tm7dysMPP4zH48Fms7F+/XpOnTrFxMQEVquVdDpNLpejtraWmpqaZbMIyzM/KyoqVnS13Uxt98uMT7GShJ8Q4rrKk04ef/xxduzYwcjIiHF7s/K4kcvlwu/3MzQ0xMzMjDGWVl7fV1lZSTQaxefzEQwGcTgcbNq0Cbvdbtw+zOv1sn37dmObazkcDjo6OvB4PMzMzBiL5cuL4SORCCaTCa/Xy+HDh9m5cyfDw8Ok02lMJhOHDh0iGo0SDAaNVmV7ezvf+973GB0dZWZmBovFwsGDB6mpqcHv9y/rUrNarVRWVvKlL32JhoaGW65N3L8k/IQQN6SqKh6PB7vdjsvlIpPJGAvSy7fzampqIhwOLxtDKweS2Ww2uj0dDgeqqmK326mrqyMQCBgzPq/d5lo2m42GhgaCwSDpdHrZzMVQKGS0rMqzRe12O263m1wuh6qq+P1+HA6H0c2nKAoOh4N4PI7b7SYejxstOK/Xu2IsyWKxEAgE2LJly4qW383WJu5PEn5CiM9UDqYbTZIIh8OEw+FbOqbP51u2YPxGzGbzTR+/HKyfXkP4aeWQqqio+NyJH+W1gi6Xa1W1ifuP/KSREEKINUfCTwghxJoj4SeEEGLNkfATQgix5kj4CSGEWHMk/IQQQqw5En5CCCHWHAk/IYQQa46EnxBCiDVHwk8IIcSaI+EnhBBizZHwE0IIseZI+AkhhFhzJPyEEEKsORJ+Qggh1hwJPyGEEGuOhJ8QQog1R37JXQhxT+i6Tj6fJ51Ok8lk0DQNq9WK0+nE6XSSyWTIZDK4XC6sVismk8nYt1gskkgksFgsOBwOzGYzuq6Ty+WYn5/H6XTi9XpRVZVCoUAulyOZTKJpGiaTCY/Hg9VqxWy++hG4tLREJpPB5/NhtVpRFAWAVCpFNpvF4XBQLBbJZrNks1k0TVvxehRFwe/3G79Qn06nSaVSFAoF7Ha78TrKxxb3loSfEOKeKBaLzM3NcenSJXp7e8lkMlRVVdHS0kJzczMDAwMMDAzQ3t5ORUUFLpfL2DedTnPy5EmCwSDNzc14vV4KhQLj4+P84Q9/oLm5mZ07d2K1WkkmkwwPD3P+/HnS6TRer5fNmzdTVVWF1+sF4MqVK/T29rJv3z4ikQgWiwWAwcFBBgYGaGlpIZFIMDAwwODgINlsdtlrURQFs9nMAw88wL59+wAYHR2lq6uLqakpGhoa2LBhA+Fw2Di2uLck/IQQd93s7Cx9fX387//+L6qqEgwG8fl8TE9PMzc3h6qqdHV10dPTQyQSwefzrQi/s2fPUlNTQ0VFBaqq0tnZSWdnJ8FgEJfLhaZpDA4O8vHHH9PT00MsFsNut7O0tMTLL79MR0cHu3fvJhQK0d/fz/Hjx2lvbycQCBgBNTo6yqlTp3C73bjdbqqqqlBVlampKSYnJxkfH6empoampiZMJhOBQIB0Os3Fixfp6upifHycSCTChQsXuHDhAs888wxVVVVGi1PcOzLmJ4S464aGhjh69Cg9PT2USiXq6upobm4mEAhQKBTIZDJMTk4yODjI4uIihUJh2f75fJ7h4WHGx8eZnp7m3LlzfPLJJ/T39xOLxYhGo+RyOTo7Ozlz5gwzMzNEo1EaGhoIhUIMDw9z+vRpzp8/TyaTYXp6mt7eXlKp1LIuzbm5OQYHB0kkEjgcDhoaGti0aRONjY14vV7y+TyhUIitW7eyefNmotEoyWSSI0eO0NfXh81mo66ujnQ6zccff8zQ0BDJZPJuX25xHfL1Qwhx150+fZqPPvqI559/ns2bN1NZWYmiKHR0dBhjfz09PZ97nFwux+DgIL/97W+pra3lq1/9Ktu3bycQCDA0NMRrr71GS0sLzz77LPX19djtdpLJJD6fjyNHjvDGG2/Q2tp6UzW7XC6i0Si6rlMoFJiZmWF4eJjKykoaGhoAMJlMDA4OcuzYMbZt28bXvvY1/H4/2WyWdDpNb28vgUAAv9+/qusnVk/CTwhx1+i6jqZpJBIJFhYWqK6uJhqNYrfbAbDZbMa2qvr5HVOnT5/mypUrxGIxduzYQUdHBz6fD0VRyOVyTE1NsWHDBhoaGnC5XJhMJlRVZf369Rw/fpy+vj7y+fxN1a4oijHpxmw2G8cymUzLxvFKpRILCwuoqmqMHwYCAYLBIHNzcywuLt7KJVs1TdNIJpPMz8+Ty+X48MMPiUajd7WGO8lkMtHQ0EB9ff2qjiPhJ4S4q0qlEvl8nkKhgNvtxuFw3PaxRkdHAXjssceorq6mqqoKRVEolUrG7Eyz2WxMbIGrwRUOh1FVlfn5eYrF4h2dgalpmhGoVqsVuBrqTqeTubk5crncHTvXrdSTyWQoFotf6K7X8sSiQCCw6mNJ+Akh7qo7GTRVVVVYLBbOnTtHS0sL27ZtW7Yk4k7Uouv6akpccb67vdRBVVXsdjtutxuXy0VbWxuVlZV3tYY7qdyiXi0JPyHEXVPuOnQ6nTgcDubm5lhaWsLj8Szb7mYDp7m5mbq6Oi5dusSVK1d47bXXeOihh/D7/VitVjweD4VCgenpaQKBAGazmXw+z+joKKVSyQhPm82Gw+EgnU6TzWaNmaXlsTqn02l0zX4eVVWN1mw6ncZut5NKpUgkEng8HpxO5y1csdVTFAWr1YrD4cDr9VJXV0d1dfVdreFOKX9xuHbm7+2S8BNC3FWqqlJVVUVtbS09PT2YzWbq6upQVZVMJkM+nycQCJDP59E0zQiO8nigxWKhUCig6zrRaJStW7fi9Xrp7u7mo48+IhqN0tbWhsPhYN26deTzeTo7O2lra8PpdLK4uMjHH3+Mpmls2rQJp9OJ3+8nEokwODiIx+NZtmBe0zR8Pt9Nd89arVaqq6spFAr09PQQjUYZHR1lenqaxsbGO9JldyvKXYXlGwKEw2EqKiruag33Iwk/IcRdt2XLFnK5HK+99hrd3d3s3LkTh8NBb28vMzMzPProoyQSCWM2J8DExAQAoVCIfD5PqVQCwOfzcfjwYZxOJ++99x6vvPIKjz32GHv37uXpp5/m7bff5sUXX+SJJ54w1hK+9dZbbNu2jaeeegqv10tjYyNjY2O89957jI6OsmnTJkZHR+nr68Pj8RAKhW66teF2u9m/fz89PT388pe/ZNu2bXzyyScMDQ3x3HPPEYvF/jQXVdwSCT8hxF0XjUbZuXMnJpOJdDpt3ArM5/NRXV1NdXW18VixWGRsbIy5uTng6ho/v9/Phg0bqKurw+v14na72bp1Kzabje7ubjRNI5vN0tLSQqlUora2FlVVSaVSOBwOnnrqKVpbW6mrq8Nms1FdXc2+fftwOBzk83mmp6cxmUzs2bOHaDRKOBxeNlbndruJx+Ok0+kV42cul4vdu3fj8/kYGhoik8nQ1tbGjh07qK6uXjajVdw7En5CiLvO7XbT2NhIJBJhZGSEkZERcrkckUiEmpoaotEoqqpiNpuZm5tbtsi9PJa3bds2QqEQHo8HVVWpq6sjEAhgt9uNMcRIJGK07Hp7e8nlcrhcLmNBfbkrMxAI4HK58Pl8DA8PMzs7a9RY7pL9dP21tbW4XK4VXYg2m42mpiacTifhcJi5uTljLWC5VnHvSfgJIe4Jk8mE1+ultbWVpqYmACPwVFUlHo8TjUbRNG3ZBJjy8/X19cY6u3KguN1u9u7du+xxp9NpHEvX9WXnuJbFYjGWS5RKJWO7680edblcOBwOKisrbzi7tKKigmAwaNxM+3rnFPeOhJ8Q4p5RVRVVVa97s2ez2XzL98AsT+u/nWOVJ4bczDnLdX8Wk8l0S8suxN0lX0OEEEKsORJ+Qggh1hwJPyGEEGuOhJ8QQog1R8JPCCHEmiPhJ4QQYs2R8BNCCLHmSPgJIYRYcyT8hBBCrDkSfkIIIdYcCT8hhBBrjoSfEEKINUfCTwghxJoj4SeEEGLNkfATQgix5kj4CSGEWHMk/IQQQqw58kvuQog7Ttd1SqXSsl8813UdTdOMxz/9i+nlfTRNw2KxoCjKsn0A4/EyTdPQdR1VVZc9Xt5P0zRUVTV+Ub38eLFYxGQyoSgK+XweXdev+zrKv8Ze3rZ8TkVRlp2vfOxCoUCxWDT2NZvNK2oT9wcJPyHEHVEqlUgmk8zOzjI/P2+EhMViwev14nK5UBSF0dFRIpEI8Xjc2FfTNNLpNFNTUySTSVpaWrBaraRSKXp7e7HZbITDYQKBAIVCgUQiwfT0NIVCAQBFUfD7/YTDYVwuF9lsloWFBRYWFgiFQlRWVgJQKBRYXFxkcHCQUChEMBikr6+PbDZLqVQilUphNpux2Wyoqorf7ze2W1paYmZmhlQqRalUwmq1EovF8Hg8mM1m0uk0g4ODjI2N4XQ6MZvNmM1m7HY70WiUcDh8T/4u4vok/IQQd0Q2m+XSpUu89dZbHD16FKfTSaFQwGq1sn37djo6OnC5XPzmN7/h4MGDfO1rXzP2LRQKTE5O8s4779DX18f3v/99gsEgvb29/OQnP6GxsZEvf/nLuFwuJiYmOHnyJL/73e9IpVJYLBYymQz79u3jscceo62tjcnJSc6cOcMnn3zC/v37eeKJJwBYWlqiu7ubX/ziF+zbt489e/bw0ksvMTExQTqd5uLFi/j9fuLxOFarlY0bN7J79262bt3KuXPneOeddxgYGGBxcZFAIMDzzz/Ppk2b8Pv9TE5O8vLLL/P666/T3NyMoiiUSiXC4TBf+cpXeOKJJ6QFeB+R8BNCrFomk2FoaIhXX30Vu93O888/j8fjAa62CBVFwe12UygUSKVS5PP5ZfuXuyOz2SzJZJKlpSUuXLjA0aNHaW5uZuvWrcRiMTKZDCdPnuTIkSMcOHCAcDiM1WplaWmJ3t5eXnnlFf7mb/6GXC5HPp8nk8kYrUO42sIs16BpGtFolKeeeop0Os3ExASzs7M0Nzfz0EMP4fP5qKioIBwOs7i4SH9/P7Ozsxw+fBiA2dlZ/vjHP2Iymdi3bx+apmG1WonH43zlK18hGAwyPT3N22+/zfDwMPPz83i93hXdveLekL+CEGLVFhYW6O/v58qVKzz00EM89dRTuFwuTCYTuVyOsbExMpkM4+Pjn3kcTdNYXFzkzJkzDA4OMj09zdNPP01HRwd+v5++vj76+vpYWFhg//79NDc3YzabSaVS/OIXv+CDDz5gcHAQp9P5uTWbTCYCgQD79+8HoL+/n7fffpt169Zx8OBBIpGI0aq8fPkys7Oz2Gw2Dhw4gNfr5cKFC/zkJz+hpqaGffv2AeB0OqmpqeHAgQPU1NTQ29vLG2+8QSKRIJPJGF8IxL0nsz2FEKs2OjpKb28vra2tNDc34/F4jEkmVquV2tpagsHg5x4nl8sxMDDAz372MxKJBM888ww7d+6koqKCTCbD+fPnMZlMbN++nVAohNVqxWQy4fF4aGhooLGxkf7+/s8N2VtRrslkMtHc3IzNZsPj8RAKhVhcXCSVSl13v2KxSDabJZvNoigKDodDuj3vI9LyE0KsWjqdZnFxEZ/Ph9vtXvYhryjKstmSnyWVSjE9PY3D4cDr9bJu3TqjBVkqlZifnwcgGAwum/mpKAoulwuPx8PS0hJ2ux2LxXJHXpumaaRSKXRdx+l0GjNYy7M4y7NHdV1nYWGBM2fO8OKLL+JwOJifn8dsNhOJRIx977Ziscjc3Bzj4+PMzMzw3//934RCobtex52gKApms5ktW7awZcuWVR1Lwk8IsWq6rqPr+nWXANwqi8VCJBJBURRmZ2eNoIOrQQRc9xzlc5e3UVXVWApxbZ3l5Q+3Uue1573eEofyf+XxxImJCWw2G5lMxhjnSyaT+P3+ux6Auq5TLBaNcdDp6ekVY65fFOUlMjdqbd8KCT8hxKo5nU68Xi/z8/Or+mAKhUK0t7fT0dHB+Pg4L774Ij/4wQ+or683xugWFxeZm5sz1v6VpVIpEokEFRUVeL1eY3JLed0dXJ18UyqVjGUIN0NVVVwuF9PT06TTaSMIy8crL+dQFIVQKMSOHTv4/ve/T3V1NRMTE/ziF79gbGyMs2fPsnPnzrs+7mexWAiHw9TU1BAMBvnOd75DTU3NXa3hTipf79WS8BNCrFo8HqepqYmXX36ZqqoqNm/ejM/nw2Qykc1mGRkZIZvNfu5xFEXB5/Oxf/9+hoaGOHv2LK+99hr79+9nw4YNbNy40Xj84MGDuN1urFYrCwsL9PX1MTY2xmOPPUY8HmdycpKZmRnm5ubI5/NYLBamp6cZGhoiEong9/tv6rXZbDYaGhro6+vjypUrZDIZ5ubmmJiYIBAI4PV6jdpVVcVqteJ2u/F6vSSTSRRFIZfLrQjOu6m80N9iseByuXC73fekjvuJhJ8QYtVCoRDNzc0EAgFmZmbo7OwkEAgYsz3n5+fxeDxommYsizh16hTAsjuwqKqK0+mkpaWFSCRCLpfj1KlTuFwuQqEQ8XicWCzGlStX6O7uJplMYrPZjIX1kUiE+vp6Kisr0XUdv9/P3NwcnZ2d2Gw2enp6mJycpKWlhVgstuw1lMcmP90larFYqKmpwe/3c/HiRbq7u43F+uvWraOmpsbYvlAoMDc3x4ULF5idnWV2dpZ0Oo3P58Pv9xuvU9x7En5CiFWzWq3U1NTw7W9/mw8++ID/+I//oFgsUiqV8Hq97N27l3Xr1lEqlRgfH2dgYIDjx48D4HA4iMfjPPXUU1gsFqxWK4qisH79erxeL4lEwrgLyze/+U0OHjyI1+vlzTffZGZmBri6bGHv3r08/fTTxGIxHA4HsViMp556iiNHjvDjH/8Ys9mM0+mkrq6O/fv3U19fv+w1KIqCzWZbcQs1s9mM3++nvb2dqakp/t//+3+k02kqKir4xje+wYYNG4Crwb24uMjZs2f513/9/+zd13Nc933//+ees2d7L+gdJEAUgk1sYoFKIkqyrGK5Kk5sx0kmzvjGE9/kIrnITP6C3ziTxPO1nShxbDmxHHermBJFSuwFLCBRiErURdvezu7vgrMnhEiKkEiBVPB+zHBELc75nM85IPDaT93/z9glxu12Gwvl7Xb7Kn1HxJ1I+Akh7lopOBoaGnjsscdobW1F13WKxaKxDZjf70fXdb71rW+Ry+WwWq0AxlKFpqYmQqEQW7Zswe/3YzabKSsr48knnySZTGKz2XC73bjdbrZu3YrX6yWVShl7e9bU1FBXV4fVajVmf27evJlwOMzu3buNLkmv10t1dTU2m23ZPQSDQb785S8TCATweDzLWmmKotDc3Izdbmfbtm3k83mcTietra1G9244HObZZ5+ls7MTu91uzAi12+00NDQYr4kHg4SfEOKeUFUVj8dDZ2cnnZ2dtz3ugyZbVFZWLvt/u91OV1fXTceVFpN/EE3TqK6uXraH6AdxuVzs27fvtl8Ph8OEw+Hbft3j8bB9+3a2b9++ouuJ+0vehgghhFhzJPyEEEKsORJ+Qggh1hwJPyGEEGuOhJ8QQog1R8JPCCHEmiPhJ4QQYs2R8BNCCLHmSPgJIYRYcyT8hBBCrDkSfkIIIdYcCT8hhBBrjoSfEEKINUfCTwghxJoj4SeEEGLNkfATQgix5kj4CSGEWHMk/IQQQqw5En5CCCHWHPP9roAQYm3K5XLMzc0xOjrKxMQEuVwOv99PdXU1DQ0NTE1NMTU1RUNDA36/H5vNZpybSCS4ePEibreb6upqnE4n2WyWSCTCxYsXqampobW1FbPZzNLSEpOTkwwPD5PJZHA4HDQ1NVFeXo7b7Qagv7+fa9eusXHjRrxeL2bz9V+Nw8PDTE1NUVNTQyKRMOqUzWaX3YvJZEJVVTZu3Ehrayuzs7OMjY0xOTlJsVhkw4YNtLW1rd7DFXck4SeEWHWJRIKZmRnOnz/PzMwM8XgcXdeZnZ0lGo3icrno7+/n8uXL2O127Hb7svBLJpOcOnWKqqoq3G43iqIwMjJCb28vU1NTOJ1O8vk8S0tL9Pf3c+XKFeMaZrOZmZkZNmzYQEtLC06nk4GBAU6dOmUEaSn8RkdHOXfuHCaTCV3XmZubY3JykoWFBeLxOLFYDJ/PRzAYxGw209DQQC6XY2pqioGBAQYGBpiamkJRFAm/B4yEnxBi1U1OTnL06FF+8Ytf0NbWRnd3N3a7nf7+fgYHBwmHw1y+fJlLly7R2dlJVVXVsvPT6TRXrlwhn8+zfv16CoUCr7/+Ou+88w4vvfQS9fX15PN5Lly4wJtvvsnw8DCf/exnCQaDTE5O8sorr3D16lXMZjMtLS1cu3aNnp4ennzyyWXXmp6epre3l8bGRpqbm6mrq6Ozs5OhoSF6e3u5ePEizc3NdHd3YzKZCIVC5PN55ufnAbDZbPT09NDR0bGqM4Mi+wAAIABJREFUz1fcmYSfEGLVnT9/nnfffZf9+/ezadMm1q1bh9lsJhwOk0gkKCsro7+/H13XKRQKFIvFZecXi0V0XSeRSHD16lVOnz4NwNNPP01XVxfBYJDFxUV+97vfYbVaeeGFF+jq6sLpdFJWVkYikWB0dJTXX3+diooKdF0nn8/fdJ1CoWC8brPZCAaD+Hw+kskkk5OT2O12o6sWwGq1YjKZaGtro76+nmAwyG9/+1t0XV+dBytWTMJvhXK5HAsLCywtLZFMJikWizgcDjweD8FgkIWFBaLRKNXV1dhsNkwmk3FuJpNhbGwMt9tNOBxGURSSySSxWIx4PI7X68XlcjE+Pr7smJmZGebm5nA4HPj9fjweDwBzc3NEo1HC4TB2u51isbisbhaLhXA4TDAYvF+PS4jbKhQKjI2NMTg4yJ/8yZ/Q2dmJy+UCIBQKGcfZ7fY7ljU2NkYqlWJoaIhdu3bx6KOPUl1djcViYXx8nHPnzrFv3z66u7uNsTyv14umafzoRz/i5MmTvPjiiyuqt9lsNurkdDqx2+1YLBbsdrsxdlhSXV2NruvkcjksFstKH83HolgskslkSCaTLC0tcfXqVdLp9H2t00dlMpkwmUwEAgECgcBdlSXht0KJRILjx49z+vRpBgcH0XWdxsZGtm7dyv79+zlx4gRnz57lj/7oj6ipqTHGDADm5+d55ZVX6Ozs5MCBA1gsFqampjh//jyXLl1ix44dtLW13XTMqVOnOHjwIA0NDezevZstW7YA0NPTQ09PDwcOHKC2thZd1zl16hQnT55kaGiIsrIynnjiCR599NH79biEuKVisUgulyOdTpPP5/H5fDidzo9c3rFjxygUCvzZn/0ZjzzyCPX19SiKgq7rZLNZ0uk0VquVQCBgvCG1WCzU1NSgqirT09Pkcrl7dXsPpHw+z+LiIjMzM0xPT/Ozn/0Mr9d7v6v1kSiKgtlsZv/+/ezbt++uypLwW4FLly5x+vRpRkZGKCsrY/PmzUZrKxqNkkqlmJycZGBggFQqdVPXSSaTYWBggLKyMlKpFMPDwxw5coQrV66we/dumpqayGazxjGlbp6ZmRnOnj3LwMAAPp+P9vZ2LBYLc3NzDA0NGQP4JpMJTdOorKxE13WGh4eZm5u7T09LiA+mKNdXWBUKBeOd/EdVVVWF2Wzm7Nmz1NTUsG7dOhRFMcrVdZ1isXjHa5S+XiwWb/r5ff8xnzSKouBwOHC73TgcDrZs2UJZWdn9rtZHpqrqTWPAH4WE3wcoFosUCgUuX77MO++8Q1NTE21tbUYLbHBwkKmpKcxmM4lEgrm5uVuOG+i6zvz8PDMzM4yNjXHq1ClGRkZwOBx0dHRQVVXF+Pg48/PzxONx4/xEIsHs7Cy6rjM5Ocno6Ch1dXUkk0kWFhbIZrMUCgWsVivl5eVomobVaqW3t5dkMrnqz0uIOyktCbBarWiaRiKRIJ1OL5vJCdeDcSUaGxspKyvjypUr9PX1GUsc7HY7ZrMZm82GruvEYjEcDgeqqqLrOgsLCxQKBbxeL6qqYjab0TSNbDZLPp83ys/lcmQyGSwWy7LenE8SRVGMrlmfz0dnZ6cxRvlJZDKZjG7yu/HJ/G6ukmKxSDab5erVq1y9epW//Mu/NFpfAF1dXXR2dqKqKpqm3bG8qakpjh07xq9+9Su6u7v54he/SCAQ+MAxAafTyc6dO9F1ncOHD/PpT3/6pmNsNhttbW1EIhFyudyK6iLE/aIoCh6PB5/Px+TkJBUVFcveyReLRfL5/IomidTX17N9+3aCwSC9vb18//vf51vf+hb19fVYrVbC4TDZbJbR0VGampqw2+3GTNHS0IXVasVut+NyuYhGoySTSXw+H4AxNl9qNX0SmUwmI9ztdjuhUOgT3fKDe9MKX1H4vfbaaywsLBjTdz8pTpw4seJ3kLdSeoeo67oxKcVisRgPXlVVVFVdcXmnTp1ienqaffv28fDDDxMIBO4YVC6Xi507dzI4OMjp06fZt2/fsnem8L/vplVVNbp8hHiQdXV1EY/Hefvtt7l69SotLS1YrVZmZmZIJBLs2LGDRCJhDBnoum5M4PL5fCQSCfL5PIqi4PP52LdvH3a7nZ6eHl599VX27t3LunXreOaZZ+jr6+M//uM/2L59O06nk8XFRY4ePUo4HObJJ5/E4/EYvTqHDh1iYmKCdevWMT8/z/DwsDF5bCUTcOD6GNvCwgKRSIQLFy4QjUYZGxujp6eHiooKPB7PTS3d1VDqCjaZTEbX81q2ovBLJBIsLS2xsLDwcdfnnkqlUnd1fqFQIJPJYDKZsNlsmM3muwqWRCLB4uIiLpcLl8u1ouC0WCw0NjaysLDAxYsXGR0d/cR9H4R4v+bmZorFIrOzs0bIaJrG3NwchUKBbDaLx+MhHA4TjUYZHR01xrFramqw2WyUl5cTDAZxu91UVVVRKBTI5XL09fUxNTVFa2sru3btIpvNcvr0acbHx7FarcZs7cbGRrZt24bT6aSuro4tW7bw+9//npmZGRRFYWFhwQjGYDC47I2qxWLB6/VSUVFx00xPXddZWlri2rVrTE1NEQ6H0XWdoaEhbDab8UfcXysKv0996lPG+NcnSSqVYmBg4COfX+orh+uLau/2/ru6uli/fj2/+c1vUFXV6HL5oEAtdVk0NzezsLBgTIAR4pPM6/XS1dVFQ0MD4+PjXLt2jVQqxfr166mrq6O8vByHw4HNZmNhYYF8Pk8ikQCu/yz6/X4efvhhysrK8Pl8qKpKe3s7lZWVHD16FK/XSyKRoKKigueee46HH36Yq1evks1mcTgcvPDCCwSDQZxOJyaTifLycrxeL/X19YyNjTE3N2dss1ZfX3/T0ITX66W5uRmXy3XT+Fmp2zaTyWC1Wjlw4ICxvCmXy912Qo1YXSsKv/u9TuWjutuxL1VV8Xq92O128vk8MzMzhMNhY71dLpdD13VUVV3RP+jGxkb27dtHoVBgZGSEH/7whzzzzDOEw+E7ntvU1EQmk+EnP/kJIyMj+P1++SESn1ilGco+nw+z2WzsjFKalWixWKisrMThcNz0xtPlcuFwOAiFQthsNhwOh9Hd7/F42LJlC2az2Rim0DQNs9mMw+FA13U0TcPr9S5746koCjabjcrKStxuN6lUCovFctsuSofDQUVFBT6f76buUE3TqKiowOl0sm7dumWvBwKBFXefio+XTHj5AKUfiJqaGqqrq7lw4QLpdJqKigoAYrEYuq7T2tpqLGi9du2a8QMH4Ha7SafTFItF/H4/bW1t6LrO0aNHOXPmDNXV1WzcuPGOQRYKhWhsbERRFGKxGIAx9pfP54nFYkxOTjI5OUksFjM21g0Gg1it1g81NinEaij1avh8PmOCyY08Ho/xRnOlLBbLLWcyOp3OO64nVBRlRceVrmOxWG7q8oTrb5pvd0/iwSHhdwcmk4kdO3agqiovv/wyBw8epKamBpPJZCxz+Ou//msKhQKxWIy3336b8+fPG9Oi29vbcblcxsw1l8tlLM588803+clPfkIikWDjxo0fWI9SK3TXrl0MDw8zPDxs7CyfTqfp7e3lwoULnDt3jrGxMU6fPo3f76e7u9t4By2EEOI6Cb8VCAQCbN26FbvdTiKRMBbCKoqC1+ulsrKShx56CJPJhN/vR9M0ozvF5/Ph9/t5/vnnaW1tNdYLdXR04HA46O/vp6qqCpvNxrPPPsv69euN8zdv3ozdbicYDKIoCi6Xi127dqEoChMTE8Z0brj+LrkUyjU1NXg8HsrLy7HZbDKzSwgh3kfCbwXsdjs1NTVUVVURjUaJRqMUCgVjrZKiKGzYsIFgMGgsPC8pzUZ79NFH8Xg8qKqKyWSioqICv99POBzGZrPhdDrp7u5edkxLSwsVFRV4vV5MJhNWq5WmpiZcLhdLS0tUVFRgsVgoFAqEQiFjl5cSq9WKy+X6xC7OFUKIj4v8VvwQSi290jjEjVszBYNB/H7/TeeUjikF2I0zO0thVjru/ccEg0FjT8LSa6WAq6ioMAb5VVWlrKzslhNnZN2fEELcTMLvQ7rdXoSlEPqg827lxi7J9x9zu2vdqhtTujaFEGLl5DemEEKINUfCTwghxJoj4SeEEGLNkfATQgix5kj4CSGEWHMk/IQQQqw5En5CCCHWHAk/IYQQa46EnxBCiDVHwk8IIcSaI+EnhBBizZHwE0IIsebIxtZCiHuuUCiQy+WMT2tXFIVisUihUEDXdRRFuemjtorFIrquUygUjM+0vPE1YNlnZZa+pus6mqYt29z9xvNUVTU2nS99Fmc+n0dRFBRFIZPJUCwWb3kfpXNLHzN2432pqrrsU1OKxSK5XI58Pg/872b3N9ZZPDgk/IQQ95yu6ywuLqJpGk6n0/jcyWw2SyKRwGaz4XK5jONLgZRKpcjlcni9XsxmM8VikXQ6TSaTATBeL52TTCZJp9P4fL5lIZPP58lms2QyGWw2Gw6Hwzgnm80Si8Ww2Wxomsbc3By5XO6W92G323E6nTgcDlRVJZ/Ps7CwgKqqOJ1ObDabEdL5fJ5YLEY0GgWuB7XNZsPn88lnaj6A5DsihLgnUqkU/f399PT0MDg4iMvlolAoYDKZqK6uprGxEYfDweHDh+nq6mLv3r3Gufl8nkgkwqlTp5icnOSFF17A4XAwOjrKL37xC2pqatixYwcul4vJyUl6e3vp6elB13WsViuxWIzm5mY2bdpEU1MTi4uLXL16lYGBATo6OnjooYcAiMfjjIyM8Oabb9Le3k5HRwdvvfUWCwsLpNNphoaGcLvdlJWVoWkadXV1rFu3jurqat59913efPNNUqkUbW1t7Nixg40bN+J0Oo36Hzx4kJMnT9Lc3AxAOp1GURR27drFrl27pAX4AJHwE0LctWw2y+zsLEeOHGFkZMRoceXzeXK5HHNzc3i9XhKJBKdPn77pg591XScejzMwMEBfXx/d3d1cu3aN06dPMzw8TCAQQFVVUqkUvb29HD58mHg8jsfjQVEUlpaWuHDhAvF4HJ/PRzQaZXx8nPPnzxMIBIzrZDIZZmdnOXHiBC6Xi46ODuNzM5PJJCdPnqS2ttZoYZbCqlAokEqlmJ2d5dq1a6iqSk1NDa2trTidzmX17+npoaamBqvVSjQa5eLFi3i9Xrq6urDb7fLZmw8ICT8hxF2Lx+MMDg7y29/+lkceeYSvfvWrxi/6bDbL9PQ06XSaqampO5al6zrz8/McPnyYQ4cO8ZWvfIXt27dTVlbG1NQUp06d4uLFi/zt3/4t69evR1VVkskk3//+9/n5z39OZ2cnNpvtjtfRNI2qqio+//nPAzA0NERfXx9btmzhc5/7HOFwGIvFYoTVc889x86dO/npT39qjOu9n8fjoaWlheeff57a2lqGh4f5h3/4BxYWFohEIlRWVmKxWD7EkxUfFwk/IcRdm5ycZHh4mKamJhobG3G73cYkEbPZTEVFBfPz83cMv1LX4w9+8AMqKyt58cUX2bx5M6FQiEwmw+XLlwHo7OwkGAxit9uNa9TV1VFXV8fIyAg+n29F9TaZTGiaBmBMmlEUBU3T0DRt2VidoihYrVbMZjO6rt+2zNJkHl3XSSQSxGIxAJxO531r9ZUmGuVyOVKpFIlE4r7U414ofc9K37ePSsJPCHHXFhYWmJmZoaqqirKysptCw+l0Eo/H71hOOp1mcnKS6elpXnzxRfbs2WN0IUYiEcbHx1EUhYaGhmVdiGazmVAoRHl5ObOzs8Z1V1upW/X8+fO4XC6GhobI5/M4HI771uVZKBRIp9PG87948SJzc3OrXo97wWQyoSgKNTU1VFdX31VZEn5CiLuWyWRIpVIEg8G76tYr/ZJ2OBw4nU6CwaARpKVxNbjeiiotXyixWCzY7XZSqRSZTAa73f7Rb+gjWlhY4OzZs2SzWUwmE9lsFpfLRSgUwmq13pcJL6WZtzMzM0xMTPA///M/uN3uVa/HvVBq9T355JMSfkKI+8/pdOLxeFhaWlpRC+92fD4fLS0ttLe3Mz8/z7/+67/y4osvUllZidlsJhAIMDExQSQSuWncLR6Ps7i4aExYAZatu4PrQZDP57FYLB/L8gOv10tHRwdf+tKXCAaDLCwscOzYMWZnZ+np6WHDhg3GsovVoqoqPp+P8vJynE4nL7zwAhUVFatah3tJUZS7Dj6Q8BNC3AOhUIiqqiqOHDnCxMQE0WgUp9NptH6WlpaMsa8PYrPZqK6uZv/+/QwODtLb28vx48fZsmULoVCIhoYGJicnGRoaYm5uDo/Hg9lsJpFIMDU1RSQSYceOHVRVVRnXjMfj5HI5zGYzS0tLzM7O4vF4lq0zvFfsdjtVVVXs3LmTuro6JiYmuHDhAouLi0xMTBhLIFaToig4HA48Hg+hUIitW7dSV1e36vV40MicWyHEXautraWtrY3R0VEuXbrEyMgI2WyWXC7H/Pw8J06cYGRkZEVl2e12tmzZwv79+2lqauLHP/4xhw4dQtM0Nm3ahNlsNtYSLiwskM1mGR4epq+vj+npadatW8eGDRsIBoPMzMwwPT1NPB6nUCgwPj7O5cuXqaioIBQKfazP5MaF75lMRtb4PWCk5SeEuGuaplFdXc3XvvY1xsfH+dWvfmVM7rBYLFRVVeHz+Uin0ywsLPDaa68xOjpqfN3v99PZ2YnD4cDtdqNpGs3NzcaOLDMzM7z22mvs2bOH7u5unE4nFy5c4Pz58yiKQj6fp6Kiwmj1ORwOKisref7554lEIvzTP/0TZrOZVCqF0+lkz549rFu3btk9qKqKx+PB4XDccmLKe++9x5tvvsmlS5fI5/P09fVx7do19u7dS3t7O6qqkk6n6evr41/+5V9wu93kcjl0XaelpcVY5yceDBJ+Qoi7pigKfr+f7u5uzp49y5kzZ4jH4xSLRTRNo7y8nHA4TDqdpquri3g8bowNWq1WYzZkU1MTLpcLu91OIBBA0zRisRjT09Pk83lUVWXDhg243W7eeecdZmZmyGazOJ1OOjo62Lp1q7HM4sb69Pb2kslk8Pv9NDQ00NbWtmzxO4DD4TC6BG02200BmM1myefzVFVVUSwWsVqtxiL+0ozWxsZG2traKBQKJBIJLBYL7e3ttLe3U11dLQvcHyCm4u12dP0/4O///u/53ve+x1/91V/x1FNPsXHjxvtdJSH+TyttXl0oFIzNokvT02/cd/P9SptAlzaeLq0RLJVXKuvGDapLrxeLReMaN14HMOpS2hi7tJtLqfz3113X9ZvqW1LaRPtW9S5t3H3jJty3OuZ+uHbtGt/5znfo7+8nFArxN3/zNzLmh7T8hBD3UOkX/fuXIdzowyyFKJV3q9dXEialQFzptT5oBuid7utO54sHi7TBhRBCrDkSfkIIIdYcCT8hhBBrjoSfEEKINUfCTwghxJoj4SeEEGLNkfATQgix5kj4CSGEWHMk/IQQQqw5En5CCCHWHAk/IYQQa46EnxBCiDVHwk8IIcSaI+EnhBBizZHwE0IIseZI+AkhhFhzJPyEEEKsORJ+Qggh1hzz/a6AEGJt0nWdaDTKwsIC0WgUXdex2+14vV5CoRCxWIxYLEYwGMRut6NpmnFuNptlcnISq9WKz+fDYrGQz+eJxWLMzMzg9/spKytDURTi8ThLS0vMz8+Tz+exWCwEg0G8Xi92ux2AmZkZlpaWqKqqwm63oyjX2wXz8/MsLS3h9/vJZDJEo1FisRj5fH7ZvZhMJhRFoaqqilAoxNzcHIuLiyQSCUwmE36/n2AwiNPpRFXV1XvI4rYk/IQQ90U6nWZgYIATJ05w/vx5MpkM1dXVbNy4ke7ubq5cucLly5fZvXs3dXV1eL1e49xoNMrvf/97Kioq2Lx5M6FQiGg0Sl9fH2+88Qbbtm3jD//wD9E0jampKc6cOcPx48eJx+P4/X727t1LZ2cndXV1AJw/f56zZ8/y/PPPU1NTg9VqBeDKlStcuHCBrVu3EolEuHjxIhcvXiSZTC67F5PJhMVi4YUXXuCRRx7h1KlTnDlzhqtXr6IoCtu3b2fv3r00NTUZgSvuLwk/IcSqGx0d5cKFCxw7dgy/38+BAwdQVZWlpSVSqRSzs7MMDw8zODhIe3s7uVxu2fnZbJahoSGKxSLNzc3k83mOHDnC6dOn2bRpE01NTWSzWXp6ejh9+jRjY2Ns374dh8NBNBrlnXfeYXp6mocffpj6+nqmpqa4cuUK8XgcXdeN68zNzTE4OEhjYyMVFRWUl5ezefNmrl27xsjICCMjI7S0tLBp0yYURaG5uZlCoUA6naapqYmOjg5yuRx9fX28/PLL/Pmf/zl1dXXLWrHi/pDwE0KsuoGBAY4cOUKhUKCuro7t27djsVi4du0akUgEi8VCMplkfn6edDq9LJAA8vk8CwsLuFwurl27xvT0NH19faiqSltbG9XV1SQSCQ4fPszs7CyhUIiuri58Ph8zMzP09/czNDSEqqqEQiHi8TiRSIRsNkuxWDSuk0gkmJ+fJ5VK4fV6qaioQNd1BgYGKBQKzM7O0tDQwMMPP2y0/jKZDOXl5bhcLsrKysjlcvT393P+/HkikQgVFRUSfg8ACT8hxKq7ePEiJ0+e5O/+7u/YuHEjbrcbk8lEKBSiWCxiMpk4derUHcuJxWL09vby6quvsnfvXr761a9SX1+PzWZjenqa119/nYcffpiXXnqJQCCA2WzG6/XyhS98gZ/+9Ke8/vrr7Nu3b0V1VlUVm80GgMPhwGazoWkaNpsNl8tlHKdpGnv27Fl2bmVlJS6Xi2QySTqdxul0foinJT4OEn5CiFVTLBbJ5/Nks1l0Xcfj8eBwODCZTMD1sbPS31fixIkTWCwWdu/ezd69e6mqqkLTNHRdJ5vNkslksFgs+Hw+zGaz0TqrqqpCURRmZmZumrxyL5TuIZvNMjU1xdzcHIqiEAwGlwXlaii1kicmJpidneU///M/CQaDq1qHe8VkMmE2m9m8eTObNm26q7Ik/IQQq6pYLKLrOoVCAavVitn80X8NpdNpMpkMJpMJm82GzWZDURSj/Hw+j6qqxgQWAEVRcDgcKIpCOp2mUCh8qMBdqVwuRyQS4d133yWdTtPZ2UkoFMJisdzza91JoVAwnkc6nSaVSq16He4Fk8mEqqo3jQF/FBJ+QohVVZrqr+v6svG1j6KtrQ23282hQ4cIBAJ0dnbicrlQFAVVVY1f+u9XGkPUNG1Zq7NQKCyrU7FYpFAooCjKhw7IeDzOwMAAP/rRj9i5cycvvfQSoVDoYwnaD6KqKl6vl/Lycvx+P8899xy1tbWrWod7yWQy3ZMZsxJ+QohVU1oPV1r3Njo6aqzJg/8NG13Xb5rkcitVVVW0t7fj9/uZmZnhe9/7Hp/97GeprKzEarVSVVVFNptlYGCA2tparFYrqVSK3t5e8vk869atw2q14nQ6cbvdLC4uEo/Hja7JRCLB0tISbrd7xeN0uq6TSqV4++23effdd3nsscd46KGHCIfDd9XK/ahKrSWz2Yymabjdbtxu96rX4166F2slJfyEEKvKZDLR2NhIR0cHFy5cIJ1O09jYiKqqJJNJcrkctbW1ZLNZcrkcExMTOBwOlpaWAHC5XMaSBLfbTVNTExUVFRw9epS+vj6OHj3K1q1bcTgcPPTQQ6TTad5++202btyI0+lkaWmJEydOYDKZ2LFjB06nk/Lycurq6rhy5QrFYpH6+npSqRQzMzM4HA78fv+KWxvJZJITJ07w7rvvMjAwQFdXF2azmenp6Vsu2F8NpbFUVVXRNO2+dL0+aCT8hBCrbuvWrZjNZv7xH/+RY8eO0dDQgNPpZHR0lHQ6zde//nWSySSJRILjx48zMDBgtMbWrVuHx+Mxxn2cTicbNmxA0zRyuRw//vGPSSQSvPjiizz//PO88sor/PCHP2TTpk3YbDZisRiXL1/m6aef5umnn8br9dLS0sLS0hIvv/wyZ86cobGxkfHxcQBaWloIhULGTM87iUQi/L//9/+Ynp4mHA4zMDDAxMQEXq+XPXv2yDq/B4SEnxBi1blcLtrb2/nmN79JNBoll8tRLBbp6urC6/WyYcMGYwJLadJKqcvQ6/USDAZ57LHHqKqqwu/3o2ka69atQ9M0KioqqKurI5VKEQ6HefbZZ+nq6iKfz1MsFlEUhU996lM0NDTg8/mMtX7bt2/H5XKRSCQoFot0dHTg8/morKzE7/cvq7/P56OlpQWbzUZTU9Oyr7ndbh599FHm5uawWCy43W5UVcXtdhsTcsT9J+EnhFh1FouFcDhMMBhkaWmJxcVFstksXq8Xv9+PxWLBbDbjdrtJJBLLxv/8fj9erxen04nL5cLtdqMoCoFAAIfDgdPpxGw2o6oqTqeTtrY2GhsbiUQixt6e4XAYq9VqTD5xOBzU1NQQDAZZWFggHo9jt9vx+/14PJ6b6u92u6mtrTXqciOn08muXbtIJBLLJttYrVa8Xq+0+h4QEn5CiPuiNAYVCASMltWNMyFDodBt16OZTCZjMfyNbDYb69evv6ksp9OJw+FYdv77KYqC0+nE6XQaMz5vNzOz1CoNBoM3HWO32+no6LhtvcWDQcJPCHHf3S4UPigsPuw5HyZ4VnrsvbiWuD+k81kIIcSaI+EnhBBizZHwE0IIseZI+AkhhFhzJPyEEEKsORJ+Qggh1hwJPyGEEGuOhJ8QQog1R8JPCCHEmiPhJ4QQYs2R8BNCCLHmSPgJIYRYcyT8hBBCrDkSfkIIIdYcCT8hhBBrjoSfEEKINUfCTwghxJojn+QuhLin8vk86XSahYUFVFXF4XDgdrspFouk02kWFxdxuVz4fD7jnGKxSDabJRaLkclkKCsrQ9M0dF0nGo2SSqUACIfDaJpGoVAwjk+n0/h8Pux2O2bz9V9p2WyWVCpFMpnE6XTi8XiW1W1+fh6n04nVauXatWtks9lb3ovL5cJe3LciAAAgAElEQVTr9eLxeNB1nUQiQTQaxW634/F4sFqtKIpi1D8SiTA/Pw+AxWLB5XIRCoWwWCzy6e4PGAk/IcQ9kc1mmZqaYmJigkgkgq7rmEwmrFYrgUAAv9+PyWTi/PnzNDU1LQs/XdeJx+P09/czNzfHvn37sNlszM7Ocvr0aRwOB/X19QSDQebm5picnGRycpJ0Og2AyWSirKyMqqoqysrKiMViTE5OMj4+TmNjoxF+mUyGmZkZTp06RUNDA/X19QwNDRGLxchms0xPT2O32/F6vZjNZioqKsjlciQSCaanp5mYmCCfzwPgdDppbW0lHA5jtVqJx+NcvHiRS5cuUVZWhtVqxWw2Y7fbWbduHY2NjRKADxAJPyHEPRGPxzly5AgHDx6kv7+f9vZ2crkc8XicQCDAjh07qK6u5pe//CWPP/44XV1dxrn5fJ75+XmOHTvGwMAAXV1dZDIZLly4wD//8z+ze/du1q1bB0B/fz+vvfYax44dw+fzEQqFuHTpEi0tLTz66KM8/vjjzM/Pc/HiRU6cOEF3dzetra0AJJNJhoeH+dnPfsYjjzxCeXk5Y2NjzM/Ps7CwwGuvvUZ1dTWbNm3C6XRSLBZRVZWFhQXee+89enp6qK+vZ2JigmQyyR//8R+ze/duqqqqmJ+f58iRI7z++ut0d3ejqirT09MMDw/zhS98ga997WsoiiIB+ICQ8BNC3LWlpSX6+/s5cuQIjY2NfPGLX8Tn8xndgblcDpvNRiwWu2NZuVyOqakp+vr6OHHiBM888wzbtm3D5/MxOztLT08PY2NjfPWrX6W2thar1cri4iLvvfceBw8epLm5eUUBYzabCYVC/MEf/AHZbJbx8XF6e3tpb2/nwIEDBAIBPB4PdruddDpNfX09Tz/9NA6Hg9HRUfr7+41WXlVVFXC9m7SpqYkDBw4QCoUYHx/nX//1X0kmk0QiEQKBAJqm3fXzFndPwk8IcdcikQjDw8OkUinq6+vp7u42Wjm6rpNMJllYWLhj+OVyOWZnZ3nnnXdIJBJ4PB52795tBNrIyAizs7PY7Xa2b99OfX09cL3bdHR0lN7eXkZHR41uzg+iKAoOh4PGxkbg+hidx+MhHA7T3NxsjC8Wi0UKhQJVVVUoyvU5gna7nWg0ysjICIlEwihT0zQ8Hg+1tbVUVFRQKBSMZ6Dr+kd9vHelWCyi6zq5XI5MJsPi4iJut/u+1OVeMJlM2Gw2bDbbXZUj4SeEuGvT09OMjY3R2tpKfX09qqoaX1NVFbfbTTKZvGM58Xicvr4+BgYG+NznPsef/umfUlVVhdVqJRKJ0NfXh6ZpbNq0CZfLZbTwzGYztbW1NDc3Mz4+TjAYvGfdiyaTadn9AESjUSKRCB6PB6fTabxeKBTI5XIkk0lmZmYYHR1lYWEBRVHwer03lbMaSq3vVCpFLBZjdHSUXC636vW4VxRFobKykoqKirsqR8JPCHHXstks6XQal8t1V916hUKBfD6PqqqoqorFYjFaW8Vi0Zj1abPZjNdLNE3DarWSTqfJ5XJYLJaPfkO3kcvlmJ+f5+zZs1y6dIlPf/rTbNiwwfh6NBqlr6+PV199FavVaswq9Xq9N9V3tZRm2SaTSXK5HJcvX2Z2dva+1OVumUwmzGazMRnpbkj4CSHuWukXUiaTuatWhcViwe/3U11dTS6X4+zZs+zYsYNAIIDJZMJisVAoFEin0xQKhWXnlrr1nE4nFosFs9mMruvLjisUCui6jtls/tCtsFwuRyQS4d1332VmZoaamhra29spLy83rlFqJVqtVqNrMRaLoes6U1NTRit2tamqiqZp2Gw2fD4fgUBg1etwL5Se7912eYKEnxDiHnC73QQCAQYGBlhaWqJYLC7rdiwWiysup7W1lQMHDnD69Gm++93vUlZWhsPhwGw2Ew6HmZ2dZXJyclnIFotFlpaWiEQiNDc3EwwGSafTN4VxKSCtVuuHbqEmEgkGBgb4t3/7N3bu3MmXv/xlKisrsVgsxpILr9dLe3s7X/rSl6irq2NqaoqXX36ZSCTC2bNn8fv9qx5+qqri8XgIBoOEQiGeeOIJ6urqVrUODyIJPyHEXautrWVpaYnDhw/T09NDXV0dDQ0NAMzPzzM0NLTisLHZbGzYsAGv14vT6eSVV16hu7ub/fv309XVxeDgICdPnuTcuXMUi0U8Hg9DQ0P09vayuLjI+vXrqampYXx8nEgkwvj4OLOzs7jdbq5evUpPTw/V1dWUl5evqD6FQoFkMslbb73FkSNHePzxx3nooYeMCTG3o+s6qVSK6elp3G43NptNljk8QCT8hBB3zev10tTURHt7OwBnz55lYmICwBhvKi8vR1VVCoUCQ0NDvPXWW8D1LlNN03A6nTidTvx+P2VlZYTDYQB+85vfMDw8TENDA3V1dbS0tDA1NcXw8DDpdBqHw8H09DSKotDV1UVdXR3hcJhcLkdLSwuZTIajR4/icDgYHBwkl8uxceNGampqlt2DqqpG4N44PleagXrlyhUuXbpERUUF09PTxuL76upq/H4/qqqiKAqJRIKzZ88yPDzM3NwchUKBcDhMTU3NxzIOKT4aCT8hxF1TVZXKykq+8Y1v8M477/D73/+e0dFRVFWlpqaGxx9/nFAoRCwWo1Ao8NZbbxnhZ7fbaWho4KWXXiIUCpHJZNA0jbKyMlwuF7lcjtHRUd59913Ky8t59NFHaWpq4mc/+xlHjx4lkUhQXV3N448/zv79+3G5XEZ9vvzlL3Pw4EF+/OMfk0gkqK+vZ9u2bezbt49QKLTsHiwWC7W1tYRCITRNM1pp2WyWkZER4vE4uVyO3/3ud8D1FmpdXR3PPvssjzzyCFarFVVViUQivPzyyxQKBaxWK+3t7WzZsoXOzk5p+T1AJPyEEPdEad3ctm3bqK2tJZVKYTKZsNvtlJWVYbfbyefzfPOb3zRmbcL14HQ6ndTW1lJTU0M6ncbr9QLXtxDbvn07HR0dxthVKVA/85nPEI/HyefzxjUcDofRatM0jerqag4cOMC2bdvQdR2Hw4Hf78fj8dwURD6fj+effx6Xy4Xb7TYmxNjtdjo6OgiHwzzxxBPL6u1wOKisrMRsNhMIBHjyySfZsmWLUQdFUYy1gxJ8DxYJPyHEPWEymdA0jcrKSiorK297XDAYXHGZmqYZu6fcyOPx3HEhe2l9odvtpqmp6Y7XstlsxjZoNypNtCl1w96O3W6nubmZ5ubmO15L3H/ykUZCCCHWHAk/IYQQa46EnxBCiDVHwk8IIcSaI+EnhBBizZHwE0IIseZI+AkhhFhzJPyEEEKsORJ+Qggh1hwJPyGEEGuOhJ8QQog1R8JPCCHEmiPhJ4QQYs2R8BNCCLHmSPgJIYRYcyT8hBBCrDkSfkIIIdYcCT8hhBBrjvl+V0AIsXYVi0UKhYLxd5PJZPx5/2vvVzqv9PVisWi8bjKZUBTFKKP0p+T91ykUChSLRRRFWXat0nk3lv/+st5fpqIoRnml40qv3+o+xP0h4SeEuC+SySRXrlzhypUrjIyMkMvlCAQCNDU1sW3bNoaHhxkaGmLz5s1UVlbidruNcxcXFzl48CDBYJC2tjb8fj/RaJTh4WFOnjzJhg0b2LVrF5qmMTIyQm9vL/39/aRSKVwuF+3t7bS0tFBdXQ3A8ePHuXz5Mo8//jjl5eVYLBYAzp07R39/Px0dHcRiMaNOyWQSXdcpFAqoqoqmaZjNZvbv38+WLVvo6emht7eX8fFxABoaGujo6KCtrQ2n07n6D1vcRMJPCLHq5ubmGB4e5sSJE8RiMQBUVSWRSDA5Ocni4iKDg4OcO3eO6upqAoHAsvBLJpOcPXuWhoYGKisrKRaL9Pb2cu7cOTKZDMVikWw2y/j4OOfPn+fy5csoioKiKCSTSU6dOkU6nUZRFEKhEENDQxw9epStW7cSDAaN8BsfH+fMmTMEAgE0TUPTNKxWK0tLS0QiEWZnZ6msrKShoQGz2YzZbKZQKJBKpdB13fj/wcFB5ubmCAQCVFdXY7Va78tzF/9Lwk8IseoGBgY4ePAgV65c4ZFHHuGZZ57BZrPR39/P8PAwyWSSSCRCJBIxguRG+Xye+fl5/H4/8Xic+fl53nzzTc6fP8+3v/1tOjs7yWQyHD58mAsXLmAymfj6179OeXk5o6OjfOc732F+fp5isciePXuIRqPMzMwYwVmSSCSIRCIkk0k2b97M/v37Aejv7+f06dOcOHGC7u5uPv3pTxvnZDIZGhsbaW9vx+v1ks1m+d73vscbb7zBxo0b8Xg8En4PAJnwIoRYdVeuXOHcuXM89dRT7NmzB7fbjc1mo7GxkZ07d9LQ0LCspXc78/PznDt3jn//93/HarXyF3/xF6xfvx6Hw0EsFuOtt97C6XTy4osvUlFRgcPhoKqqis985jPY7XYOHjxotDzvFU3TKC8vx+/3Y7VacTqd+P1+AoEAFotFxv0eENLyE0KsmtIEl0gkwszMDK2trdTV1RndjF6vF6/XC2C89kEGBweZnp4mn8/T1NTErl278Hg8mEwmUqkUo6OjtLa20tnZic1mQ1EUvF4vW7Zs4fTp01y+fJl0On1P71FRFJxOJ9PT01y7do1YLMbs7CyhUAiv17vqrb5CoUAikWBpaYl8Ps/x48cZHR1d1TrcS4qiUFtbS21t7V2VI+EnhFg1pbG4fD6PyWTCbrevKORup6enh1wux7e//W22b9+Oz+fDZDKRy+XIZrMUCgUsFgsOh8M4x2w2EwqFUBSFhYUFoy73Wm9vL7/+9a/p7+/HarXS3t5OOBxe9QkvpS7iiYkJstksL7/88id20o3JZMJisfD8889L+AkhPjlMJhOapmEymdB1/ZZLBj6MTZs24XA4OHjwIFarlXA4jMvlQlVVzGYzuq4b17lx+UQ2m8VkMmG1Wo0lCDcuUSgptVRvt9zig7S2tmKz2ZiamuLYsWMMDg5y6dIlzGYz5eXld3XfH0Yp7GtqanC5XHzlK1+hsrJy1a5/rymKck/qL+EnhFg1JpMJVVVxOp04nU4ikQiVlZV4PB7gehddKYBK6/g+SGNjIw0NDZw6dYqrV69y6NAhdu3ahd/vx2Kx4PP5yOfzTE9PEwwG0TSNbDbL2NgYuq5TWVlpzOC02Wwkk0nS6TQulwuAdDpNMpnEbrd/6O7KcDiMx+OhsbGRmZkZJicnmZmZIRqNrmr4KYqC3W7H7XYTCoXYtGkTdXV1q3b9B5WE3wrc6ofxxkWruq4b06hvPP7G40qvl9YFlRbA3qrM95fz/l8CN75ThevvTu+mDqXFve9fFFw6Vwboxb1kMpkIh8NUVlbS19eH1+tlw4YNAORyOXK5HMVi0fhvqfWWz+eN80v/RoPBIFu2bKG+vp7XXnuN73//+5SXl2O327HZbDQ3N5PNZrlw4QLbtm3D7XYTjUY5efIkuVyO9vZ2bDYbLpcLn8/H7OwsCwsL+Hw+CoUCsViMWCyG1+tdcVdhqc4AVqsVq9VKXV0d4+Pj6LpOLpf7eB6s+FAk/Fagv7+fs2fP0tfXRyaTwWazUVZWxqZNm6ioqOC3v/0t7e3t7Nu3D7g+k623t5d8Pk9HRwcdHR0AHD16lN7eXp544gkWFxe5dOkSfX19ZLNZLBYLXq+Xbdu2sWXLFmPad+m6pWPsdjsNDQ20tLSwfv16LBYL09PT/PKXv6Stre1D1+HKlSuMj4/z0EMPsXfvXgBGRkYYGRnBbDZTV1d3133rQrzfli1bKBaLvPfee/T391NRUYHVamVxcRGAp556ikwmQzwe55133qGvr89oHdbV1aFpmhEiNpuN9vZ2crkcTqeTV155hUceeYRdu3bx3HPPcfz4cf77v/+bs2fPYrVaSSaTXL16lY6ODvbu3WuEbzQa5dChQ1y8eJGqqirm5uaYm5tj69athMPhFbf85ubm+PnPf04ymcRqtZLJZLh69SqpVIonn3zyE93l+H+JhN8KzM7OcuXKFaanp3G5XNjtdgYGBjCbzczMzHDo0CEsFgs7d+5E0zTGxsY4cuQI+Xwet9tNe3s7uq7T39/Pe++9x549e5aV6Xa7sdvtTExM4HA4sNlstLW13XRMaRbb0NAQs7Oz5PN5amtrSSQSHDt2DE3TPnQdzpw5w7lz51BVlZaWFgKBAPPz8wwMDGCxWHC73RJ+4p6rrq7GZDIxNzdHPB6nUCiQzWaNLjqr1UptbS0dHR1omoau6ySTSeB6V6TD4aCtrY3Gxka8Xi/hcJiNGzeiKApHjx6lUChgNpvp7OwkmUySzWZRVRVd19E0jaamJjo7O41xuerqarZs2cLc3Bz5fJ5MJoPJZKKlpYXm5mb8fj+qqhr1dzqdVFZWsmHDBsrKypbdW2lcs1AokE6nyefzVFRU4PV6V7yEQ3z8JPxWoLTIdufOnWzbto1AIMAPfvADrl69ysDAAGNjY8zPz5NIJHC73czOznL58mWKxSLbt2+nUCiQyWSIRCJMT08vG4gvlVleXs4vfvELhoeHWVhYoLq6+qbrtrS0MD8/z3/913/x5ptvEo/Heeyxx/D5fCwsLHykOszNzTE2NsalS5e4dOkS27ZtI51OE41GsVgsZDKZ+/34xf9Bdrud5uZmvvGNbxCNRllcXCSVSuHz+QgGg6iqSllZGevXrze2Eivxer243W7Ky8txOp14PB7MZjM1NTWUlZXR2tpqBJXP5+Opp57i8ccfZ2ZmBl3XsVqtxvjfjWV2dXXR1tZGJBIhGo3i9XrxeDy37O4MBoPY7XaamppuCrNAIMDnP/95IpEIi4uLWK1WAoEAfr9fhhAeIBJ+H4Hdbqe9vZ0LFy4wPDxs7A949epV1q1bB1xf6Fr6AVxaWmJiYgKA+vr6W07tNpvN+P1+RkdHicVitxzsN5vN+Hw+9uzZg8Vi4ejRozQ0NLBr1y4aGxs/Uh1cLhfd3d1kMhneeOMN1q9ff8+ekxAr4XA4jNZd6d+syWTC5XJhsVjI5/PLZmCW9tEszeoszR6F6z8jZWVlmEwmzGazMY5tNpsJBoPG+PaNrbiS0jmlrdRK25ndiqZpuFwubDYbZrP5pnI0TSMYDOLxeFAURRa3P4BWFH5TU1NG//cnyfDwMLquk06n7+kgs6IoxoJZVVVpaGgArm/Z5HQ6KRaLlJeXGz8U4+PjDA4OYjKZaGhoMMYOSmMBxWKR4eFhLl68iK7rVFVV3fKHrjQ1u6mpiUQiwU9/+lNmZmawWq00NDSQzWY/dB1sNhsNDQ0MDQ0xPT3N5OTkPd/xQogPUtoT8/0+KHxuR1GUZWv6bnzdbrev6HybzYbNZrvjcYqi3LZ+Ky1H3D8rCr/e3l5Onz7N6dOnP+763FMXLlwgn88TjUZJpVJ3VVZpBlc+nyeVSjE9PY2u61RUVFBbW2tMHin94DU3NxsB09fXZ4yhNTU1Ga2ueDzOmTNnOH78OGazmeHhYZ566il27979gTPLXC4Xfr+fWCxmDKo3NjYaO+R/mDqUWpypVApFUejv7yebzd7VsxJCiAfdisJv48aN1NbW0t3d/XHX55767ne/y69//Wu8Xu8t3w1+GPF4nEOHDtHT04PL5WJ4eJhNmzaxa9curFYrhw4dMoKnoqKC1tZWrFYrkUiEK1euMDAwQFdXF42NjUYguVwudu3aRV1dHTabjVdffRWv12t0+9xOLpczZp1qmobFYrkp/FZah5K2tjbq6+s5evQoFotlVdchCSHEaltR+IVCIUKh0Mddl3vu17/+NaqqYrVab9mt8mEpioLZbMbtdhv7Bba3t1MoFDh8+DCjo6M4HA5joF7TNGZnZxkYGDDCsqamxmh1WSwWamtr2bhxI8FgkLm5ObLZLL29vcY44q1EIhHGxsbw+Xx4PB40TaOqqgpFUT50HUoqKytRVZU33njDmHUnASiE+L9KJryskPP/b+8+f+u87/v/P69x9p4855A83KQ4NKlpybIdz7hxkyZNnSJAk6INiqD32v43ToAERQNkInHs+GsoTmzZkhXZ2osUxSWSIkWew3V49vrd8O9cES07pi2alH3eD8CAeM41PteRfF78bIeDnp4e9u3bx86dOzGbzUZnOnywF9ni4iKjo6M88sgjtLW1oWkap0+fZnJykrt37xp7h9VqdbV16hwOB01NTfz93/89v/71r3n11VcZHBxcNxG+Njm2Wq0yOjrK5cuXiUajhMNho+nys5Shxm634/F4iMVixvzD2gLDQgjxZSPht0G1oLJYLOtGl9XUNqnM5/PGYrq1Y2pr0Xk8no9tzjSZTITDYfx+P4qiMDExYewjdu7cOaanpzl9+jTJZJL5+XkAnn76aXbt2rVpZXC73Tz11FPMzc1x+vTpddcWQogvEwm/DQgGg/T09BCNRvF6vR85TLq9vZ2vfOUrrKysEI/HjWOam5t55JFHjFGa916zu7ubaDSKy+UyRql1dXWRTqcxm834fD66urqYn5/HbDZTLpcxm800NTUZyzrd2zT5WcrQ1dVFY2OjMWy7t7eXAwcOUCwW6ejowOv1fl4fqxBCbBsJvw3o6Ogwll/6uIEzO3fupLW1lWKxuK65cHBwkK6uLhRFMZZn+lvX3Lt3L93d3cYanH19fayurgIfzC8MhULGvKjNKoPVasVmsxlzob7+9a9z/PhxY1UZIYT4spHw2wC73W708X1UrQ8+CKbakkb3BlPtXOAjX//wNWuTZmuTeiuVCj6fD/igX9FsNm96GTRNW3dNt9ttjCTdjIFCQgjxsJFvtg34uEm4Gznm4ybqftzxHw6izSjnpy2D2Wx+oA1GhRDiYad+8iFCCCHEl4uEnxBCiLoj4SeEEKLuSPgJIYSoOxJ+Qggh6o6EnxBCiLoj4SeEEKLuSPgJIYSoOzLJXQixqYrFIrlcjnQ6jaIoWCwWXC6X8V46ncZqta7bsLlarRobRZdKJdxuN7quUy6XyWQyFItFY3k+TdOoVCrkcjmy2SzFYhG73W6scFS7T6FQoFAorFtCsLY7SiqVMlYxSiaTFIvFj3wWm82G3W7HbreTz+fJZDIUCgV0XTfuqWmaUf7V1VVSqRSAsZ2ax+PBZDKt2wVGbD8JPyHEpqhWq5TLZVZWVlhYWGB2dhZN0/D5fLS2tqJpGqlUiomJCSKRyLrwq4XZnTt3SKVS9PX1oWka+Xye6elpMpkMFosFq9WK2Wwml8uxsLDA3bt3SafTRKNRQqGQsfB8LpdjcXGRZDJJOBw2wq9YLLK8vMzo6CihUAifz8fly5eNwCqVSqiqagRVQ0MDzc3NRCIRFhcXmZ6eZmlpCafTSTgcpqmpCZvNRrVaJZfLMTY2xq1bt9A0DavVitfrpbOzE7/fj9Vq3fq/FPGxJPyEEJtidXWVU6dOcePGDRYWFohGo1SrVaP21d3dTSAQ4MSJExw4cIDW1lbj3HK5zNLSEufPn2dqaorm5may2SxDQ0O8/PLL9Pb28uSTT6JpGteuXePs2bPcvn0bh8OB0+nkjTfeIBQK0dfXx+HDh1lZWWF4eJhr164xODhIU1MTANlslqmpKf7whz+wf/9+jhw5QjabJZ1Os7q6yl/+8hdCoRBdXV3YbDY8Hg+5XI5kMsmVK1e4cuUKDoeDxcVFMpkMu3btYnBwkLa2NpaWljh37hxnzpxh3759mM1mbt68yW9/+1u+8pWv8Nxzz6Fp2sduKSa2loSfEOKBZTIZZmZmOHPmDIVCgUgkQjwep1KpsLa2ZjQrplIpJicn6ezsXHd+pVIhn88zPz/P+Pg4c3NzJJNJzp07h6Zp+P1+nE4nq6urXL9+nYsXL9LU1ERjYyNut5tyuczc3BzLy8u0tLRQLBZZWlpiZmZm3b1KpZJR++zo6MBqtdLU1ITf72dubo5EIoHP5zP2vgyFQrjdbkwmEx6Ph8bGRjweD7quMzk5yfnz5wkEArS0tJDP51laWmJlZYVIJILb7WZmZoa33nqLtrY21tbWcLlcn3ntXrG5JPyEEA9scXGRmzdvMjQ0xFe/+lW+973vGU2HlUqFbDZrHPNJcrkco6OjXLx4kaGhIf7rv/6L/v5+dF3n5s2bjIyMsLa2xosvvkhbW5txjx/96Ee89tprHDlyBKfT+Yn30TQNr9fLwYMHARgfH+fVV1+lo6ODI0eOEAqF1i0I39DQwCOPPEK1WiWRSHD16lV+8pOfGJtLwwd9hLFYjIMHD9Lc3Mzk5CSnT582wrjWR7gdqtWq0TRdLpe3pQybRVXVB65BS/gJIR7Y/Pw8MzMzxubI9w7uUBTF2Krrk6yurjI8PEw6nWbv3r38x3/8B11dXdjtdlKpFLdu3cJkMjEwMIDNZlt3j1gsRnt7OzMzM/j9/k1/xmKxaIT4yMgIY2Njxl6Z9x6zsrLC7du3SafTTExMsLi4iMlkwufzbcsWYbX+1HQ6jaqqDA0NsbKysuXl2CyqqtLQ0LBuI+/PQsJPCPHA1tbWWFlZIRAI3LcBsqIoaJq2odGOtRpSKpVi79699Pb2Gs2MpVKJRCJhfPndWytTFAWXy4Xf72d1dRWLxbJuX8zNUCgUWFxc5Nq1a1y5coXZ2Vm6urqwWCzGMfl8nmQyyY0bN3A6nczNzVGpVLBYLJjN5m3p76v1u2azWQCmpqbI5XJbXo7NUPu3ZLVaJfyEENuv1pS20ZD7OKqqous6qqoa0yJKpZIRZKVSiWq1iq7r9wVJbWPoUqlEuVzGZDIZTX33qlarnymEauF3/fp1rl27RjKZRNd1+vv7jWPy+TyJRILr169js9nIZDI4nU6sVivFYnFdUG6VWlNnqVQin8+zsrLyhd2kWlEUdF3flPD+Yn4CQoiHisfjwe/3MzMzw/Ly8me+jtPppLu7myNHjrC8vMxLL73Ev/zLv9DR0YHJZCISiTAyMsLU1BSFQmHduUtLS8zNzbFr1y5CoRDFYpF8Pr9uDl+hUCCfz2O1Wj91EDEudroAACAASURBVDmdTjo6OvB4PDzxxBOMjY3x85//nImJCY4cOQKA2+2mu7ubb3zjG0QiEZLJJCdOnGBpaYkLFy4wODhozHncKpqm4XQ68fl8eL1ejh07Zox+/SKqzfd8UBJ+QogHFg6HaWlp4cqVK4yNjTE+Pk4gEKBarZLJZFhaWjJqbbUa3L3hVXvPZDIRDAZ55JFHuHnzJu+//z5vvfUWuVyOzs5OOjo6mJycZHR0lLGxMVRVxWq1kkwmmZycJJVK0dzcTGNjIwsLC6RSKRYWFkgkElitVmZmZhgfHzfm+G1EpVIhk8lQKpUAiEaj2O1245nuDVeTyYTb7TbKYDabKZfLpFIp1tbWqFQqm/vBb4CiKJhMJqxWK06nk8bGRpqbm7e8HA8bCT8hxAOLxWLk83l+85vfMDQ0hNfrZffu3cYUhKGhIWNaQi1MFhcXgQ++nCuVCpVKxQizeDxOLBbDarXyf//3f+TzeeLxOL29vZw/f56ZmRnef/99SqUSgUCAy5cvMzo6iqqqdHZ2GjWbTCbD1NQUIyMjhEIhrl27xtWrV9m9ezfRaHTdMyiKYkxwv7dZtFgskkgkjPByu91MTk5y48YNwuEwgUDAOL5arRqDXiwWC7Ozs0xPT9Pa2orP55NpDg8RCT8hxANTFIWGhgZ++MMfMjY2xuzsLBMTE6iqajQXNjQ0kMvlsNlsXLp0ibt37wJgNpsJBoPs37+faDRKuVzGbDYTCAQ4cOCA0e939uxZjh07xhNPPEEkEmFycpIzZ85QLpexWCwcOXKEjo4OwuEwmqYRi8X4wQ9+wOTkJCdPnqRSqaDrujG5/cNNfxaLha6uLqLRKCaTaV0AVqtVxsbGGBoaolgsomkabrebb3/72/T09BgjWmv9fL/+9a+x2WyoqkpPTw/79u2jt7dXVnl5iEj4CSEemKIoOBwO9uzZg9vtxuFwkEgkjOXNurq6cLvdpNNpjh49um6ovdlsxu/34/P56OnpoaGhAYfDgd1up6mpiaNHj7KwsACAruvE43E8Hg8Oh4O5uTlyuRx+v5+enh7a29uNwTBOp5MDBw7g9XoZHR0ll8sRDAaJx+O0trYaS57VOBwODh8+TCgUMoIL/tpnFgqFWF1dJZfL4XA4iEQiDAwM4PV6UVUVl8tFX1+f0bSpaRp2u53m5mY6Ojo+l+kX4rOT8BNCbIpa31JPTw89PT0fe1xtYvpGWK1Went76e3tXfd6IBDg8ccf/5vn6rqO3+/n0KFDHDp06BPv5Xa7eeqppz7yOqFQiFAoZAxs+Sher5fjx49z/PjxT7yX2H6yzLgQQoi6I+EnhBCi7kj4CSGEqDsSfkIIIeqOhJ8QQoi6I+EnhBCi7kj4CSGEqDsSfkIIIeqOhJ8QQoi6I+EnhBCi7kj4CSGEqDsSfkIIIeqOhJ8QQoi6I+EnhBCi7kj4CSGEqDsSfkIIIeqOhJ8QQoi6I+EnhBCi7kj4CSGEqDv6dhdACFGf8vk8U1NTzM/Ps7y8TLVaxWaz4fP5aG9vJ5lMkkwmicfjeDwerFarcW4mk+HGjRu4XC6i0Sh2u510Ok0ikWB6eppYLEZbWxuqqjI/P8/MzAyLi4sUi0XMZjPhcJhoNEowGARgdHSU2dlZ+vr6cLvd6PoHX423b9/m7t27NDY2ks/nWVpaIplMks/nqVQqlMtlNE3DZDKhaRodHR10dHSsK+fIyAhra2tYrVZ6e3ux2+1b+0GLjyThJ4TYcqVSiWQyyenTp7lw4QLj4+NUKhX8fj87duzgm9/8JhcvXuT8+fN87WtfY8eOHevCb3l5mZdffpmWlhYef/xxIpEIMzMznDt3jtOnT/P444/T2NgIwI0bN3jrrbcYGRkhm83idDrZuXMnx44dw+PxoOs6f/nLX3jrrbf4z//8Tzo7O43wu3z5MqdPn+bJJ59kbW2NoaEhrly5wuLiIplMxriex+PBbDbz7W9/2wi/arXK0tISr7zyCtPT00bgSvg9HCT8hBBbbmhoiLNnz3Lr1i36+/t58cUX0TSNxcVFstkslUqF1dVVUqkUhUKBSqWy7vxyuUwqlSKTyZBOpxkeHubUqVMMDQ3x9NNPs2fPHnK5nPGaqqr867/+K263m8XFRd566y3OnDlDqVRiz549ZLNZVlZWKBaLVKtV4z75fJ7V1VXy+TwdHR0MDAzw7LPPMjk5yfDwMENDQ+zdu5dHHnkEVVWJRqPGuSsrK9y+fZuJiQkSiQQ2m41yubxln7H42yT8hBBb7ubNm/zlL3+hr6+PPXv2sGfPHjRNI5FIsLS0hMvlQlEUI/juDST4oFZVLBZZWlri1q1bjI+Ps7a2RldXF3v27CEWi7GwsMDJkyexWCwMDg6yb98+PB4PiUSC2dlZxsfHOXXqFJ2dnZRKpY8M2drr5XIZj8dDc3MzAA6Hg1wux/z8PK2trQwODt73jJOTk1y5coVAIEChULgvWMX2kvATQmyparXKxMQEw8PD/PCHP6Svr89oZgyFQoRCIYANNQ/Ozs6SzWa5ePEizz//PN/97ndxu91omkY6neb999/nmWee4ZlnnsFqtaKqKj6fj2effZaf/vSnnDlzhn/8x3/c9OerVCoMDw9z4cIFnnjiCUZGRpibm9vU+3watf7JUqlk1Ja/qBRFwWQyYTKZHug6En5CiC1TrVaNmpSu61gsFiP4PourV6+iKArPPPMM+/fvx+l0oqqqUWMDMJlMWCwWFEUBQNM0fD4fiqKwvLy86U2R+XyeiYkJstkskUgEv9+/rr9yq5VKJWMg0PT0ND/60Y/wer3bVp4HoSgKuq5z7Ngxjh49+kDXkvATQmwpRVGM2pGqqqjqZ59x5XQ6MZvNrK6usrKyQj6fR9M04/1qtYqiKKiqaoSfoijGMdVq1TimVq57myY//P5GpNNpzp49a/QnejyedWXaDrquYzKZ0HWdQCBAIBDY1vJ8VrW/O4fD8cDXkvATQmyZWpNVrbZXKBQolUrGz5+2T2zPnj1EIhFeeeUV7HY78XiclpYWbDYbZrMZRVGMWmDt59pgGQCXy4WmaWiahq7rlEqldTXBWlOhrusbCrBKpcLKygonT55k79697Nmzh0QiYfT55fP5dc+7FXRdx+/3E4vFCAaDfPe73yUej2/Z/R9WEn5CiC2lKAqRSISmpiauXr2K3W43pgfUAqJarZLP5z/xWl6vl4GBAbxeL8PDw/zoRz/i+9//Ph0dHVitVrq7u8nlcpw7d45du3bhdDpJp9OcOXOGQqHAzp07sdlsuFwuvF4v8/PzNDY24vF4qFQqpFIplpaW8Hg8OJ3OTyzP2toas7OzxvzAkZER0uk04+Pj5HI5Xn/9dZ544gn6+/sf+HMUD0bCTwix5bq7u1lcXGRsbIxMJsOtW7fQdZ1sNgtAX18fpVKJXC7HjRs3yGQy+Hw+AAKBgFGDqk1Yb25uplKpcO7cOd58802y2SzNzc08+uijzMzM8Pbbb7OwsIDNZmNtbY0rV67gdrsZHBzE6XQSj8fp6enh+vXrrK6u0tjYSDqd5u7du8TjcQKBwIb67Wr9iU8++ST5fB6bzcbS0hKJRAL4oKa5nf1/4q8k/IQQW66/vx+73c5PfvITrl+/TrVaxWKxkM1m8Xg8NDQ0oGka5XKZs2fPcuXKFWw2GwADAwPEYjE0TcNisWC1WmlubkbXdaxWK7/4xS9QFIX29naeffZZXn31VV577TWuXr1qTGUwmUz83d/9HY8//jhWq5Wenh5KpRIvvfQSly5dwul0Mj8/T2dnJ48++iihUGjd6EJVVTGZTFit1nWvOxwO+vr66OvrA/66is2JEycYGxvjySefpKmpaQs/afFxJPyEEFvObDYTj8f5t3/7N9LpNMVi0VgqzOFw0NzcjM/no6WlhXK5bAxagQ+mQ7hcLnw+Hz6fj3A4jK7rRCIRjh07RiQSIRAIGKM8n3rqKXbt2mXMs1NVFbPZTENDgzEK1Ol00t/fz3//93+TyWQol8uoqorb7SYQCNzX5BkKhdi3bx8tLS00NDR87HPquk44HObxxx9ncHDQqL2K7SfhJ4TYcpqm4XQ66enpoVwuUy6XKRaLmEwmzGYzAFarlVAoRKlUWjcQxmw2YzKZCAQC6LqO2WxGVVVsNhvRaNQYxl+bC9bY2EgsFlsXfrqurxu9aTKZjDDN5/MUi0UsFguapn3kaFSHw4HFYrmvRvhhqqricDhobW2lXC4btVex/ST8hBDbqjbashZ6NRaLBYvF8qmv9VEDUxRFue/6H2cj962V+ZOOqw3Nl9B7+MiWRkIIIeqOhJ8QQoi6I+EnhBCi7kj4CSGEqDsSfkIIIeqOhJ8QQoi6I+EnhBCi7kj4CSGEqDsSfkIIIeqOhJ8QQoi6I+EnhBCi7kj4CSGEqDsSfkIIIeqOhJ8QQoi6I+EnhBCi7kj4CSGEqDsSfkIIIeqO7OQuhNg21WqVcrlMpVKhWq2iqiqapqGqqvG6pmkoioKiKOvOK5VKqKqKqqrGe5VKhWKxaOy0rigK1WrVOB7+urv6vde8916q+tc6wb2vV6tVKpWKUdaPous6mqYZ51UqFeOeiqJgMpnWPYfYPhJ+QohtUalUyOVyzM7OMjc3Rz6fJxgMEovF8Hq9zM/Pk0gkiMViuFwuLBaLcW4ul2N0dBSHw0E4HMZms1GpVFhdXeXq1auEw2Ha29sxmUwUCgWWl5eZnJykUChgt9tpaWnB5XJhNpsBmJ6eZmFhgc7OTlwuF5qmAXD37l0SiQQNDQ1ks1kSiQTJZJJisbjuWWqB2tnZSVNTE5OTk9y9e5fV1VUATCYTXq+XgYEBHA7HFn3C4m+R8BNCbLlMJsPdu3e5cOECa2trRg1tamqKW7duMTg4yK1btxgbG+PIkSOYTKZ14ZfJZHj//feJRCJYrVY0TePWrVvcuHGDTCaDw+GgUqmwtLTEjRs3GBkZMWp7ANeuXaOnp4e+vj5sNhujo6NcunQJv9+PzWYzwu/27dtcvXqVffv2oaoqqVSKxcVFlpeXWV1dZWVlBb/fTzgcRtd1stks2WyWy5cvk0gkqFar2Gw2o4zlcnlbPm9xP+nzE0JsuUQiwfnz5/nZz37GmTNnSKfTAIyNjfHmm28yMTHB9evXOXv2LHNzc+RyuXXnp9Npzp07x9DQEIuLiyQSCU6fPs3LL79MLpfDYrFQLpcZGxvjxIkT/Pa3vyWRSJDP55mdneUXv/gFb7zxBjMzMxSLRUZGRnj77bdJJpNG8yjA5OQkZ8+eNY5zOp14vV4URSGZTHLjxg1WVlbw+Xx4vV6sVqsRfhMTExSLRWw2G263G4fDYYSq2H5S8xNCbLkLFy7w5ptv8vTTT9Pf309rayuqqnL06FEKhQLBYJDx8fFPvE65XGZ2dpZf/epXlEoljh07xmOPPUZTUxPLy8v85je/wWaz8f3vf5/+/n7sdjurq6uEw2Gmp6d59dVX+e53v7uhMvt8PsLhMG1tbfj9fjRNI51Os2PHDg4fPoyiKNjtdpaXlwGwWCx4vV4ikQixWIxwOIzVan2gz01sHgk/IcSWqlQqzMzMMD4+zj/90z8xMDCA1+s13q8NLKn1x/0to6OjRlNkX18fhw8fJh6PY7PZmJ2d5fr16xw6dIhDhw4RDAYxmUwEAgFUVeU3v/kNFy9e5B/+4R82VG6LxYLb7QZgaWkJt9tt1OpCoZBxXCqVwuv1ks1mWVtbY2JigkQiQTgcZu/evbhcrk/5iT2YarVKoVAgl8uxurpq1Ei/qFRVxev14vP5Hug6En5CiC1TC7a1tTXW1tYIh8Prgg/Wj8b8JJcvX6ZarfLcc88xODjI7t27gQ9qhIVCgaWlJcxmM9Fo1DjHYrHQ3t6OpmlMTU1RKBQ29RnNZjPxeJy5uTlWVlYYHR1lYWEBl8tFLBbDbrdvafNnpVIhm82SSqUoFApcvXqVu3fvbtn9N1Pt30Zvb6+EnxDii6U2/P/eKQqfldPpRFEUZmZmSCaTVKtVY/BMpVL52OvXpjPUyrKZnE4nx48fJ5/PGyF84sQJLl26xMTEBC6Xi4aGhk2/r/h0JPyEEFtKVVVMJhO6rpPJZMjn8+tGcn4abW1tBINBFhYWGBkZIRwOs2PHDiwWC5qmYTabKZfLpNNpbDabMX9waWmJSqWC2+1G0zRMJhMmk4lisbhuwEupVKJQKGA2mzGZTBsqk8lkui/crl69yvXr11lZWSGTyXymZ/2sFEXBbDZjs9lwOp20trauqwl/0aiq+sC1PpDwE0JsIUVR0HUdl8uF0+lkbm6OcDhMKBRCURRKpRKVSgWTyWTUyiqVCuVy2ZgmUKvZAfT09LB3717efPNNo//P5/PR1NSE1WrF7/dTKBSYmpqiqakJi8VCOp3m1q1blMtlWlpa1gXD8vIyqVQKu91OpVIxwtnhcGw4oGt9bLWJ7bXnqD3T51Hb/FtUVTWeLxgMMjAwQDwe39IyPIwk/IQQW27Xrl0sLy/z6quvcvv2bQ4dOoTVamVqaoqFhQX6+vpYXl6mVCqxsrJCIpEwzrVareTzeSNE/H4/3/72t3n77be5cOECr732GkePHqWpqYnnn3+e4eFhfvrTn/LVr37VmDz/8ssv4/P5ePbZZ3G73TQ1NdHa2so777xDOp1m165d3L17l4mJCeMeTqdzQ8+WTqc5f/48ZrMZj8fD8vIyFy5cYGpqimg0SiAQ2PwPVHxqEn5CiC3X2tpKqVSiWq2SzWa5fv26MXWgtgxYIBDA7/czNTVlTFwHiMVimM1mQqEQgUAAl8tFJBIhk8lQKpVIJpPcuXOHWCzGgQMH0HWdW7duMT4+jsViIZvNEggE6OvrY8+ePcaKLwcPHuTSpUvMz89z8eJF0uk0oVCIeDxOMBhE1//6dWk2m3G73UQikftGb9bKsLa2hqqq5PN5nE4nhw8fpqmpSVZ4eUhI+Akhtlw4HMbj8RCNRrl27Ro3b94km80Si8Xo7u4mHo+Tz+dZXl5mamqKO3fuGOf29/fT2dlJd3c3zc3NOBwOdF1n7969xGIxfve735HP58nn83R0dOD3+2ltbeXSpUskEgncbjcvvPACLS0tRi0sHo/j9/txOBwMDQ0xMjKC2+1m//79RkDeO3jG4XAQjUYplUqEw+F1z6YoilGLTSaTuFwu9u3bx+7du/H7/RvuOxSfLwk/IcS2MJlMRs1p586dVCoVLBYLdrsdm81GZ2cnoVCIXC63rp/M6XRit9vp6urCarWumzoQCAR44YUXsFgsuFwudF3H5/PR19dHPB6nXC4bfY42m21deWw2GwMDA7S1tVEoFNA0zZjL9+FRox6PB4vFQmNjI3a7fd17DoeDAwcO0N/fT7FYRNd1nE6nUR7xcJC/CSHEtqgNxLDZbASDwfved7lcn3pCuMVioampad1rZrMZs9l833zCD9M0Da/X+4nHAcbo0I8qn67rH/k84uEia3sKIYSoOxJ+Qggh6o6EnxBCiLoj4SeEEKLuSPgJIYSoOxJ+Qggh6o6EnxBCiLoj4SeEEKLuSPgJIYSoOxJ+Qggh6o6EnxBCiLoj4SeEEKLuSPgJIYSoOxJ+Qggh6o6EnxBCiLoj4SeEEKLuSPgJIYSoOxJ+Qggh6o6+3QUQQtSncrlMLpejWCxSLpcBUFUVTdOw2+0Ui0WKxSJWqxVd11FVdd25mUwGTdOwWCyoqkq5XKZQKFAoFLBYLFitVgAKhQL5fJ5SqQSAoijouo7FYsFsNgOQzWbJ5/M4HA50XUdRFAByuZxxvWq1SqlUolgsUqlUqFarVKtVFEVBVVUURcFqtWKz2QDI5/PkcjnK5TLVahVN0+67vtg+En5CiC1XqVRYWlrirbfeYmhoiLm5ORRFwW6309TUxPPPP8/IyAhDQ0McP36ctrY2vF6vcf7i4iK/+tWviEajHDhwgFAoxMzMDFevXuXixYscOHCAr3zlKyiKwqVLl3j33Xe5c+cO+Xwem81Ge3s7Bw8eZNeuXSiKwp///GfOnTvHd77zHZqbm43gPHv2LBcvXuTQoUNkMhkmJiYYGRlhZWWFXC5HLpfDbrfjcrkwmUw8/fTTPPnkk1QqFS5cuMDp06eZnZ2lUCgQDAb51re+RWtrK3a7fbs+evH/k/ATQmy56elprl27xvDwMIqi0N3djaIolMtlrFYrhUKBO3fucPPmTXbt2kWhUFh3fi6XY2RkhEqlQldXF+l0mkuXLnHt2jW8Xi9er5dcLsfw8DBXrlwhmUwSi8XQdZ1iscjt27exWq2YzWba2tqYnZ3l2rVrrK6uUqlUjPssLCxw8+ZNOjs7cbvdRKNRKpUKMzMzTE9Ps7i4iM/no6urC13X8fv9RtlGR0fJZrM0NzejaRoejwe73b6uBiu2j4SfEGLLXb9+nT/+8Y84nU6eeOIJjh8/jqqqzM/Pk0wmsdlsFItFCoWC0Wx4r2q1SrFYJJvNkkwmmZmZ4dKlS6ytrfGd73yH9vZ2kskkJ06cIJ1O09bWxje+8Q0CgQBzc3P87//+L8PDw2SzWYLBIKVSiUKhYDRn1tReL5fLtLS00NzcDMDIyAjnz5/nvffe47HHHuOFF14wzpmfn+fkyZOk02mam5t59NFH8fv9RlOrpmlb8yGLv0l+BRFCbLmJiQmGh4c5fvw4O3fuNGpDXq+XeDxOQ0PDhpoGp6enOXXqFK+//joNDQ384Ac/oKmpCV3XyWQyvP/++9jtdp5++mncbjeKouDxeHjuueew2WycOXOGdDq9qc+WyWS4ePEio6OjTE1N8dJLL/HjH/+YP/3pT6RSqU29l/jspOYnhNgytUEjqVSKdDpNNBrF5/MZ75vNZmMQykZqSGNjY0xNTRGJROju7mbHjh2YzWYqlQq5XI6lpSXMZjONjY3G9axWK+3t7ei6zvT09H1Nqg+qWCwyPT2N1+vFbrcTDAZZWlriypUrRCIROjo68Pv9m3rPv6VcLpNKpUgmk2SzWf70pz8RDoe37P6bSVEUNE2jo6ODjo6OB7qWhJ8QYsvUmisrlQqapt03ivPTunv3LpVKhePHj9PU1GQEXLlcplgsGiM7df2vX3WqqmK321EUhUwmY4zY3Cy1sPH7/bS1tfHYY49x8uRJ3njjDS5fvozNZtvS8KtUKqyurpJIJCiXy5w4cQKn07ll999MqqpiMpl4/vnnJfyEEF8ctekAqqpSKpUol8tUKpXPHIAHDhzA7/fz9ttvoygKXq+XaDRq9K/VQrBcLhvTESqVCplMBgCn04mqqsYUi3K5bEy7gA+Co1wuo+v6hvvqVFXFZrMRj8fp6+vDZrMRjUbp7OxkYWGBpaWlz/Ssn5Wu6wSDQZqbm3G73fz7v/87sVhsS8uwmVRV3ZRfHiT8hBBbRlEUFEUhEAgQCoUYHR3F4/EYX8a1eXqKolAsFj/xerFYjP7+fhRFYX5+ntdee41nnnmGWCyG1WqlqamJQqHA8PAw7e3tWK1WMpkMV65coVgs0tnZicViweFw4HK5WFxcZG1tDZfLRaVSIZ1Os7a2hsPhMObvfRKTyUQ0GsXj8awbPLPZNcyNUhQFi8WC3W7H6/XS0dFBPB7f8nI8bCT8hBBbrqWlhZ6eHq5evWpMOVAUhVQqRTabxeVykc/nqVQqrK2tsby8jMlkAj7oFywWi1SrVex2O+3t7XR1dfHyyy/z+uuvE4lEjJrf3r17SafTvPvuu1gsFjweD8lkktOnT1OpVNi/fz8Oh4NAIEA0GmV6ehq/34/ZbKZQKLC8vEy5XMbn8+FwODb0bFar1eh7HB8fx2azMTc3RzKZNGpfYvtJ+AkhttzOnTuxWCz88Y9/5Pe//z2vvPIKmqZRqVTw+Xx84xvfAGB5eZnf//73nDx50gifHTt2EAgEyOVywAc1rUgkwlNPPYXL5eK3v/0ti4uLPPfcczz//POcOXOGc+fOceXKFQCjNnbo0CEeffRRXC4Xvb29FItFXn/9dS5cuIDNZiOTyeB2u3n22WcJh8Pr+g3/ltpo0nfeeYdf/vKXeDwe0uk0VquVr33ta7S2tm72xyk+Awk/IcSWCwQC7Nixg9XVVebn58lms0aTqNfrxefzGYFUKpWMwTEAwWCQYDBoDHKp1co6OzvRdZ1KpWI0e7a2tpLL5dB13VhqTNM03G43AwMDRKNRNE0jFAoxMDDAysoKq6urwAdNsE1NTfT09OB2u9f1S3o8Hjo6OtB1/b4ws1gsdHZ2kk6nMZvNRp+iz+ejra3tCzvY5MtGwk8IseU0TSMYDPL8888DH9TGKpWKsU4mQCQSYe/evfdNcq+N3uzt7UXTNEwmE6qq4vV62bVrFz09PcY9TCYT+/btY9++feuu8eG+N6vVSktLCy0tLcZE99oAmY8SDAbx+XwMDAzcVyOsreZy/Phxjh8/bjyXrOf5cJHwE0Jsu3sXh66pTYP48OoutSCpLRB97zmqqmKxWNYd+1F//ltq9/xbx9fur2naJ15Xgu/hJOG3AUNDQ9y4ccNY889kMuHz+WhtbTWWO1pZWWFubo7x8XGjCcdkMtHR0UE0GmVkZIREIsHa2hqlUsn4n0vXdWw2G4FAgJ07d264U12IL5sPB0RtQvOntRlrZ24k0DZy3EaPEVtPwm8D3nvvPX72s5/hcDgwmUxYLBaCwSBPPfUU4XAYk8nE9PQ0Z86c4f333yeVShm/gdaWUTp79ixDQ0PMzs6yvLxMsVhE0zT8fj/BYJDu7m7a2tok/IQQYgtI+G1ANptF13W+973vEY/HWVpa4le/+hVDQ0NEo1Ha2tp47733ePPNN3nxxReNlSaWlpaIRCL4/X6+/vWv88wzz5BIJDh9+jSJRAKn08njjz9OMBjEbrevW+ZJCCHE50fCbwNKpRKKotDa2kp3dzd3795F13VWV1dZWFggEomwsLDAnTt38Hq9tLe343A4WF1dNZo1nU4niqLg9/sZ1vSALAAAC/pJREFUGxsDwO12093dTTAY3OYnFEKI+rKh8FtbW6NcLhs7IX9R1Nbt2wzlcpmlpSUSiQTLy8vG8OXa8keapqGqKrOzswQCAQKBgLFT9EbnBwkhhNgaG/pWfuWVV5ifn2d+fv7zLs+mevfddzct/BKJBD/+8Y+x2Wzk83nm5ub46le/ysDAAH6/nz179nD37l1+/vOf87Of/YxAIMCePXs4evQoe/bskU5vIYR4iGwo/KLRqLEu3BfJ9evXGR8f35RrWSwW2trasNvtJBIJZmZmMJlMeL1ezGYz3d3dVKtVY9fo2vqBdrsdj8dDY2PjuiHYQgghts+Gwu+xxx77vMvxuZiYmOD8+fObci2v18u3vvUtGhoaGBkZYW5uzlj41mQy0djYSGNjI08++SSLi4tcvXqVl156ievXrxMOh41mUCGEENtPdnL/lJxOJy0tLRw+fJh8Ps+bb77JysoKpVLJmL/ncrmIx+PGski1PlMhhBAPBxmJ8Snpuo7P5+PgwYO89dZbvPvuuwwMDDA6OsqtW7fweDxommZMem9paaG5udnYnVoIIcT2k/DbAIfDgd/vN5ZTstvt7Ny5k/PnzzM7O8vq6ioXLlzg//2//0dDQwMmk4lCoUAymWTfvn0MDAwYe4HVNrp0OBzY7fZNWY1CCCHEpyPhtwGPPvoo3d3dxGIxYy0/k8nEU089xc6dO2lrayMWi3HkyBFjDzJVVbFarYRCIRwOhxFydrud/fv3k8vlMJlMsqKLEEJsAwm/DYjFYoRCIWw2mzFlQVVVGhsbCYfDxly+WCxGNps1ws9ms923NqHJZKKhocFY6V2aQ4UQYutJ+G2A1WrFarXe97rFYrlvBOcn7dUlgSeEENtPOpyEEELUHQk/IYQQdUfCTwghRN2R8BNCCFF3ZMCLEOKhVSgUuHPnDlar1VhH98NzY8vlMtlslmQyycrKirF1mN/vx2KxrDu+UCiwtrbGwsIC2WwWVVUJBAJ4vV5MJtN996otYTg9PY3X68Xv9zM3N0cqlSKXyxnXNZlMhEIh47w7d+6wurpKPp83Rn67XC6CweB9ZRLbQ8JPCPHQymQyXLx4kVAoxI4dO9B1fV1wlEol0uk0t2/fZmJigrt37xrTkGrzb202G6qqUiwWmZ+fZ2pqivHxcVKpFJqmEY/H6ezsxOVyceHCBcLhMDt27EBVVVZWVrh9+zZXr16lp6cHs9nMxYsXmZ2dJZPJoKoqiqLgcDjo7+9H13WsVisXL17kzp075PN5zGYzLpeLUChEa2srDQ0NeDwe41yxPST8hBAPrXQ6zXvvvUd7eztNTU24XK5178/Pz3P16lVeeeUVgsEg3d3dlEolTp06xR/+8Af++Z//mZ6eHmw2G+Pj47zxxhtcunSJPXv24PV6KRaLnDx5ksXFRVpbWzl9+jQ7duwgFouhKAp/+tOfeOeddxgcHMTtdpPP53nvvfdQVZW2tja8Xq8ReLWaZq3MFouFrq4u7HY7y8vLnD9/nl/+8pc8/vjjvPDCC7jd7vvmAYutI+EnhHholctlFhcXCYVCxsLx9xoeHuadd97B7/fT09NDb28v5XKZQqHA0NAQZ8+eRdd1Wlpa+POf/8zCwgLd3d309fXh8/kolUq4XC6i0Si6rrO8vMzS0hJ37tzh1KlT3L59m1AoRHd3N6FQiGw2y9LSEpFIhNbWViKRCGazGU3T8Hg82Gw2UqkUi4uLNDU10dzcTCAQIJ1OY7fbmZ6eZmpqiosXL7J///77wlxsHQk/IcQXUrVa5caNG5w7d47/+Z//Yffu3fj9fgB8Ph8ej4ff/e53+P1+vF4vf/zjHxkcHOTFF180Qgtg//79VKtVJicn0XWdlZUVhoeHOXHiBL29vTzzzDPs3LkTh8PB7du3gQ/W+21oaCAWi2GxWIwlD+9tknU4HESjUZqamrBYLLS3t1MsFhkZGeHMmTP09vZuWfhVKhXK5TLFYpG1tTXW1ta25L6fF7PZ/MCLhUj4CSG+cKrVKsVikWw2Sz6fJxgM4na7jffD4TDNzc3Mz8+TSCTI5/OkUiksFoux+Py9FEUx+t/OnDnDpUuXOHz4MMeOHaO/v/++FZ7m5ua4cOEC09PTmEwmrFYrLS0tRvh+FIvFQmdnJ5OTk9y5c4dCobCJn8jHK5fLrK2tsbi4SDab5Z133iEcDm/JvT8PmqbR09NDd3f3A11Hwk8I8YVTrVapVquUy2Wq1SoWiwVd/+vXmdlsxm63k8/nyefzlMtlyuUyqqp+7KbStfCrjR5dWVmhWq3idDrvG5iSyWSYn5+nVCqh6zoOh4NQKITH4/nYMmuahtPpRFVVcrncfU24n6favSqVCsViccuC9/Og6/qm7I8q4SeE+MK5d4F5RVEolUrGgvKA0cSnaZoxQlRVVarVKqVSydid5V61gIhEIrhcLqanp5mYmGDnzp243e514aooCpqmrfvvk6YvVCoVCoUC1WrV2B5tK9SaZGu/EEQiERoaGrbk3ptNURRUVd2U5mIJPyHEF07tC91qtWIymVhcXCSVShk1r0QiwfT0NOFw2Jhb53A4KBQKJBIJAoHAfU2fNX19ffT393P27Flu3LhBNpvlm9/85rqmwubmZo4ePUo0GjUGvNjtdsxmM0tLSx953Xw+z61btygUCsRisY+9/2ZTFAWr1YrT6cTn89HT00M8Ht+Se39ePq72/mlI+AkhHnrZbJZEIoHJZDImidvtdlpaWujv7+fdd98llUrR1dVFuVzm8uXLXLt2jV27dhlz+B555BFyuRyvvvoqe/bswePxUC6XuXPnDoFAwBgU4nQ6aWtrw2azcfnyZW7evMmpU6fYu3evUburVqtUKhUqlYrx51pN894yLywsAB8E3+TkJKdPn8bv97Nv3z7sdvuWfHa12pKmaZjNZtxu97r+0Xol4SeEeGgpioLNZiOTyTA5OUk6nUbXdSwWC7FYjI6ODkqlEi+//DKpVIpMJkOxWOTixYvMzc3xve99j+7ubhwOB8899xyvv/46f/7znymVSoRCIQqFAleuXKG3t5eWlhbMZjMWiwWPx0Nvby+qqnLixAneffdd7HY7PT09WK3W+8pTW+ElGAzeV+bFxUWSySSjo6OMjY3R2dnJwYMHZSPrbSbhJ4R4aNntdnbv3s3s7Cw3b95kbGwMVVVxOp1Uq1UaGxs5cuQIwWCQ2dlZFhcXUVWVQ4cO0djYSEdHhzGZvLOzE4vFwu7du41RoKqqcuDAAbq7u/F4PAwODtLY2IjD4UBVVfbv308wGOTUqVMUi0XS6TT9/f0kEol15bHZbMYKMA6Hwyjz6OgoLpcLh8PBwMAATz/9NPF4HI/HIxPct5mEnxDioWW32xkcHCSZTJLJZIzXLRaLsZam3W7HYrEQDodJJpOoqkooFKKhoQG73W40VTocDlpbW/H5fNy5c8dY27PWL2gymThw4ABOpxOn04mmafh8PsxmM6VSyegzO3DgAMvLy+vKYzabiUQiOByOdWXOZrNYrVYcDgcej8dYbk2Cb/tJ+AkhHlo2m42BgYFPPM7n8+Hz+T7xOKvVitVq/djRjh91L6fTycGDB42fo9HoJ95nI2UW20uWFhdCCFF3JPyEEELUHQk/IYQQdUfCTwghRN2R8BNCCFF3JPyEEELUHQk/IYQQdUfCTwghRN2R8BNCCFF3JPyEEELUHQk/IYQQdUfCTwghRN2R8BNCCFF3JPyEEELUHQk/IYQQdUfCTwghRN2R8BNCCFF3vvQ7uZdKJVZWVpibm8Pr9W53cYQQYkvNzc2xurpKsVgEoFqtbnOJHg5f+vBbXl7m97//PWfPnsXj8Wx3cYQQYktls1lGR0dxu93EYrHtLs5D40sdfvF4nAMHDmC1WjGbzfIbjxCi7phMJlpbWwmHw3R0dGC1Wre7SA+FL3X49fX18c1vflNCTwhR97xeL/F4HLvdvt1FeSgo1S9xMqytrZFKpba7GEIIse10XcdsNuN0OtE0bbuLs+2+1OEnhBBCfBSZ6iCEEKLuSPgJIYSoOxJ+Qggh6o6EnxBCiLoj4SeEEKLuSPgJIYSoOxJ+Qggh6o6EnxBCiLrz/wH9lOJkZvbhoQAAAABJRU5ErkJggg==;fontFamily=Courier New;" parent="-JCz-ZJJVY7_VpqyZrt4-7" vertex="1">
          <mxGeometry x="5.562911199999985" y="11.008547008547009" width="117.88433760683762" height="138.98290598290598" as="geometry" />
        </mxCell>
        <mxCell id="-JCz-ZJJVY7_VpqyZrt4-29" value="" style="group" parent="1" vertex="1" connectable="0">
          <mxGeometry x="-1368.49" y="852" width="100.98" height="78" as="geometry" />
        </mxCell>
        <mxCell id="-JCz-ZJJVY7_VpqyZrt4-27" value="" style="rounded=0;whiteSpace=wrap;html=1;" parent="-JCz-ZJJVY7_VpqyZrt4-29" vertex="1">
          <mxGeometry width="100.98" height="78" as="geometry" />
        </mxCell>
        <mxCell id="-JCz-ZJJVY7_VpqyZrt4-28" value="" style="shape=image;verticalLabelPosition=bottom;labelBackgroundColor=default;verticalAlign=top;aspect=fixed;imageAspect=0;image=data:image/png,iVBORw0KGgoAAAANSUhEUgAAAPEAAACuCAYAAADnE+srAAAbwElEQVR4nO3df1DU+Z3n8Sf9A7ppuvn9s6GBbkSQ3wLijMqI4DjjqDNOxuQqqc3t7G42lb26S2VTd1eVqttc3dbd1d7epSpVdzWVbLJ3dbvJbpKtyc3OjKAwM6KACggIIr8EUX4LAgIiAk3fH6a/AQR0FGi+8H78YVn0t+mP0C/79X33t79fL5fL5UIIoVoaTy9ACPFyJMRCqJyEWAiVkxALoXISYiFUTkIshMpJiIVQOQmxEConIRZC5STEQqichFgIlZMQC6FyEmIhVE5CLITKSYiFUDkJsRAqJyEWQuV0nl7AdjI7NcJQ/W+pvzXMjYFVNtL7QVA6uTmJ5GVEYQK0POLReD+dF0tpHg9kLCCFo/kOogKMGFf4FmO3LtHdVEtVdxwxOWlkHUogHHh46xLdTZeo6oYHj9ZY6IprAOejcR52XuRq811qOicW3wEIwpGbQ0peBg4TGLUv9CMSG0BCvI5mJ4bo/vzH/PrjW/yqyURghAVfbx16ZQsnTp2ZaUs+p8eO4RdoYFeEBX/vR0yPtdPw6x/xi9sOOuO/QWxaJIGrhHik5XOu/sOP+euyIg5+V0fgoQQCla//J/66zJdRLzOWIBM+rFC3DKEQP4vTEkBKRiRGnMxNjDN+p5mu0r/nwwvt/LbpIb5a0HqBy6nDOW0h7fQYh00BHLWHEhvgg8UgSd4KJMQbwk5oTD7v/9W75NlDiVG+PsGDgVYq//bn1Py6h7+40sef/tW75Dm0mNbtsf2APA6deYuvfDuf3YDv8k00evAJIjTUnxDm0XGf1s//L1/84ld82ORNwGtn+NffOc6BYPDXw9yDAe5X/i3/r+bX/PQHFVx+99/yjYJU3knzX7dVixcnId4QvngbIolJSiU5JYpdytcfMR3lh39LCV0DPVxtvEBdx1FsQQEkrNtja4EAAiPt7MrKIoMnsV7V7AMYqqWpvoXzLQt45xwnt+gYx1/JYrcZfLXgnI5j0n+K4em/Y6C0lhtnK6gPMZOdlk444L1uaxcvQgZbm8qIrymSrH2Z2OLh8WwTnd2PuDfiqfUs4Hw0xmTjBZpax6j3yuXA+9/kzaM5ZAU8CTCA1jeQgKyvkp//Kl9JdjFTW0HrzQ5aZmBmwVNrF24S4h1tiqmJO1wqq6BjeA5DQgZ7ooxErvLSHWm1k5SahsHYRN9AFzda4NHM5q5YPE3q9KYaY+rBLRrONXKrxxdjdCZp8Saig4CJZ955A0zy+NEgnTeGGZ6OwjslhiiTN/6rPCt8ItOJy/8mf7pwC31cFkmBMqXeCiTEG+Ix87NjjPTepcc4w++f593c66zmnz7t5I5XKkmHT5C/J4D44AWc6xbiBeAhU2ND9Hd1EQDLhmY+6Lx9CQizYPSeZn5ujNEBJw8NvmhDAgnQ6Z4ehLkFJxMenMz38tZrrWI9SIg3RBfDvaP87PsX+JVRj0H5+gxzehPD0e/w1Tfy+ePjGcSE+WFiggfr9thTwGUu/aad1sqf4AssfbFMIsKezx/+19Pssy+/TaiRhHhDWDCY4tmdl0FsiB+Bi26Zdc5zb7ofV28DlV/4kHcqg1if9XxsPRBGRHwKmQcSCGP59NhKQHgcVpM3RmB21e8zC9yjs7KB5sqbdAOLd38j9hzAkXmAjDDwk/G0R0mIN4SVwPCjnP7zb1G45C0meDjUys2//2N+8uF1/ttHA/xZqpVjZj8i1+2xjUA6WUf/gG//8CRZrPUW0xD9q942BwzQXVPGuQ8+ohJ4MDfN3MxD7j14RPrX/oKT/geID5AQe5qEeJMZzAEkFbxDavN5rpdWUH7xBDG+sUSu39Ee68QAJJH91X9D3IFv8CfAfE8FXTWf8oP/U+PpxYlFJMSbTOtjwGzfTUToZYIed9HeOUj/cPDy6dOz6bQQFoDB7IuFF923DcTbEI1tt56g0Uf0jE0w4XQyAxjQAmYCoswERNmfbB4wiO+9IIw+sie9lcj7xJtNowU/M0YfA35OJ2MPJpl6NIuXlw6t3guNy4lrdo55l4unj6NwAfMsLDhxavS4bOGYgyyE8qL/G4dgNDlI3RdIVOAks33d9E4+Zmz+5f6JYnNJiDfb/DyMDPNgapJRvQ5reCjBlgh0+hBCI3SY5yeZ7x5i5PE8k0/fGRhh6sEUw/d1zAeH4ufvRwgvXqkMRj+SUvcTaZhksvUjLjSO07baJ7DEliQh3lQzzEz2c/OzcppbJxj1TSF7bzQOWwA+5hAcBUdJjTcTfu8an1V00NQ5tuTes1Oj9Fb9A9W1rVwbiWFPeiIJsaF4A14vuCKtwR/znhNk7bHxiqmRxk/+hvNfVFHVC1PK6NoJTDDQe4ebjV08mrbgazATYAGtNGuPk33iDTHL/NwDxgb6GDDP8/t3kMYZ723ii3+u5GZPKD6OAl7LiybR5osPLuJf/zr7m/+O3qYKSsuuYPNxkamPU+79cLiT5o9+yeVGJ72+h/jaKymk20Nebqk+Foh/nX37m5nrq+J/lf9vqjR6nL7R+KRAqAmeTKqHqW+4SUXtEEbLHmzRVmJCwUeeQR4nv4IN0cVIz2/4m++X82tf70UHe8wzjw/jmjwKzhTwr945SFpMIMHAk2lwMtln3ifAkUz0r37F9Z//kq998Pt7OzVGHhqyee31A/zn46+QFBdG2JofUXp+EdlnKIpKYc+JKoo/beazH36NChMsaOHJUWBzTHnFYor5Ft/5wRFyMxOxB4OfPIM8Tn4F60jvF4x1/zd50zJEeO9qG5khNJeDB1PJS49eNFl+Mg0OjE5ij68vXpMPCOsaoW185fu+khn71FQ60LGfjBNz/EliIvH7HVhh0QkJ1mYIjMZgCSI8MpjZ2Sh8jG0M8+Q1WBGwmxB7NoX5ydiCfFc/PFNsKi+Xy+Xy9CKEEC9OBltCqJyEWAiVkxALoXISYiFUTkIshMpJiIVQOQmxEConIRZC5STEQqichFgIlZMQC6FyEmIhVE5CLITKSYiFUDkJsRAqJyEWQuUkxEKonIRYCJWTEAuhchJiIVROQiyEykmIhVA5CbEQKicnj1/G5XIxO/vkIkQajQadToeX14te6UiIjSchXmZycpLq6mqcTidhYWHs3r0bX1+51oHYuiTEy8zMzNDS0kJ3dzcajYbU1FR27dpFbGwsYWFh6PXPe2EUITaHhHiZubk5hoaG+Pzzz2ltbcVms1FYWMixY8fIyckhMDAQb29vtFqt1GyxJUiI1zA/P8/o6CilpaU0NDSwa9cu9u/fz/79+6Vmiy1DQrwGs9lMYWEh09PT9PT0cOXKFYaGhrh9+zZpaWkkJCQQGxtLaGio1GzhMRLiNYSHh/O9732PyclJzp8/T2lpKbW1tVy+fJmoqCgKCgp44403lJqt1+ulZotNJyFeg0ajwWg04nA4iIqKoqioiLq6Oqqrq2lqalJqdmJiolKzExMTpWaLTSUhXoOXlxdarZaQkBCCgoKw2+1ERUVhs9lwOBy0trbS09PD5cuXGRwcXFKzbTab1GyxKSTEz0mj0WAwGEhNTSU5OZmTJ09y9epVzp07x/nz56mpqVFq9pEjR3jzzTfJyckhICAAnU4nNVtsGAnxC3DX7MzMTCIjI5WaXVNT81TNzsvLk5otNpSE+AV4eXmh0+mUmu1wOLBardhsNux2O21tbfT09FBVVcXAwADd3d2kpaXhcDikZot1JyF+Sctr9qlTp5Safe7cOaqrq6mqqsJqtS6p2YGBgeh0OjQajdRs8VIkxOvIXbMzMjKIiIigsLBQqdk3btygrKyM69evKzU7Ly9ParZ4aRLideSu2aGhoQQHB5OQkKDU7Pj4eNra2ujt7aWysnJJzU5ISCAmJoaQkBCp2eJLkxBvEHfNTktLY8+ePbz99ttcuXJFqdlXrlyhsrISq9VKYWHhU9NsqdnieUmIN8Hyafbimt3c3ExpaelTNXvXrl1Ss8VzkRBvgpVqdnR0tFKz29vb6e3tpaKi4qlpttRs8SwS4k22vGa/8847XLlyhZKSEs6dO0dVVRWXLl0iOjqawsJCjh8/Tm5uLv7+/mi1WqnZ4ikSYg9aXLPd0+z6+volNbuxsVGp2fv27ZOaLZ4iIfag5TV7165dxMTEYLPZiIuLU2r2pUuX6O/vX1Kzo6OjpWYLQEK8ZaxWs4uLizl37hyVlZVKzS4qKuL48ePKNNtds8XOJCHeghYfNBIeHs6RI0eor6+ntraWmzdvKjV79+7d7Nu3j9zcXBITEzEajZ5euvAACfEW5K7ZYWFhhISEkJiYiM1mIzY2VjlopK+vj/Lycnp7e7l9+zbp6enY7XZiYmIIDg6Wmr2DSIi3OHfNTk9PJyUlhdOnT3P58mVKSkooKSmhoqKCixcvEhMTQ1FREW+99ZZSszUajdTsHUBCrCKLp9kr1eyysjKamppITExk3759yjRbavb2JiFWkdVqtrtqt7e3KzW7r6+PO3fukJaWht1uJzo6Wmr2NiUhVin3q7K7Zr/77rtcvnyZ4uJiiouLuXjxIhcuXMBms3H06FHeeust5aARLy8vqdnbiIR4G1irZre0tFBaWrqkZufm5krN3kYkxNvASjU7NjaW2NhYamtraW9vp7+/n/7+fvr6+uju7lam2VarVWq2ykmIt5mVanZVVRXFxcWUlJRw4cIFvvjiC6VmnzhxgtzcXCwWixyXrVIS4m1sec0uKCigoaGBa9eu0dLSQllZGTdu3GD37t3k5uaSk5MjNVuFJMTbmLtmh4eHExoayu7du4mLi1NqdkdHB319ffT19dHT0/NUzQ4KCpKarQIS4h1i8aGcqampfOUrX1FqdnFx8ZKa/frrr3PixAlycnKUabbU7K1LQrwDLa7ZYWFhHD58WKnZra2tlJaWKjU7JyeH3NxcEhISpGZvURLiHWh5zU5KSiI+Pn7JNHtgYIDe3l56enq4c+eOUrOjoqKkZm8xEuIdbnnNfu+996iqquLs2bMUFxfz+eef89lnnxEbG6vUbPc0W2r21iAhForlNbugoID6+nrq6upobW2lrKyM5uZmEhMTlWm21GzPkxALxUo1e/E0212ze3p6ltTs+Ph4qdke9JwhduFy/e6vXl5Igdr+Fr8qp6WlcebMGSorKzl79ixnz57ls88+o6ysjLi4OI4dO8bJkyfJzc1Fp9NJxf5SFmVrCS+e98f4zBDPT95jvP4f+edL97g8GMbhP/oX7NsVxi6/L7dUoV4r1Wz3NLutrW3JNDs3N5fs7Gyp2c9j4Bo9TeX86LeN9I48XHSDnZDobE7/+VHSYgKJfMa3eWaIF2YfMn23moaK23zSGU/I8ZM4YmHXyy1fqIi7ZkdERBAWFkZycrIyza6pqaGjo2PNmh0YGCg1e5H5RxOMd12ms+4K1+pbaL7nYmFBQ7D3k9tn73dz78EYJR9PMpS9n72OFOwBYFwlrbJPLL6U1Wr2p59+SnFxMaWlpZSWli6p2fv27ZMQLzIz1kPLP32fn3w8wWcT+fzhj/+St/Pi2R/05PbRKz/n6kf/k+/+5S+4WPjvOPntFL6VBcZV2q+EWLywxYEODQ1VDhqpr6+nra2NsrIybt68qRw0kp2djcPh2Nk1e/Aaw9c+4WdfjNFnLeLo1/+MN5OW7p767TpC2kkD/2H+Z5S0d/PFz37D3v9YhMYvkIgVvqWEWLyw5TV7z549OBwO4uLiqKmpUc6bfefOHe7evbukZkdGRhIUFIROt7OeglP9N7nbVM7V4Uhis16h8M08UiJRqjSAd3A8ESl63pyop6O7nbrLJVxuTSXE30REkPdT33Nn/QTFhllrml1cXMz58+efqtm5ubmYzWZPL31TDfZ30drewkz4v2R3aiYFybDST0BnNBKyJ4PYyGaCKi5RfvE9EoLCeSUv6OltN37ZYqdxBzorK4vQ0FBee+01rl+/Tl1dHe3t7ZSWltLc3LzDavYM0E1f1wBNtToeOcLw8zcTwioh1OkhJAx/PzNB8/M0DY0wMjEFbHKInU4n09PTzM3N4XQ6N/Kh1s3o6CjT09PMz897eimq5eXlhV6vV2p2SkoKDodjyTR7cc2+e/cuaWlpyiTbbDaj1Wo9/c94Lj4+PhgMBvR6/TPeH58HhpkYm+L+oB5TbggBFj9WvaqWRge+IVgC/AgxLzD16CGPZh6vuOmGhnhubo7+/n7Gx8eZmZnZyIdaNyMjIwwPDzMzM4OPj4+nl6N6y2v24mOzS0pKKC0tpaysDJvNxt69e8nJySEpKUk1F40LCQkhPDxcuTj88/DW64gLDyXYstauhA4IxRLsR3gc6J/eFV6y5YaZmJjg/Pnz3L17VzUhnpqaorW1lfHxccLDwz29nG3Dy8sLrVaLyWQiIyNDeeW6cOECLS0t9PX18fjxY7q7u4mLi8NsNqvibSmHw0FmZibZ2dnPvX/vpfzxfJ61/YaGWKPR4Ovri7+/v2r2d3Q6HQaDYcdNTTeay+Xi8ePH3Lt3j97eXgYGBnj8+DE6nQ6LxYLVaiUyMpLw8HCCg4MxGo2qCLGfn99zVOml5hcWePBwmkezs2tstQBMM/tojocPYGGNvbsNfaaGhITw/vvv41r54NAtqb+/nw8++IDJyUnZL15HTqeTsbExysvL+eSTTygvL2dsbAyTyYTD4eC9996jqKiIjIwMVR177f445pdZ8+zcPN2DI9yfmFpjq3lghIn7kwx2w5xj9S03/OVGbScpd1+/SE1PpK3K6XQyMTHBjRs3qK2tpaGhgc7OTu7fv09wcDBFRUVkZWWRmpqKzWYjIiJiGzcgA5BEVHwEKXvnqJwcZurBJPcBf1YI4vw8PBjmwdQUozod1vAQgiwrH7K1XX9iwkMW1+a+vj46Ozupra2lvr6eO3fu4O/vT0JCAsnJybz66qtkZGQQHx/v6WVvgieDqihbDCnpgRgqbzDQm87N+1lk+YPfsiQuzD7m8Z0u7o3OM2qIJTU5ClvkyvvcEmKxrhbX5k8//VSpzb6+viQkJPDuu+9SVFREZmbmjmw8EdZ4knYlY/ywjLYbe7jQcoqETPBb9iI7PzPNSEsD3QN6Rv2yyT8US/IqHx2UEIuX5nQ6mZycpKmpiWvXrlFfX09XVxcjIyMEBgZy5MiRJbU5MjJyG9fmtXlFZBOaM837+XWU935B6U9DiPnuGQ7uDiXhdxmdulVOR9WH/PQfa+g2vUH+H71HTlgQkav8f7czf5Lipblr8/DwMH19fXR1dVFTU0N9fT23b9/G398fh8Oh1ObMzMwdUpufwWzF3/Eqbx4/jubCbSruVFBe6stwayCJ7hC3V3LnRj03ScCRs5/X30zD4b/y4ZkgIRYvaPm0+eLFi0ptdjgcSm3OyMiQi50vYwiMIfnMj0jM/JQjn/+SP/gf/55f9I7//q1gVxRh9lf5+n//IafyHOwPAc3LvE+s8wsl+MB3+GbUFK9N+WHPCCVGzuqxIy2uzXV1ddTX19PZ2cnIyAgBAQEUFBQoR2a5a7Ma3uvddF5eeGn16Ky5xB0N5r9EnmH84eJDKk0YLWHY90YR469F+4yxwTNDrPHxwxR/gJx4yHnJtQv1WVyb+/v7ldpcV1en1Ga73a7U5qysLKnNz8tsxd9s5cRLniZH6rRY0+LafPbsWS5evMjo6ChGoxG73c7p06eXTJulNm8+CbF4irs237hxg7q6OhoaGrh16xYjIyNYLBby8/PJzMwkNTWV2NhYIiMj8fZe4wh9saEkxAL4fW0eGRmhv7+fzs7OJbXZYrEQFxdHcnIyBw4cIDMzE7vd7ullCyTE4neWH6ThnjYbDAalNhcWFpKZmYlWq5XavIVIiHcwd21ubm5eUpuHh4exWCwcOnRoSW2OioqSz1hvQRLiHcblcjE7O8vw8DADAwPKtPnatWt0dXVhNpuJjY0lKSmJgwcPkpWVJbV5i5MQ7zBrTZvj4+N55513lIM0tFqtak6Ts5NJiHeA5bX5+vXr3Lp1i3v37mE2mzl48KByadO4uDiioqIwGAyeXrZ4ThLibcpdm0dGRpTaXF1dvaQ222w2kpOTpTarnIR4m1pemy9dusT9+/cxGAzEx8fz9ttvL5k279RPFW0H8pvbRhYWFpiYmKC5uZn6+vol02aTycQrr7yiTJvdtVkt5z4Tq5MQq9zy2nz79m2qq6upra2ls7MTs9lMdHS0Upv37t0rtXmbkRCr3OLaXFxcrNRmHx8fpTYfOXKEzMxMdDqd1OZtSH6jKuSuzTdv3qS+vl6ZNg8NDWE0Gjl+/LgybXZfI1gtJ2MXX56EWCXctfn+/fsMDg4q0+ba2lpu3bqFn58f0dHRJCUlcejQIfbu3YvDscZ5TsW2ISFWieW12X2Qho+PD3FxcZw6dYrCwkLl6gpykMbOISHewhbX5oaGBq5fv05HR4dSm994440ltdlqtWIymTy9bLHJJMRbzPLa7J4219TUKLXZarWSlJREfn6+1GYhId5qFtfmkpISZdrs7e1NbGwsp06d4siRI2RkZODt7S3TZiEh3goWFhaYnJxcsTb7+Phw7NgxMjIySElJwW63Y7Van/sKfGL7kxB7iLs2j46OKrX56tWrSm02mUxYrVaSk5M5dOgQ2dnZUpvFiiTEHrJSbR4ZGVlSm92ngNXr9XLqV7EqCfEmctfmlpaWJbV5cHAQb29vXn/9ddLT00lNTcVutxMdHS21WTyThHiDLa7NQ0NDS2pzR0eHUpvd02apzeLLkhBvsOW1uaKiQqnNNpuNkydPLpk2S20WX5aEeAMsrs3Xr19XavPAwAB6vZ6ioqKnarPFYvH0soVKSYjXibs2j42NLanN1dXVdHR0YDQaldr82muvkZ2dTUJCgqeXLbYBCfE6cdfmCxcucO7cOaU26/V6pTYXFBRIbRbrTkL8EpbX5sbGRtrb2xkcHESn01FYWEh6ejopKSk4HA6io6Px9/f39LLFNiMh/pJcLhdzc3PKtLm7u5urV69y9epV2tvb8fX1JSoqiuTkZPLz88nJyZHaLDaUhPhLWjxtXl6bY2JiOHHiBIcPHyYjIwMfHx+50JjYcBLi5+Cuza2trTQ2NtLY2EhbWxsDAwNoNBoKCgpIS0sjNTUVh8NBTEwMgYGBnl622CEkxGuYm5tjaGgIp9NJd3c3V65cobq6mra2tqemzVKbhadIiNcwNTXFxYsX6enpoaKiguHhYfR6PdHR0Zw4cUKZNkttFp4kIV7D+Pg4H3/8MbOzs3h5eXH48OEltdlms0ltFh4nIV6FTqdDq9UyNjZGTEwMSUlJHD58mNzcXKnNYkuREK/CZDKRkJDwVG2W6/OKrcbL5XK5PL2IrWR8fJzy8nLGx8cxGo0kJCRgs9kICQnx9NKEWJGEeJnZ2VkGBwfx8/MjKCjI08sR4pkkxMu4XC6cTicajQaNRuPp5QjxTBJiIVROXmqEUDkJsRAqJyEWQuUkxEKonIRYCJWTEAuhchJiIVROQiyEykmIhVA5CbEQKichFkLlJMRCqNz/B6sx8O0gC/WCAAAAAElFTkSuQmCC;" parent="-JCz-ZJJVY7_VpqyZrt4-29" vertex="1">
          <mxGeometry x="13.127400000000014" y="9.75" width="74.71828356164384" height="53.94821917808219" as="geometry" />
        </mxCell>
        <mxCell id="-JCz-ZJJVY7_VpqyZrt4-30" value="clk_mmcm_inst" style="text;html=1;strokeColor=none;fillColor=none;align=center;verticalAlign=middle;whiteSpace=wrap;rounded=0;fontSize=18;" parent="1" vertex="1">
          <mxGeometry x="-1378" y="786" width="137" height="24" as="geometry" />
        </mxCell>
        <mxCell id="-JCz-ZJJVY7_VpqyZrt4-31" value="clk_50mhz_bufg_inst" style="text;html=1;strokeColor=none;fillColor=none;align=center;verticalAlign=middle;whiteSpace=wrap;rounded=0;fontSize=18;" parent="1" vertex="1">
          <mxGeometry x="-1386.5" y="935" width="137" height="24" as="geometry" />
        </mxCell>
        <mxCell id="-JCz-ZJJVY7_VpqyZrt4-32" value="clk_125mhz_bufg_inst" style="text;html=1;strokeColor=none;fillColor=none;align=center;verticalAlign=middle;whiteSpace=wrap;rounded=0;fontSize=18;" parent="1" vertex="1">
          <mxGeometry x="-1386.5" y="1067" width="137" height="24" as="geometry" />
        </mxCell>
        <mxCell id="-JCz-ZJJVY7_VpqyZrt4-33" value="" style="group" parent="1" vertex="1" connectable="0">
          <mxGeometry x="-1368.49" y="984" width="100.98" height="78" as="geometry" />
        </mxCell>
        <mxCell id="-JCz-ZJJVY7_VpqyZrt4-34" value="" style="rounded=0;whiteSpace=wrap;html=1;" parent="-JCz-ZJJVY7_VpqyZrt4-33" vertex="1">
          <mxGeometry width="100.98" height="78" as="geometry" />
        </mxCell>
        <mxCell id="-JCz-ZJJVY7_VpqyZrt4-35" value="" style="shape=image;verticalLabelPosition=bottom;labelBackgroundColor=default;verticalAlign=top;aspect=fixed;imageAspect=0;image=data:image/png,iVBORw0KGgoAAAANSUhEUgAAAPEAAACuCAYAAADnE+srAAAbwElEQVR4nO3df1DU+Z3n8Sf9A7ppuvn9s6GBbkSQ3wLijMqI4DjjqDNOxuQqqc3t7G42lb26S2VTd1eVqttc3dbd1d7epSpVdzWVbLJ3dbvJbpKtyc3OjKAwM6KACggIIr8EUX4LAgIiAk3fH6a/AQR0FGi+8H78YVn0t+mP0C/79X33t79fL5fL5UIIoVoaTy9ACPFyJMRCqJyEWAiVkxALoXISYiFUTkIshMpJiIVQOQmxEConIRZC5STEQqichFgIlZMQC6FyEmIhVE5CLITKSYiFUDkJsRAqJyEWQuV0nl7AdjI7NcJQ/W+pvzXMjYFVNtL7QVA6uTmJ5GVEYQK0POLReD+dF0tpHg9kLCCFo/kOogKMGFf4FmO3LtHdVEtVdxwxOWlkHUogHHh46xLdTZeo6oYHj9ZY6IprAOejcR52XuRq811qOicW3wEIwpGbQ0peBg4TGLUv9CMSG0BCvI5mJ4bo/vzH/PrjW/yqyURghAVfbx16ZQsnTp2ZaUs+p8eO4RdoYFeEBX/vR0yPtdPw6x/xi9sOOuO/QWxaJIGrhHik5XOu/sOP+euyIg5+V0fgoQQCla//J/66zJdRLzOWIBM+rFC3DKEQP4vTEkBKRiRGnMxNjDN+p5mu0r/nwwvt/LbpIb5a0HqBy6nDOW0h7fQYh00BHLWHEhvgg8UgSd4KJMQbwk5oTD7v/9W75NlDiVG+PsGDgVYq//bn1Py6h7+40sef/tW75Dm0mNbtsf2APA6deYuvfDuf3YDv8k00evAJIjTUnxDm0XGf1s//L1/84ld82ORNwGtn+NffOc6BYPDXw9yDAe5X/i3/r+bX/PQHFVx+99/yjYJU3knzX7dVixcnId4QvngbIolJSiU5JYpdytcfMR3lh39LCV0DPVxtvEBdx1FsQQEkrNtja4EAAiPt7MrKIoMnsV7V7AMYqqWpvoXzLQt45xwnt+gYx1/JYrcZfLXgnI5j0n+K4em/Y6C0lhtnK6gPMZOdlk444L1uaxcvQgZbm8qIrymSrH2Z2OLh8WwTnd2PuDfiqfUs4Hw0xmTjBZpax6j3yuXA+9/kzaM5ZAU8CTCA1jeQgKyvkp//Kl9JdjFTW0HrzQ5aZmBmwVNrF24S4h1tiqmJO1wqq6BjeA5DQgZ7ooxErvLSHWm1k5SahsHYRN9AFzda4NHM5q5YPE3q9KYaY+rBLRrONXKrxxdjdCZp8Saig4CJZ955A0zy+NEgnTeGGZ6OwjslhiiTN/6rPCt8ItOJy/8mf7pwC31cFkmBMqXeCiTEG+Ix87NjjPTepcc4w++f593c66zmnz7t5I5XKkmHT5C/J4D44AWc6xbiBeAhU2ND9Hd1EQDLhmY+6Lx9CQizYPSeZn5ujNEBJw8NvmhDAgnQ6Z4ehLkFJxMenMz38tZrrWI9SIg3RBfDvaP87PsX+JVRj0H5+gxzehPD0e/w1Tfy+ePjGcSE+WFiggfr9thTwGUu/aad1sqf4AssfbFMIsKezx/+19Pssy+/TaiRhHhDWDCY4tmdl0FsiB+Bi26Zdc5zb7ofV28DlV/4kHcqg1if9XxsPRBGRHwKmQcSCGP59NhKQHgcVpM3RmB21e8zC9yjs7KB5sqbdAOLd38j9hzAkXmAjDDwk/G0R0mIN4SVwPCjnP7zb1G45C0meDjUys2//2N+8uF1/ttHA/xZqpVjZj8i1+2xjUA6WUf/gG//8CRZrPUW0xD9q942BwzQXVPGuQ8+ohJ4MDfN3MxD7j14RPrX/oKT/geID5AQe5qEeJMZzAEkFbxDavN5rpdWUH7xBDG+sUSu39Ee68QAJJH91X9D3IFv8CfAfE8FXTWf8oP/U+PpxYlFJMSbTOtjwGzfTUToZYIed9HeOUj/cPDy6dOz6bQQFoDB7IuFF923DcTbEI1tt56g0Uf0jE0w4XQyAxjQAmYCoswERNmfbB4wiO+9IIw+sie9lcj7xJtNowU/M0YfA35OJ2MPJpl6NIuXlw6t3guNy4lrdo55l4unj6NwAfMsLDhxavS4bOGYgyyE8qL/G4dgNDlI3RdIVOAks33d9E4+Zmz+5f6JYnNJiDfb/DyMDPNgapJRvQ5reCjBlgh0+hBCI3SY5yeZ7x5i5PE8k0/fGRhh6sEUw/d1zAeH4ufvRwgvXqkMRj+SUvcTaZhksvUjLjSO07baJ7DEliQh3lQzzEz2c/OzcppbJxj1TSF7bzQOWwA+5hAcBUdJjTcTfu8an1V00NQ5tuTes1Oj9Fb9A9W1rVwbiWFPeiIJsaF4A14vuCKtwR/znhNk7bHxiqmRxk/+hvNfVFHVC1PK6NoJTDDQe4ebjV08mrbgazATYAGtNGuPk33iDTHL/NwDxgb6GDDP8/t3kMYZ723ii3+u5GZPKD6OAl7LiybR5osPLuJf/zr7m/+O3qYKSsuuYPNxkamPU+79cLiT5o9+yeVGJ72+h/jaKymk20Nebqk+Foh/nX37m5nrq+J/lf9vqjR6nL7R+KRAqAmeTKqHqW+4SUXtEEbLHmzRVmJCwUeeQR4nv4IN0cVIz2/4m++X82tf70UHe8wzjw/jmjwKzhTwr945SFpMIMHAk2lwMtln3ifAkUz0r37F9Z//kq998Pt7OzVGHhqyee31A/zn46+QFBdG2JofUXp+EdlnKIpKYc+JKoo/beazH36NChMsaOHJUWBzTHnFYor5Ft/5wRFyMxOxB4OfPIM8Tn4F60jvF4x1/zd50zJEeO9qG5khNJeDB1PJS49eNFl+Mg0OjE5ij68vXpMPCOsaoW185fu+khn71FQ60LGfjBNz/EliIvH7HVhh0QkJ1mYIjMZgCSI8MpjZ2Sh8jG0M8+Q1WBGwmxB7NoX5ydiCfFc/PFNsKi+Xy+Xy9CKEEC9OBltCqJyEWAiVkxALoXISYiFUTkIshMpJiIVQOQmxEConIRZC5STEQqichFgIlZMQC6FyEmIhVE5CLITKSYiFUDkJsRAqJyEWQuUkxEKonIRYCJWTEAuhchJiIVROQiyEykmIhVA5CbEQKicnj1/G5XIxO/vkIkQajQadToeX14te6UiIjSchXmZycpLq6mqcTidhYWHs3r0bX1+51oHYuiTEy8zMzNDS0kJ3dzcajYbU1FR27dpFbGwsYWFh6PXPe2EUITaHhHiZubk5hoaG+Pzzz2ltbcVms1FYWMixY8fIyckhMDAQb29vtFqt1GyxJUiI1zA/P8/o6CilpaU0NDSwa9cu9u/fz/79+6Vmiy1DQrwGs9lMYWEh09PT9PT0cOXKFYaGhrh9+zZpaWkkJCQQGxtLaGio1GzhMRLiNYSHh/O9732PyclJzp8/T2lpKbW1tVy+fJmoqCgKCgp44403lJqt1+ulZotNJyFeg0ajwWg04nA4iIqKoqioiLq6Oqqrq2lqalJqdmJiolKzExMTpWaLTSUhXoOXlxdarZaQkBCCgoKw2+1ERUVhs9lwOBy0trbS09PD5cuXGRwcXFKzbTab1GyxKSTEz0mj0WAwGEhNTSU5OZmTJ09y9epVzp07x/nz56mpqVFq9pEjR3jzzTfJyckhICAAnU4nNVtsGAnxC3DX7MzMTCIjI5WaXVNT81TNzsvLk5otNpSE+AV4eXmh0+mUmu1wOLBardhsNux2O21tbfT09FBVVcXAwADd3d2kpaXhcDikZot1JyF+Sctr9qlTp5Safe7cOaqrq6mqqsJqtS6p2YGBgeh0OjQajdRs8VIkxOvIXbMzMjKIiIigsLBQqdk3btygrKyM69evKzU7Ly9ParZ4aRLideSu2aGhoQQHB5OQkKDU7Pj4eNra2ujt7aWysnJJzU5ISCAmJoaQkBCp2eJLkxBvEHfNTktLY8+ePbz99ttcuXJFqdlXrlyhsrISq9VKYWHhU9NsqdnieUmIN8Hyafbimt3c3ExpaelTNXvXrl1Ss8VzkRBvgpVqdnR0tFKz29vb6e3tpaKi4qlpttRs8SwS4k22vGa/8847XLlyhZKSEs6dO0dVVRWXLl0iOjqawsJCjh8/Tm5uLv7+/mi1WqnZ4ikSYg9aXLPd0+z6+volNbuxsVGp2fv27ZOaLZ4iIfag5TV7165dxMTEYLPZiIuLU2r2pUuX6O/vX1Kzo6OjpWYLQEK8ZaxWs4uLizl37hyVlZVKzS4qKuL48ePKNNtds8XOJCHeghYfNBIeHs6RI0eor6+ntraWmzdvKjV79+7d7Nu3j9zcXBITEzEajZ5euvAACfEW5K7ZYWFhhISEkJiYiM1mIzY2VjlopK+vj/Lycnp7e7l9+zbp6enY7XZiYmIIDg6Wmr2DSIi3OHfNTk9PJyUlhdOnT3P58mVKSkooKSmhoqKCixcvEhMTQ1FREW+99ZZSszUajdTsHUBCrCKLp9kr1eyysjKamppITExk3759yjRbavb2JiFWkdVqtrtqt7e3KzW7r6+PO3fukJaWht1uJzo6Wmr2NiUhVin3q7K7Zr/77rtcvnyZ4uJiiouLuXjxIhcuXMBms3H06FHeeust5aARLy8vqdnbiIR4G1irZre0tFBaWrqkZufm5krN3kYkxNvASjU7NjaW2NhYamtraW9vp7+/n/7+fvr6+uju7lam2VarVWq2ykmIt5mVanZVVRXFxcWUlJRw4cIFvvjiC6VmnzhxgtzcXCwWixyXrVIS4m1sec0uKCigoaGBa9eu0dLSQllZGTdu3GD37t3k5uaSk5MjNVuFJMTbmLtmh4eHExoayu7du4mLi1NqdkdHB319ffT19dHT0/NUzQ4KCpKarQIS4h1i8aGcqampfOUrX1FqdnFx8ZKa/frrr3PixAlycnKUabbU7K1LQrwDLa7ZYWFhHD58WKnZra2tlJaWKjU7JyeH3NxcEhISpGZvURLiHWh5zU5KSiI+Pn7JNHtgYIDe3l56enq4c+eOUrOjoqKkZm8xEuIdbnnNfu+996iqquLs2bMUFxfz+eef89lnnxEbG6vUbPc0W2r21iAhForlNbugoID6+nrq6upobW2lrKyM5uZmEhMTlWm21GzPkxALxUo1e/E0212ze3p6ltTs+Ph4qdke9JwhduFy/e6vXl5Igdr+Fr8qp6WlcebMGSorKzl79ixnz57ls88+o6ysjLi4OI4dO8bJkyfJzc1Fp9NJxf5SFmVrCS+e98f4zBDPT95jvP4f+edL97g8GMbhP/oX7NsVxi6/L7dUoV4r1Wz3NLutrW3JNDs3N5fs7Gyp2c9j4Bo9TeX86LeN9I48XHSDnZDobE7/+VHSYgKJfMa3eWaIF2YfMn23moaK23zSGU/I8ZM4YmHXyy1fqIi7ZkdERBAWFkZycrIyza6pqaGjo2PNmh0YGCg1e5H5RxOMd12ms+4K1+pbaL7nYmFBQ7D3k9tn73dz78EYJR9PMpS9n72OFOwBYFwlrbJPLL6U1Wr2p59+SnFxMaWlpZSWli6p2fv27ZMQLzIz1kPLP32fn3w8wWcT+fzhj/+St/Pi2R/05PbRKz/n6kf/k+/+5S+4WPjvOPntFL6VBcZV2q+EWLywxYEODQ1VDhqpr6+nra2NsrIybt68qRw0kp2djcPh2Nk1e/Aaw9c+4WdfjNFnLeLo1/+MN5OW7p767TpC2kkD/2H+Z5S0d/PFz37D3v9YhMYvkIgVvqWEWLyw5TV7z549OBwO4uLiqKmpUc6bfefOHe7evbukZkdGRhIUFIROt7OeglP9N7nbVM7V4Uhis16h8M08UiJRqjSAd3A8ESl63pyop6O7nbrLJVxuTSXE30REkPdT33Nn/QTFhllrml1cXMz58+efqtm5ubmYzWZPL31TDfZ30drewkz4v2R3aiYFybDST0BnNBKyJ4PYyGaCKi5RfvE9EoLCeSUv6OltN37ZYqdxBzorK4vQ0FBee+01rl+/Tl1dHe3t7ZSWltLc3LzDavYM0E1f1wBNtToeOcLw8zcTwioh1OkhJAx/PzNB8/M0DY0wMjEFbHKInU4n09PTzM3N4XQ6N/Kh1s3o6CjT09PMz897eimq5eXlhV6vV2p2SkoKDodjyTR7cc2+e/cuaWlpyiTbbDaj1Wo9/c94Lj4+PhgMBvR6/TPeH58HhpkYm+L+oB5TbggBFj9WvaqWRge+IVgC/AgxLzD16CGPZh6vuOmGhnhubo7+/n7Gx8eZmZnZyIdaNyMjIwwPDzMzM4OPj4+nl6N6y2v24mOzS0pKKC0tpaysDJvNxt69e8nJySEpKUk1F40LCQkhPDxcuTj88/DW64gLDyXYstauhA4IxRLsR3gc6J/eFV6y5YaZmJjg/Pnz3L17VzUhnpqaorW1lfHxccLDwz29nG3Dy8sLrVaLyWQiIyNDeeW6cOECLS0t9PX18fjxY7q7u4mLi8NsNqvibSmHw0FmZibZ2dnPvX/vpfzxfJ61/YaGWKPR4Ovri7+/v2r2d3Q6HQaDYcdNTTeay+Xi8ePH3Lt3j97eXgYGBnj8+DE6nQ6LxYLVaiUyMpLw8HCCg4MxGo2qCLGfn99zVOml5hcWePBwmkezs2tstQBMM/tojocPYGGNvbsNfaaGhITw/vvv41r54NAtqb+/nw8++IDJyUnZL15HTqeTsbExysvL+eSTTygvL2dsbAyTyYTD4eC9996jqKiIjIwMVR177f445pdZ8+zcPN2DI9yfmFpjq3lghIn7kwx2w5xj9S03/OVGbScpd1+/SE1PpK3K6XQyMTHBjRs3qK2tpaGhgc7OTu7fv09wcDBFRUVkZWWRmpqKzWYjIiJiGzcgA5BEVHwEKXvnqJwcZurBJPcBf1YI4vw8PBjmwdQUozod1vAQgiwrH7K1XX9iwkMW1+a+vj46Ozupra2lvr6eO3fu4O/vT0JCAsnJybz66qtkZGQQHx/v6WVvgieDqihbDCnpgRgqbzDQm87N+1lk+YPfsiQuzD7m8Z0u7o3OM2qIJTU5ClvkyvvcEmKxrhbX5k8//VSpzb6+viQkJPDuu+9SVFREZmbmjmw8EdZ4knYlY/ywjLYbe7jQcoqETPBb9iI7PzPNSEsD3QN6Rv2yyT8US/IqHx2UEIuX5nQ6mZycpKmpiWvXrlFfX09XVxcjIyMEBgZy5MiRJbU5MjJyG9fmtXlFZBOaM837+XWU935B6U9DiPnuGQ7uDiXhdxmdulVOR9WH/PQfa+g2vUH+H71HTlgQkav8f7czf5Lipblr8/DwMH19fXR1dVFTU0N9fT23b9/G398fh8Oh1ObMzMwdUpufwWzF3/Eqbx4/jubCbSruVFBe6stwayCJ7hC3V3LnRj03ScCRs5/X30zD4b/y4ZkgIRYvaPm0+eLFi0ptdjgcSm3OyMiQi50vYwiMIfnMj0jM/JQjn/+SP/gf/55f9I7//q1gVxRh9lf5+n//IafyHOwPAc3LvE+s8wsl+MB3+GbUFK9N+WHPCCVGzuqxIy2uzXV1ddTX19PZ2cnIyAgBAQEUFBQoR2a5a7Ma3uvddF5eeGn16Ky5xB0N5r9EnmH84eJDKk0YLWHY90YR469F+4yxwTNDrPHxwxR/gJx4yHnJtQv1WVyb+/v7ldpcV1en1Ga73a7U5qysLKnNz8tsxd9s5cRLniZH6rRY0+LafPbsWS5evMjo6ChGoxG73c7p06eXTJulNm8+CbF4irs237hxg7q6OhoaGrh16xYjIyNYLBby8/PJzMwkNTWV2NhYIiMj8fZe4wh9saEkxAL4fW0eGRmhv7+fzs7OJbXZYrEQFxdHcnIyBw4cIDMzE7vd7ullCyTE4neWH6ThnjYbDAalNhcWFpKZmYlWq5XavIVIiHcwd21ubm5eUpuHh4exWCwcOnRoSW2OioqSz1hvQRLiHcblcjE7O8vw8DADAwPKtPnatWt0dXVhNpuJjY0lKSmJgwcPkpWVJbV5i5MQ7zBrTZvj4+N55513lIM0tFqtak6Ts5NJiHeA5bX5+vXr3Lp1i3v37mE2mzl48KByadO4uDiioqIwGAyeXrZ4ThLibcpdm0dGRpTaXF1dvaQ222w2kpOTpTarnIR4m1pemy9dusT9+/cxGAzEx8fz9ttvL5k279RPFW0H8pvbRhYWFpiYmKC5uZn6+vol02aTycQrr7yiTJvdtVkt5z4Tq5MQq9zy2nz79m2qq6upra2ls7MTs9lMdHS0Upv37t0rtXmbkRCr3OLaXFxcrNRmHx8fpTYfOXKEzMxMdDqd1OZtSH6jKuSuzTdv3qS+vl6ZNg8NDWE0Gjl+/LgybXZfI1gtJ2MXX56EWCXctfn+/fsMDg4q0+ba2lpu3bqFn58f0dHRJCUlcejQIfbu3YvDscZ5TsW2ISFWieW12X2Qho+PD3FxcZw6dYrCwkLl6gpykMbOISHewhbX5oaGBq5fv05HR4dSm994440ltdlqtWIymTy9bLHJJMRbzPLa7J4219TUKLXZarWSlJREfn6+1GYhId5qFtfmkpISZdrs7e1NbGwsp06d4siRI2RkZODt7S3TZiEh3goWFhaYnJxcsTb7+Phw7NgxMjIySElJwW63Y7Van/sKfGL7kxB7iLs2j46OKrX56tWrSm02mUxYrVaSk5M5dOgQ2dnZUpvFiiTEHrJSbR4ZGVlSm92ngNXr9XLqV7EqCfEmctfmlpaWJbV5cHAQb29vXn/9ddLT00lNTcVutxMdHS21WTyThHiDLa7NQ0NDS2pzR0eHUpvd02apzeLLkhBvsOW1uaKiQqnNNpuNkydPLpk2S20WX5aEeAMsrs3Xr19XavPAwAB6vZ6ioqKnarPFYvH0soVKSYjXibs2j42NLanN1dXVdHR0YDQaldr82muvkZ2dTUJCgqeXLbYBCfE6cdfmCxcucO7cOaU26/V6pTYXFBRIbRbrTkL8EpbX5sbGRtrb2xkcHESn01FYWEh6ejopKSk4HA6io6Px9/f39LLFNiMh/pJcLhdzc3PKtLm7u5urV69y9epV2tvb8fX1JSoqiuTkZPLz88nJyZHaLDaUhPhLWjxtXl6bY2JiOHHiBIcPHyYjIwMfHx+50JjYcBLi5+Cuza2trTQ2NtLY2EhbWxsDAwNoNBoKCgpIS0sjNTUVh8NBTEwMgYGBnl622CEkxGuYm5tjaGgIp9NJd3c3V65cobq6mra2tqemzVKbhadIiNcwNTXFxYsX6enpoaKiguHhYfR6PdHR0Zw4cUKZNkttFp4kIV7D+Pg4H3/8MbOzs3h5eXH48OEltdlms0ltFh4nIV6FTqdDq9UyNjZGTEwMSUlJHD58mNzcXKnNYkuREK/CZDKRkJDwVG2W6/OKrcbL5XK5PL2IrWR8fJzy8nLGx8cxGo0kJCRgs9kICQnx9NKEWJGEeJnZ2VkGBwfx8/MjKCjI08sR4pkkxMu4XC6cTicajQaNRuPp5QjxTBJiIVROXmqEUDkJsRAqJyEWQuUkxEKonIRYCJWTEAuhchJiIVROQiyEykmIhVA5CbEQKichFkLlJMRCqNz/B6sx8O0gC/WCAAAAAElFTkSuQmCC;" parent="-JCz-ZJJVY7_VpqyZrt4-33" vertex="1">
          <mxGeometry x="13.127400000000014" y="9.75" width="74.71828356164384" height="53.94821917808219" as="geometry" />
        </mxCell>
        <mxCell id="-JCz-ZJJVY7_VpqyZrt4-36" value="sync_reset" style="rounded=0;whiteSpace=wrap;html=1;" parent="1" vertex="1">
          <mxGeometry x="-1159" y="852" width="120" height="60" as="geometry" />
        </mxCell>
        <mxCell id="-JCz-ZJJVY7_VpqyZrt4-37" value="sync_reset_50mhz_inst" style="text;html=1;strokeColor=none;fillColor=none;align=center;verticalAlign=middle;whiteSpace=wrap;rounded=0;fontSize=18;" parent="1" vertex="1">
          <mxGeometry x="-1167.5" y="919" width="137" height="24" as="geometry" />
        </mxCell>
        <mxCell id="-JCz-ZJJVY7_VpqyZrt4-38" value="sync_reset" style="rounded=0;whiteSpace=wrap;html=1;" parent="1" vertex="1">
          <mxGeometry x="-1159" y="965" width="120" height="60" as="geometry" />
        </mxCell>
        <mxCell id="-JCz-ZJJVY7_VpqyZrt4-39" value="sync_reset_125mhz_inst" style="text;html=1;strokeColor=none;fillColor=none;align=center;verticalAlign=middle;whiteSpace=wrap;rounded=0;fontSize=18;" parent="1" vertex="1">
          <mxGeometry x="-1167.5" y="1032" width="137" height="24" as="geometry" />
        </mxCell>
        <mxCell id="-JCz-ZJJVY7_VpqyZrt4-40" value="debounce_switch" style="rounded=0;whiteSpace=wrap;html=1;" parent="1" vertex="1">
          <mxGeometry x="-1159" y="620" width="120" height="60" as="geometry" />
        </mxCell>
        <mxCell id="-JCz-ZJJVY7_VpqyZrt4-41" value="debounce_switch_inst" style="text;html=1;strokeColor=none;fillColor=none;align=center;verticalAlign=middle;whiteSpace=wrap;rounded=0;fontSize=18;" parent="1" vertex="1">
          <mxGeometry x="-1167.5" y="687" width="137" height="24" as="geometry" />
        </mxCell>
        <mxCell id="-JCz-ZJJVY7_VpqyZrt4-42" value="sync_signal" style="rounded=0;whiteSpace=wrap;html=1;" parent="1" vertex="1">
          <mxGeometry x="-1159" y="739" width="120" height="60" as="geometry" />
        </mxCell>
        <mxCell id="-JCz-ZJJVY7_VpqyZrt4-43" value="sync_signal_inst" style="text;html=1;strokeColor=none;fillColor=none;align=center;verticalAlign=middle;whiteSpace=wrap;rounded=0;fontSize=18;" parent="1" vertex="1">
          <mxGeometry x="-1167.5" y="806" width="137" height="24" as="geometry" />
        </mxCell>
        <mxCell id="-JCz-ZJJVY7_VpqyZrt4-44" value="sync_signal" style="rounded=0;whiteSpace=wrap;html=1;" parent="1" vertex="1">
          <mxGeometry x="-814.5" y="617" width="120" height="60" as="geometry" />
        </mxCell>
        <mxCell id="-JCz-ZJJVY7_VpqyZrt4-45" value="flash_sync_signal_inst" style="text;html=1;strokeColor=none;fillColor=none;align=center;verticalAlign=middle;whiteSpace=wrap;rounded=0;fontSize=18;" parent="1" vertex="1">
          <mxGeometry x="-823" y="684" width="137" height="24" as="geometry" />
        </mxCell>
        <mxCell id="-JCz-ZJJVY7_VpqyZrt4-46" value="STARTUPE3" style="rounded=0;whiteSpace=wrap;html=1;" parent="1" vertex="1">
          <mxGeometry x="-814.5" y="734" width="120" height="60" as="geometry" />
        </mxCell>
        <mxCell id="-JCz-ZJJVY7_VpqyZrt4-47" value="startupe3_inst" style="text;html=1;strokeColor=none;fillColor=none;align=center;verticalAlign=middle;whiteSpace=wrap;rounded=0;fontSize=18;" parent="1" vertex="1">
          <mxGeometry x="-823" y="801" width="137" height="24" as="geometry" />
        </mxCell>
        <mxCell id="-JCz-ZJJVY7_VpqyZrt4-48" value="BUFG" style="rounded=0;whiteSpace=wrap;html=1;" parent="1" vertex="1">
          <mxGeometry x="-814.5" y="844" width="120" height="60" as="geometry" />
        </mxCell>
        <mxCell id="-JCz-ZJJVY7_VpqyZrt4-49" value="cfgmclk_bufg_inst" style="text;html=1;strokeColor=none;fillColor=none;align=center;verticalAlign=middle;whiteSpace=wrap;rounded=0;fontSize=18;" parent="1" vertex="1">
          <mxGeometry x="-823" y="911" width="137" height="24" as="geometry" />
        </mxCell>
        <mxCell id="-JCz-ZJJVY7_VpqyZrt4-50" value="ICAPE3" style="rounded=0;whiteSpace=wrap;html=1;" parent="1" vertex="1">
          <mxGeometry x="-814.5" y="954" width="120" height="60" as="geometry" />
        </mxCell>
        <mxCell id="-JCz-ZJJVY7_VpqyZrt4-51" value="icape3_inst" style="text;html=1;strokeColor=none;fillColor=none;align=center;verticalAlign=middle;whiteSpace=wrap;rounded=0;fontSize=18;" parent="1" vertex="1">
          <mxGeometry x="-823" y="1021" width="137" height="24" as="geometry" />
        </mxCell>
        <mxCell id="-JCz-ZJJVY7_VpqyZrt4-53" value="axil_cdc" style="rounded=0;whiteSpace=wrap;html=1;" parent="1" vertex="1">
          <mxGeometry x="-500.5" y="620" width="120" height="60" as="geometry" />
        </mxCell>
        <mxCell id="-JCz-ZJJVY7_VpqyZrt4-54" value="cms_axil_cdc_inst" style="text;html=1;strokeColor=none;fillColor=none;align=center;verticalAlign=middle;whiteSpace=wrap;rounded=0;fontSize=18;" parent="1" vertex="1">
          <mxGeometry x="-509" y="687" width="137" height="24" as="geometry" />
        </mxCell>
        <mxCell id="-JCz-ZJJVY7_VpqyZrt4-55" value="cms_wrapper" style="rounded=0;whiteSpace=wrap;html=1;" parent="1" vertex="1">
          <mxGeometry x="-500.5" y="733" width="120" height="60" as="geometry" />
        </mxCell>
        <mxCell id="-JCz-ZJJVY7_VpqyZrt4-56" value="cms_inst" style="text;html=1;strokeColor=none;fillColor=none;align=center;verticalAlign=middle;whiteSpace=wrap;rounded=0;fontSize=18;" parent="1" vertex="1">
          <mxGeometry x="-509" y="800" width="137" height="24" as="geometry" />
        </mxCell>
        <mxCell id="-JCz-ZJJVY7_VpqyZrt4-57" value="IBUFDS_GTE4" style="rounded=0;whiteSpace=wrap;html=1;" parent="1" vertex="1">
          <mxGeometry x="-182.5" y="620" width="120" height="60" as="geometry" />
        </mxCell>
        <mxCell id="-JCz-ZJJVY7_VpqyZrt4-58" value="ibufds_gte4_pcie_mgt_refclk_inst" style="text;html=1;strokeColor=none;fillColor=none;align=center;verticalAlign=middle;whiteSpace=wrap;rounded=0;fontSize=18;" parent="1" vertex="1">
          <mxGeometry x="-191" y="687" width="137" height="24" as="geometry" />
        </mxCell>
        <mxCell id="-JCz-ZJJVY7_VpqyZrt4-59" value="pcie4_uscale_plus_0" style="rounded=0;whiteSpace=wrap;html=1;" parent="1" vertex="1">
          <mxGeometry x="-182.5" y="733" width="120" height="60" as="geometry" />
        </mxCell>
        <mxCell id="-JCz-ZJJVY7_VpqyZrt4-60" value="pcie4_uscale_plus_inst" style="text;html=1;strokeColor=none;fillColor=none;align=center;verticalAlign=middle;whiteSpace=wrap;rounded=0;fontSize=18;" parent="1" vertex="1">
          <mxGeometry x="-191" y="800" width="137" height="24" as="geometry" />
        </mxCell>
        <mxCell id="-JCz-ZJJVY7_VpqyZrt4-65" value="IBUFDS_GTE4" style="rounded=0;whiteSpace=wrap;html=1;" parent="1" vertex="1">
          <mxGeometry x="194.5" y="621" width="120" height="60" as="geometry" />
        </mxCell>
        <mxCell id="-JCz-ZJJVY7_VpqyZrt4-66" value="ibufds_gte4_qsfp0_mgt_refclk_1_inst" style="text;html=1;strokeColor=none;fillColor=none;align=center;verticalAlign=middle;whiteSpace=wrap;rounded=0;fontSize=18;" parent="1" vertex="1">
          <mxGeometry x="186" y="688" width="137" height="24" as="geometry" />
        </mxCell>
        <mxCell id="-JCz-ZJJVY7_VpqyZrt4-67" value="BUFG_GT" style="rounded=0;whiteSpace=wrap;html=1;" parent="1" vertex="1">
          <mxGeometry x="194.5" y="734" width="120" height="60" as="geometry" />
        </mxCell>
        <mxCell id="-JCz-ZJJVY7_VpqyZrt4-68" value="bufg_gt_qsfp0_mgt_refclk_1_inst" style="text;html=1;strokeColor=none;fillColor=none;align=center;verticalAlign=middle;whiteSpace=wrap;rounded=0;fontSize=18;" parent="1" vertex="1">
          <mxGeometry x="186" y="801" width="137" height="24" as="geometry" />
        </mxCell>
        <mxCell id="-JCz-ZJJVY7_VpqyZrt4-69" value="sync_reset" style="rounded=0;whiteSpace=wrap;html=1;" parent="1" vertex="1">
          <mxGeometry x="194.5" y="842" width="120" height="60" as="geometry" />
        </mxCell>
        <mxCell id="-JCz-ZJJVY7_VpqyZrt4-70" value="qsfp0_sync_reset_inst" style="text;html=1;strokeColor=none;fillColor=none;align=center;verticalAlign=middle;whiteSpace=wrap;rounded=0;fontSize=18;" parent="1" vertex="1">
          <mxGeometry x="186" y="909" width="137" height="24" as="geometry" />
        </mxCell>
        <mxCell id="-JCz-ZJJVY7_VpqyZrt4-71" value="cmac_gty_wrapper" style="rounded=0;whiteSpace=wrap;html=1;" parent="1" vertex="1">
          <mxGeometry x="194.5" y="954" width="120" height="60" as="geometry" />
        </mxCell>
        <mxCell id="-JCz-ZJJVY7_VpqyZrt4-72" value="qsfp0_cmac_inst" style="text;html=1;strokeColor=none;fillColor=none;align=center;verticalAlign=middle;whiteSpace=wrap;rounded=0;fontSize=18;" parent="1" vertex="1">
          <mxGeometry x="186" y="1021" width="137" height="24" as="geometry" />
        </mxCell>
        <mxCell id="-JCz-ZJJVY7_VpqyZrt4-81" value="IBUFDS_GTE4" style="rounded=0;whiteSpace=wrap;html=1;" parent="1" vertex="1">
          <mxGeometry x="515.5" y="621" width="120" height="60" as="geometry" />
        </mxCell>
        <mxCell id="-JCz-ZJJVY7_VpqyZrt4-82" value="ibufds_gte4_qsfp1_mgt_refclk_1_inst" style="text;html=1;strokeColor=none;fillColor=none;align=center;verticalAlign=middle;whiteSpace=wrap;rounded=0;fontSize=18;" parent="1" vertex="1">
          <mxGeometry x="507" y="688" width="137" height="24" as="geometry" />
        </mxCell>
        <mxCell id="-JCz-ZJJVY7_VpqyZrt4-83" value="BUFG_GT" style="rounded=0;whiteSpace=wrap;html=1;" parent="1" vertex="1">
          <mxGeometry x="515.5" y="734" width="120" height="60" as="geometry" />
        </mxCell>
        <mxCell id="-JCz-ZJJVY7_VpqyZrt4-84" value="bufg_gt_qsfp1_mgt_refclk_1_inst" style="text;html=1;strokeColor=none;fillColor=none;align=center;verticalAlign=middle;whiteSpace=wrap;rounded=0;fontSize=18;" parent="1" vertex="1">
          <mxGeometry x="507" y="801" width="137" height="24" as="geometry" />
        </mxCell>
        <mxCell id="-JCz-ZJJVY7_VpqyZrt4-85" value="sync_reset" style="rounded=0;whiteSpace=wrap;html=1;" parent="1" vertex="1">
          <mxGeometry x="515.5" y="842" width="120" height="60" as="geometry" />
        </mxCell>
        <mxCell id="-JCz-ZJJVY7_VpqyZrt4-86" value="qsfp1_sync_reset_inst" style="text;html=1;strokeColor=none;fillColor=none;align=center;verticalAlign=middle;whiteSpace=wrap;rounded=0;fontSize=18;" parent="1" vertex="1">
          <mxGeometry x="507" y="909" width="137" height="24" as="geometry" />
        </mxCell>
        <mxCell id="-JCz-ZJJVY7_VpqyZrt4-87" value="cmac_gty_wrapper" style="rounded=0;whiteSpace=wrap;html=1;" parent="1" vertex="1">
          <mxGeometry x="515.5" y="954" width="120" height="60" as="geometry" />
        </mxCell>
        <mxCell id="-JCz-ZJJVY7_VpqyZrt4-88" value="qsfp1_cmac_inst" style="text;html=1;strokeColor=none;fillColor=none;align=center;verticalAlign=middle;whiteSpace=wrap;rounded=0;fontSize=18;" parent="1" vertex="1">
          <mxGeometry x="507" y="1021" width="137" height="24" as="geometry" />
        </mxCell>
        <mxCell id="-JCz-ZJJVY7_VpqyZrt4-105" value="ddr4_0" style="rounded=0;whiteSpace=wrap;html=1;" parent="1" vertex="1">
          <mxGeometry x="845.5" y="621" width="120" height="60" as="geometry" />
        </mxCell>
        <mxCell id="-JCz-ZJJVY7_VpqyZrt4-106" value="ddr4_c0_inst" style="text;html=1;strokeColor=none;fillColor=none;align=center;verticalAlign=middle;whiteSpace=wrap;rounded=0;fontSize=18;" parent="1" vertex="1">
          <mxGeometry x="837" y="688" width="137" height="24" as="geometry" />
        </mxCell>
        <mxCell id="-JCz-ZJJVY7_VpqyZrt4-107" value="OBUFTDS" style="rounded=0;whiteSpace=wrap;html=1;" parent="1" vertex="1">
          <mxGeometry x="845.5" y="734" width="120" height="60" as="geometry" />
        </mxCell>
        <mxCell id="-JCz-ZJJVY7_VpqyZrt4-108" value="ddr4_c0_ck_obuftds_inst" style="text;html=1;strokeColor=none;fillColor=none;align=center;verticalAlign=middle;whiteSpace=wrap;rounded=0;fontSize=18;" parent="1" vertex="1">
          <mxGeometry x="837" y="801" width="137" height="24" as="geometry" />
        </mxCell>
        <mxCell id="-JCz-ZJJVY7_VpqyZrt4-113" value="ddr4_0" style="rounded=0;whiteSpace=wrap;html=1;" parent="1" vertex="1">
          <mxGeometry x="1104.5" y="620" width="120" height="60" as="geometry" />
        </mxCell>
        <mxCell id="-JCz-ZJJVY7_VpqyZrt4-114" value="ddr4_c1_inst" style="text;html=1;strokeColor=none;fillColor=none;align=center;verticalAlign=middle;whiteSpace=wrap;rounded=0;fontSize=18;" parent="1" vertex="1">
          <mxGeometry x="1096" y="687" width="137" height="24" as="geometry" />
        </mxCell>
        <mxCell id="-JCz-ZJJVY7_VpqyZrt4-115" value="OBUFTDS" style="rounded=0;whiteSpace=wrap;html=1;" parent="1" vertex="1">
          <mxGeometry x="1104.5" y="733" width="120" height="60" as="geometry" />
        </mxCell>
        <mxCell id="-JCz-ZJJVY7_VpqyZrt4-116" value="ddr4_c1_ck_obuftds_inst" style="text;html=1;strokeColor=none;fillColor=none;align=center;verticalAlign=middle;whiteSpace=wrap;rounded=0;fontSize=18;" parent="1" vertex="1">
          <mxGeometry x="1096" y="800" width="137" height="24" as="geometry" />
        </mxCell>
        <mxCell id="-JCz-ZJJVY7_VpqyZrt4-117" value="ddr4_0" style="rounded=0;whiteSpace=wrap;html=1;" parent="1" vertex="1">
          <mxGeometry x="845.5" y="870" width="120" height="60" as="geometry" />
        </mxCell>
        <mxCell id="-JCz-ZJJVY7_VpqyZrt4-118" value="ddr4_c2_inst" style="text;html=1;strokeColor=none;fillColor=none;align=center;verticalAlign=middle;whiteSpace=wrap;rounded=0;fontSize=18;" parent="1" vertex="1">
          <mxGeometry x="837" y="937" width="137" height="24" as="geometry" />
        </mxCell>
        <mxCell id="-JCz-ZJJVY7_VpqyZrt4-119" value="OBUFTDS" style="rounded=0;whiteSpace=wrap;html=1;" parent="1" vertex="1">
          <mxGeometry x="845.5" y="983" width="120" height="60" as="geometry" />
        </mxCell>
        <mxCell id="-JCz-ZJJVY7_VpqyZrt4-120" value="ddr4_c2_ck_obuftds_inst" style="text;html=1;strokeColor=none;fillColor=none;align=center;verticalAlign=middle;whiteSpace=wrap;rounded=0;fontSize=18;" parent="1" vertex="1">
          <mxGeometry x="837" y="1050" width="137" height="24" as="geometry" />
        </mxCell>
        <mxCell id="-JCz-ZJJVY7_VpqyZrt4-121" value="ddr4_0" style="rounded=0;whiteSpace=wrap;html=1;" parent="1" vertex="1">
          <mxGeometry x="1104.5" y="870" width="120" height="60" as="geometry" />
        </mxCell>
        <mxCell id="-JCz-ZJJVY7_VpqyZrt4-122" value="ddr4_c3_inst&amp;nbsp;" style="text;html=1;strokeColor=none;fillColor=none;align=center;verticalAlign=middle;whiteSpace=wrap;rounded=0;fontSize=18;" parent="1" vertex="1">
          <mxGeometry x="1096" y="937" width="137" height="24" as="geometry" />
        </mxCell>
        <mxCell id="-JCz-ZJJVY7_VpqyZrt4-123" value="OBUFTDS" style="rounded=0;whiteSpace=wrap;html=1;" parent="1" vertex="1">
          <mxGeometry x="1104.5" y="983" width="120" height="60" as="geometry" />
        </mxCell>
        <mxCell id="-JCz-ZJJVY7_VpqyZrt4-124" value="ddr4_c3_ck_obuftds_inst" style="text;html=1;strokeColor=none;fillColor=none;align=center;verticalAlign=middle;whiteSpace=wrap;rounded=0;fontSize=18;" parent="1" vertex="1">
          <mxGeometry x="1096" y="1050" width="137" height="24" as="geometry" />
        </mxCell>
        <mxCell id="-JCz-ZJJVY7_VpqyZrt4-125" value="fpga_core" style="rounded=0;whiteSpace=wrap;html=1;" parent="1" vertex="1">
          <mxGeometry x="1372.5" y="620" width="120" height="60" as="geometry" />
        </mxCell>
        <mxCell id="-JCz-ZJJVY7_VpqyZrt4-126" value="core_inst" style="text;html=1;strokeColor=none;fillColor=none;align=center;verticalAlign=middle;whiteSpace=wrap;rounded=0;fontSize=18;" parent="1" vertex="1">
          <mxGeometry x="1364" y="687" width="137" height="24" as="geometry" />
        </mxCell>
        <mxCell id="-JCz-ZJJVY7_VpqyZrt4-154" style="edgeStyle=orthogonalEdgeStyle;rounded=0;orthogonalLoop=1;jettySize=auto;html=1;entryX=0.5;entryY=0;entryDx=0;entryDy=0;" parent="1" source="-JCz-ZJJVY7_VpqyZrt4-133" target="-JCz-ZJJVY7_VpqyZrt4-151" edge="1">
          <mxGeometry relative="1" as="geometry">
            <Array as="points">
              <mxPoint x="-1240" y="138" />
              <mxPoint x="-706" y="138" />
            </Array>
          </mxGeometry>
        </mxCell>
        <mxCell id="-JCz-ZJJVY7_VpqyZrt4-133" value="&lt;font style=&quot;font-size: 20px;&quot;&gt;Flash Subsystem&lt;/font&gt;" style="rounded=0;whiteSpace=wrap;html=1;fontFamily=Times New Roman;fillColor=#f5f5f5;fontColor=#333333;strokeColor=#666666;shadow=1;" parent="1" vertex="1">
          <mxGeometry x="-1354" y="-20" width="228" height="90" as="geometry" />
        </mxCell>
        <mxCell id="-JCz-ZJJVY7_VpqyZrt4-153" style="edgeStyle=orthogonalEdgeStyle;rounded=0;orthogonalLoop=1;jettySize=auto;html=1;" parent="1" source="-JCz-ZJJVY7_VpqyZrt4-134" target="-JCz-ZJJVY7_VpqyZrt4-151" edge="1">
          <mxGeometry relative="1" as="geometry">
            <Array as="points">
              <mxPoint x="-973" y="138" />
              <mxPoint x="-706" y="138" />
            </Array>
          </mxGeometry>
        </mxCell>
        <mxCell id="-JCz-ZJJVY7_VpqyZrt4-134" value="&lt;font style=&quot;font-size: 20px;&quot;&gt;&lt;font style=&quot;font-size: 20px;&quot;&gt;CMS&amp;nbsp;&lt;/font&gt;Subsystem&lt;/font&gt;" style="rounded=0;whiteSpace=wrap;html=1;fontFamily=Times New Roman;fillColor=#f5f5f5;fontColor=#333333;strokeColor=#666666;shadow=1;" parent="1" vertex="1">
          <mxGeometry x="-1087" y="-20" width="228" height="90" as="geometry" />
        </mxCell>
        <mxCell id="-JCz-ZJJVY7_VpqyZrt4-152" style="edgeStyle=orthogonalEdgeStyle;rounded=0;orthogonalLoop=1;jettySize=auto;html=1;" parent="1" source="-JCz-ZJJVY7_VpqyZrt4-135" target="-JCz-ZJJVY7_VpqyZrt4-151" edge="1">
          <mxGeometry relative="1" as="geometry" />
        </mxCell>
        <mxCell id="-JCz-ZJJVY7_VpqyZrt4-135" value="&lt;font style=&quot;font-size: 20px;&quot;&gt;PCIe Subsystem&lt;/font&gt;" style="rounded=0;whiteSpace=wrap;html=1;fontFamily=Times New Roman;fillColor=#f5f5f5;fontColor=#333333;strokeColor=#666666;shadow=1;" parent="1" vertex="1">
          <mxGeometry x="-820" y="-20" width="228" height="90" as="geometry" />
        </mxCell>
        <mxCell id="-JCz-ZJJVY7_VpqyZrt4-155" style="edgeStyle=orthogonalEdgeStyle;rounded=0;orthogonalLoop=1;jettySize=auto;html=1;" parent="1" source="-JCz-ZJJVY7_VpqyZrt4-136" target="-JCz-ZJJVY7_VpqyZrt4-151" edge="1">
          <mxGeometry relative="1" as="geometry">
            <Array as="points">
              <mxPoint x="-433" y="138" />
              <mxPoint x="-706" y="138" />
            </Array>
          </mxGeometry>
        </mxCell>
        <mxCell id="-JCz-ZJJVY7_VpqyZrt4-136" value="&lt;font style=&quot;font-size: 20px;&quot;&gt;CMAC &amp;amp; GTY Subsystem&lt;/font&gt;" style="rounded=0;whiteSpace=wrap;html=1;fontFamily=Times New Roman;fillColor=#f5f5f5;fontColor=#333333;strokeColor=#666666;shadow=1;" parent="1" vertex="1">
          <mxGeometry x="-547" y="-20" width="228" height="90" as="geometry" />
        </mxCell>
        <mxCell id="-JCz-ZJJVY7_VpqyZrt4-156" style="edgeStyle=orthogonalEdgeStyle;rounded=0;orthogonalLoop=1;jettySize=auto;html=1;entryX=0.5;entryY=0;entryDx=0;entryDy=0;" parent="1" source="-JCz-ZJJVY7_VpqyZrt4-141" target="-JCz-ZJJVY7_VpqyZrt4-151" edge="1">
          <mxGeometry relative="1" as="geometry">
            <Array as="points">
              <mxPoint x="-160" y="138" />
              <mxPoint x="-706" y="138" />
            </Array>
          </mxGeometry>
        </mxCell>
        <mxCell id="-JCz-ZJJVY7_VpqyZrt4-141" value="&lt;font style=&quot;font-size: 20px;&quot;&gt;DDR Subsystem&lt;/font&gt;" style="rounded=0;whiteSpace=wrap;html=1;fontFamily=Times New Roman;fillColor=#f5f5f5;fontColor=#333333;strokeColor=#666666;shadow=1;" parent="1" vertex="1">
          <mxGeometry x="-274" y="-20" width="228" height="90" as="geometry" />
        </mxCell>
        <mxCell id="-JCz-ZJJVY7_VpqyZrt4-146" style="edgeStyle=orthogonalEdgeStyle;rounded=0;orthogonalLoop=1;jettySize=auto;html=1;entryX=0.5;entryY=0;entryDx=0;entryDy=0;" parent="1" source="-JCz-ZJJVY7_VpqyZrt4-143" target="-JCz-ZJJVY7_VpqyZrt4-135" edge="1">
          <mxGeometry relative="1" as="geometry" />
        </mxCell>
        <mxCell id="-JCz-ZJJVY7_VpqyZrt4-147" style="edgeStyle=orthogonalEdgeStyle;rounded=0;orthogonalLoop=1;jettySize=auto;html=1;" parent="1" source="-JCz-ZJJVY7_VpqyZrt4-143" target="-JCz-ZJJVY7_VpqyZrt4-136" edge="1">
          <mxGeometry relative="1" as="geometry">
            <Array as="points">
              <mxPoint x="-706" y="-64" />
              <mxPoint x="-433" y="-64" />
            </Array>
          </mxGeometry>
        </mxCell>
        <mxCell id="-JCz-ZJJVY7_VpqyZrt4-148" style="edgeStyle=orthogonalEdgeStyle;rounded=0;orthogonalLoop=1;jettySize=auto;html=1;" parent="1" source="-JCz-ZJJVY7_VpqyZrt4-143" target="-JCz-ZJJVY7_VpqyZrt4-141" edge="1">
          <mxGeometry relative="1" as="geometry">
            <Array as="points">
              <mxPoint x="-706" y="-64" />
              <mxPoint x="-160" y="-64" />
            </Array>
          </mxGeometry>
        </mxCell>
        <mxCell id="-JCz-ZJJVY7_VpqyZrt4-149" style="edgeStyle=orthogonalEdgeStyle;rounded=0;orthogonalLoop=1;jettySize=auto;html=1;entryX=0.5;entryY=0;entryDx=0;entryDy=0;" parent="1" source="-JCz-ZJJVY7_VpqyZrt4-143" target="-JCz-ZJJVY7_VpqyZrt4-134" edge="1">
          <mxGeometry relative="1" as="geometry">
            <Array as="points">
              <mxPoint x="-706" y="-64" />
              <mxPoint x="-973" y="-64" />
            </Array>
          </mxGeometry>
        </mxCell>
        <mxCell id="-JCz-ZJJVY7_VpqyZrt4-150" style="edgeStyle=orthogonalEdgeStyle;rounded=0;orthogonalLoop=1;jettySize=auto;html=1;entryX=0.5;entryY=0;entryDx=0;entryDy=0;" parent="1" source="-JCz-ZJJVY7_VpqyZrt4-143" target="-JCz-ZJJVY7_VpqyZrt4-133" edge="1">
          <mxGeometry relative="1" as="geometry">
            <Array as="points">
              <mxPoint x="-706" y="-64" />
              <mxPoint x="-1240" y="-64" />
            </Array>
          </mxGeometry>
        </mxCell>
        <mxCell id="-JCz-ZJJVY7_VpqyZrt4-157" style="edgeStyle=orthogonalEdgeStyle;rounded=0;orthogonalLoop=1;jettySize=auto;html=1;entryX=1;entryY=0.5;entryDx=0;entryDy=0;" parent="1" source="-JCz-ZJJVY7_VpqyZrt4-143" target="-JCz-ZJJVY7_VpqyZrt4-151" edge="1">
          <mxGeometry relative="1" as="geometry">
            <Array as="points">
              <mxPoint x="37" y="-132" />
              <mxPoint x="37" y="234" />
            </Array>
          </mxGeometry>
        </mxCell>
        <mxCell id="-JCz-ZJJVY7_VpqyZrt4-143" value="&lt;font style=&quot;font-size: 20px;&quot;&gt;Clock &amp;amp; Reset Subsystem&lt;/font&gt;" style="rounded=0;whiteSpace=wrap;html=1;fontFamily=Times New Roman;fillColor=#f5f5f5;fontColor=#333333;strokeColor=#666666;shadow=1;" parent="1" vertex="1">
          <mxGeometry x="-820" y="-177" width="228" height="90" as="geometry" />
        </mxCell>
        <mxCell id="-JCz-ZJJVY7_VpqyZrt4-151" value="&lt;span style=&quot;font-size: 20px;&quot;&gt;FPGA Core&lt;/span&gt;" style="rounded=0;whiteSpace=wrap;html=1;fontFamily=Times New Roman;fillColor=#f5f5f5;fontColor=#333333;strokeColor=#666666;shadow=1;" parent="1" vertex="1">
          <mxGeometry x="-820" y="188" width="228" height="90" as="geometry" />
        </mxCell>
        <mxCell id="-JCz-ZJJVY7_VpqyZrt4-161" style="edgeStyle=orthogonalEdgeStyle;rounded=0;orthogonalLoop=1;jettySize=auto;html=1;entryX=1;entryY=0.5;entryDx=0;entryDy=0;exitX=1;exitY=0.75;exitDx=0;exitDy=0;" parent="1" source="-JCz-ZJJVY7_VpqyZrt4-158" target="-JCz-ZJJVY7_VpqyZrt4-159" edge="1">
          <mxGeometry relative="1" as="geometry">
            <Array as="points">
              <mxPoint x="829" y="-460" />
              <mxPoint x="861" y="-460" />
              <mxPoint x="861" y="-397" />
            </Array>
          </mxGeometry>
        </mxCell>
        <mxCell id="-JCz-ZJJVY7_VpqyZrt4-173" style="edgeStyle=orthogonalEdgeStyle;rounded=0;orthogonalLoop=1;jettySize=auto;html=1;exitX=1;exitY=0.75;exitDx=0;exitDy=0;" parent="1" source="-JCz-ZJJVY7_VpqyZrt4-158" target="-JCz-ZJJVY7_VpqyZrt4-172" edge="1">
          <mxGeometry relative="1" as="geometry" />
        </mxCell>
        <mxCell id="-JCz-ZJJVY7_VpqyZrt4-174" style="edgeStyle=orthogonalEdgeStyle;rounded=0;orthogonalLoop=1;jettySize=auto;html=1;entryX=0;entryY=0.5;entryDx=0;entryDy=0;" parent="1" source="-JCz-ZJJVY7_VpqyZrt4-158" target="-JCz-ZJJVY7_VpqyZrt4-171" edge="1">
          <mxGeometry relative="1" as="geometry" />
        </mxCell>
        <mxCell id="-JCz-ZJJVY7_VpqyZrt4-175" style="edgeStyle=orthogonalEdgeStyle;rounded=0;orthogonalLoop=1;jettySize=auto;html=1;entryX=0;entryY=0.5;entryDx=0;entryDy=0;exitX=1;exitY=0.25;exitDx=0;exitDy=0;" parent="1" source="-JCz-ZJJVY7_VpqyZrt4-158" target="-JCz-ZJJVY7_VpqyZrt4-170" edge="1">
          <mxGeometry relative="1" as="geometry">
            <Array as="points">
              <mxPoint x="844" y="-498" />
              <mxPoint x="844" y="-577" />
            </Array>
          </mxGeometry>
        </mxCell>
        <mxCell id="-JCz-ZJJVY7_VpqyZrt4-158" value="MMCME4_BASE" style="rounded=0;whiteSpace=wrap;html=1;fillColor=#f5f5f5;fontColor=#333333;strokeColor=#666666;shadow=1;" parent="1" vertex="1">
          <mxGeometry x="709" y="-513" width="120" height="60" as="geometry" />
        </mxCell>
        <mxCell id="-JCz-ZJJVY7_VpqyZrt4-160" style="edgeStyle=orthogonalEdgeStyle;rounded=0;orthogonalLoop=1;jettySize=auto;html=1;entryX=0;entryY=0.75;entryDx=0;entryDy=0;" parent="1" source="-JCz-ZJJVY7_VpqyZrt4-159" target="-JCz-ZJJVY7_VpqyZrt4-158" edge="1">
          <mxGeometry relative="1" as="geometry">
            <Array as="points">
              <mxPoint x="677" y="-397" />
              <mxPoint x="677" y="-468" />
            </Array>
          </mxGeometry>
        </mxCell>
        <mxCell id="-JCz-ZJJVY7_VpqyZrt4-159" value="&lt;b&gt;&lt;font face=&quot;Courier New&quot;&gt;mmcm_clkfb&lt;/font&gt;&lt;/b&gt;&lt;br&gt;&lt;font color=&quot;#3333ff&quot; style=&quot;font-size: 10px;&quot;&gt;feedback clock pin to MMCM&lt;/font&gt;" style="rounded=1;whiteSpace=wrap;html=1;" parent="1" vertex="1">
          <mxGeometry x="697" y="-415" width="144" height="36" as="geometry" />
        </mxCell>
        <mxCell id="-JCz-ZJJVY7_VpqyZrt4-167" style="edgeStyle=orthogonalEdgeStyle;rounded=0;orthogonalLoop=1;jettySize=auto;html=1;entryX=0;entryY=0.25;entryDx=0;entryDy=0;" parent="1" source="-JCz-ZJJVY7_VpqyZrt4-166" target="-JCz-ZJJVY7_VpqyZrt4-158" edge="1">
          <mxGeometry relative="1" as="geometry" />
        </mxCell>
        <mxCell id="-JCz-ZJJVY7_VpqyZrt4-166" value="&lt;font face=&quot;Courier New&quot;&gt;&lt;b&gt;clk_161mhz_ref_int&lt;/b&gt;&lt;/font&gt;&lt;br&gt;&lt;font color=&quot;#3333ff&quot; style=&quot;font-size: 10px;&quot;&gt;Primary clock input&lt;/font&gt;" style="rounded=1;whiteSpace=wrap;html=1;" parent="1" vertex="1">
          <mxGeometry x="486" y="-516" width="144" height="36" as="geometry" />
        </mxCell>
        <mxCell id="-JCz-ZJJVY7_VpqyZrt4-168" value="&lt;font face=&quot;Courier New&quot; style=&quot;font-size: 12px;&quot;&gt;&lt;b&gt;clk_mmcm_inst&lt;/b&gt;&lt;/font&gt;" style="text;html=1;strokeColor=none;fillColor=none;align=center;verticalAlign=middle;whiteSpace=wrap;rounded=0;fontSize=18;" parent="1" vertex="1">
          <mxGeometry x="719.25" y="-453" width="99.5" height="13" as="geometry" />
        </mxCell>
        <mxCell id="-JCz-ZJJVY7_VpqyZrt4-177" style="edgeStyle=orthogonalEdgeStyle;rounded=0;orthogonalLoop=1;jettySize=auto;html=1;entryX=0;entryY=0.5;entryDx=0;entryDy=0;" parent="1" source="-JCz-ZJJVY7_VpqyZrt4-170" target="-JCz-ZJJVY7_VpqyZrt4-176" edge="1">
          <mxGeometry relative="1" as="geometry" />
        </mxCell>
        <mxCell id="-JCz-ZJJVY7_VpqyZrt4-170" value="&lt;font face=&quot;Courier New&quot;&gt;&lt;b&gt;clk_50mhz_mmcm_out&lt;/b&gt;&lt;/font&gt;&lt;br&gt;&lt;span style=&quot;font-size: 10px;&quot;&gt;&lt;font color=&quot;#3333ff&quot;&gt;CLKOUT0 output&lt;/font&gt;&lt;/span&gt;" style="rounded=1;whiteSpace=wrap;html=1;" parent="1" vertex="1">
          <mxGeometry x="901" y="-595" width="144" height="36" as="geometry" />
        </mxCell>
        <mxCell id="-JCz-ZJJVY7_VpqyZrt4-186" style="edgeStyle=orthogonalEdgeStyle;rounded=0;orthogonalLoop=1;jettySize=auto;html=1;" parent="1" source="-JCz-ZJJVY7_VpqyZrt4-171" target="-JCz-ZJJVY7_VpqyZrt4-183" edge="1">
          <mxGeometry relative="1" as="geometry" />
        </mxCell>
        <mxCell id="-JCz-ZJJVY7_VpqyZrt4-171" value="&lt;font face=&quot;Courier New&quot;&gt;&lt;b&gt;clk_125mhz_mmcm_out&lt;/b&gt;&lt;/font&gt;&lt;br&gt;&lt;span style=&quot;font-size: 10px;&quot;&gt;&lt;font color=&quot;#3333ff&quot;&gt;CLKOUT1 output&lt;/font&gt;&lt;/span&gt;" style="rounded=1;whiteSpace=wrap;html=1;" parent="1" vertex="1">
          <mxGeometry x="901" y="-540" width="144" height="36" as="geometry" />
        </mxCell>
        <mxCell id="-JCz-ZJJVY7_VpqyZrt4-172" value="&lt;font face=&quot;Courier New&quot;&gt;&lt;b&gt;mmcm_locked&lt;/b&gt;&lt;/font&gt;" style="rounded=1;whiteSpace=wrap;html=1;" parent="1" vertex="1">
          <mxGeometry x="901" y="-486" width="144" height="36" as="geometry" />
        </mxCell>
        <mxCell id="-JCz-ZJJVY7_VpqyZrt4-181" style="edgeStyle=orthogonalEdgeStyle;rounded=0;orthogonalLoop=1;jettySize=auto;html=1;entryX=0;entryY=0.5;entryDx=0;entryDy=0;" parent="1" source="-JCz-ZJJVY7_VpqyZrt4-176" target="-JCz-ZJJVY7_VpqyZrt4-180" edge="1">
          <mxGeometry relative="1" as="geometry" />
        </mxCell>
        <mxCell id="-JCz-ZJJVY7_VpqyZrt4-176" value="BUFG" style="rounded=0;whiteSpace=wrap;html=1;fillColor=#f5f5f5;fontColor=#333333;strokeColor=#666666;shadow=1;" parent="1" vertex="1">
          <mxGeometry x="1119.75" y="-589" width="44" height="24" as="geometry" />
        </mxCell>
        <mxCell id="-JCz-ZJJVY7_VpqyZrt4-179" value="&lt;font size=&quot;1&quot; face=&quot;Courier New&quot;&gt;&lt;b style=&quot;font-size: 12px;&quot;&gt;clk_50mhz_bufg_inst&lt;/b&gt;&lt;/font&gt;" style="text;html=1;strokeColor=none;fillColor=none;align=center;verticalAlign=middle;whiteSpace=wrap;rounded=0;fontSize=18;" parent="1" vertex="1">
          <mxGeometry x="1092" y="-562" width="99.5" height="13" as="geometry" />
        </mxCell>
        <mxCell id="-JCz-ZJJVY7_VpqyZrt4-203" style="edgeStyle=orthogonalEdgeStyle;rounded=0;orthogonalLoop=1;jettySize=auto;html=1;entryX=0;entryY=0.5;entryDx=0;entryDy=0;" parent="1" source="-JCz-ZJJVY7_VpqyZrt4-180" target="-JCz-ZJJVY7_VpqyZrt4-202" edge="1">
          <mxGeometry relative="1" as="geometry" />
        </mxCell>
        <mxCell id="-JCz-ZJJVY7_VpqyZrt4-208" style="edgeStyle=orthogonalEdgeStyle;rounded=0;orthogonalLoop=1;jettySize=auto;html=1;entryX=0;entryY=0.5;entryDx=0;entryDy=0;" parent="1" source="-JCz-ZJJVY7_VpqyZrt4-180" target="-JCz-ZJJVY7_VpqyZrt4-206" edge="1">
          <mxGeometry relative="1" as="geometry" />
        </mxCell>
        <mxCell id="-JCz-ZJJVY7_VpqyZrt4-180" value="&lt;font face=&quot;Courier New&quot;&gt;&lt;b&gt;clk_50mhz_int&lt;/b&gt;&lt;/font&gt;" style="rounded=1;whiteSpace=wrap;html=1;" parent="1" vertex="1">
          <mxGeometry x="1261" y="-586" width="113" height="18" as="geometry" />
        </mxCell>
        <mxCell id="-JCz-ZJJVY7_VpqyZrt4-182" style="edgeStyle=orthogonalEdgeStyle;rounded=0;orthogonalLoop=1;jettySize=auto;html=1;entryX=0;entryY=0.5;entryDx=0;entryDy=0;" parent="1" source="-JCz-ZJJVY7_VpqyZrt4-183" target="-JCz-ZJJVY7_VpqyZrt4-185" edge="1">
          <mxGeometry relative="1" as="geometry" />
        </mxCell>
        <mxCell id="-JCz-ZJJVY7_VpqyZrt4-183" value="BUFG" style="rounded=0;whiteSpace=wrap;html=1;fillColor=#f5f5f5;fontColor=#333333;strokeColor=#666666;shadow=1;" parent="1" vertex="1">
          <mxGeometry x="1119.75" y="-534" width="44" height="24" as="geometry" />
        </mxCell>
        <mxCell id="-JCz-ZJJVY7_VpqyZrt4-184" value="&lt;font size=&quot;1&quot; face=&quot;Courier New&quot;&gt;&lt;b style=&quot;font-size: 12px;&quot;&gt;clk_125mhz_bufg_inst&lt;/b&gt;&lt;/font&gt;" style="text;html=1;strokeColor=none;fillColor=none;align=center;verticalAlign=middle;whiteSpace=wrap;rounded=0;fontSize=18;" parent="1" vertex="1">
          <mxGeometry x="1092" y="-507" width="99.5" height="13" as="geometry" />
        </mxCell>
        <mxCell id="-JCz-ZJJVY7_VpqyZrt4-297" style="edgeStyle=orthogonalEdgeStyle;rounded=0;orthogonalLoop=1;jettySize=auto;html=1;entryX=0;entryY=0.25;entryDx=0;entryDy=0;" parent="1" source="-JCz-ZJJVY7_VpqyZrt4-185" target="-JCz-ZJJVY7_VpqyZrt4-281" edge="1">
          <mxGeometry relative="1" as="geometry">
            <mxPoint x="1696" y="-399" as="targetPoint" />
            <Array as="points">
              <mxPoint x="1317" y="-375" />
            </Array>
          </mxGeometry>
        </mxCell>
        <mxCell id="-JCz-ZJJVY7_VpqyZrt4-307" style="edgeStyle=orthogonalEdgeStyle;rounded=0;orthogonalLoop=1;jettySize=auto;html=1;entryX=0;entryY=0.25;entryDx=0;entryDy=0;exitX=0.5;exitY=1;exitDx=0;exitDy=0;" parent="1" source="-JCz-ZJJVY7_VpqyZrt4-185" target="-JCz-ZJJVY7_VpqyZrt4-330" edge="1">
          <mxGeometry relative="1" as="geometry">
            <mxPoint x="1301" y="-431" as="sourcePoint" />
            <mxPoint x="1800.9899999999998" y="-224.5" as="targetPoint" />
            <Array as="points">
              <mxPoint x="1317" y="-375" />
              <mxPoint x="1776" y="-375" />
              <mxPoint x="1776" y="-232" />
            </Array>
          </mxGeometry>
        </mxCell>
        <mxCell id="-JCz-ZJJVY7_VpqyZrt4-344" style="edgeStyle=orthogonalEdgeStyle;rounded=0;orthogonalLoop=1;jettySize=auto;html=1;entryX=0;entryY=0.5;entryDx=0;entryDy=0;" parent="1" source="-JCz-ZJJVY7_VpqyZrt4-185" target="-JCz-ZJJVY7_VpqyZrt4-343" edge="1">
          <mxGeometry relative="1" as="geometry" />
        </mxCell>
        <mxCell id="-JCz-ZJJVY7_VpqyZrt4-185" value="&lt;font face=&quot;Courier New&quot;&gt;&lt;b&gt;clk_125mhz_int&lt;/b&gt;&lt;/font&gt;" style="rounded=1;whiteSpace=wrap;html=1;" parent="1" vertex="1">
          <mxGeometry x="1261" y="-456" width="113" height="18" as="geometry" />
        </mxCell>
        <mxCell id="-JCz-ZJJVY7_VpqyZrt4-190" style="edgeStyle=orthogonalEdgeStyle;rounded=0;orthogonalLoop=1;jettySize=auto;html=1;" parent="1" source="-JCz-ZJJVY7_VpqyZrt4-187" target="-JCz-ZJJVY7_VpqyZrt4-189" edge="1">
          <mxGeometry relative="1" as="geometry" />
        </mxCell>
        <mxCell id="-JCz-ZJJVY7_VpqyZrt4-187" value="STARTUPE3" style="rounded=0;whiteSpace=wrap;html=1;fillColor=#f5f5f5;fontColor=#333333;strokeColor=#666666;shadow=1;" parent="1" vertex="1">
          <mxGeometry x="453" y="-919" width="120" height="60" as="geometry" />
        </mxCell>
        <mxCell id="-JCz-ZJJVY7_VpqyZrt4-188" value="&lt;font size=&quot;1&quot; face=&quot;Courier New&quot;&gt;&lt;b style=&quot;font-size: 12px;&quot;&gt;startupe3_inst&lt;/b&gt;&lt;/font&gt;" style="text;html=1;strokeColor=none;fillColor=none;align=center;verticalAlign=middle;whiteSpace=wrap;rounded=0;fontSize=18;" parent="1" vertex="1">
          <mxGeometry x="463.25" y="-859" width="99.5" height="13" as="geometry" />
        </mxCell>
        <mxCell id="-JCz-ZJJVY7_VpqyZrt4-195" style="edgeStyle=orthogonalEdgeStyle;rounded=0;orthogonalLoop=1;jettySize=auto;html=1;" parent="1" source="-JCz-ZJJVY7_VpqyZrt4-189" target="-JCz-ZJJVY7_VpqyZrt4-192" edge="1">
          <mxGeometry relative="1" as="geometry" />
        </mxCell>
        <mxCell id="-JCz-ZJJVY7_VpqyZrt4-189" value="&lt;font face=&quot;Courier New&quot;&gt;&lt;b&gt;cfgmclk&lt;/b&gt;&lt;/font&gt;&lt;br&gt;&lt;font color=&quot;#3333ff&quot; style=&quot;font-size: 10px;&quot;&gt;Configuration main clock output&lt;/font&gt;" style="rounded=1;whiteSpace=wrap;html=1;" parent="1" vertex="1">
          <mxGeometry x="640" y="-907" width="164" height="36" as="geometry" />
        </mxCell>
        <mxCell id="-JCz-ZJJVY7_VpqyZrt4-191" style="edgeStyle=orthogonalEdgeStyle;rounded=0;orthogonalLoop=1;jettySize=auto;html=1;entryX=0;entryY=0.5;entryDx=0;entryDy=0;" parent="1" source="-JCz-ZJJVY7_VpqyZrt4-192" target="-JCz-ZJJVY7_VpqyZrt4-194" edge="1">
          <mxGeometry relative="1" as="geometry" />
        </mxCell>
        <mxCell id="-JCz-ZJJVY7_VpqyZrt4-192" value="BUFG" style="rounded=0;whiteSpace=wrap;html=1;fillColor=#f5f5f5;fontColor=#333333;strokeColor=#666666;shadow=1;" parent="1" vertex="1">
          <mxGeometry x="856.75" y="-901" width="44" height="24" as="geometry" />
        </mxCell>
        <mxCell id="-JCz-ZJJVY7_VpqyZrt4-193" value="&lt;font size=&quot;1&quot; face=&quot;Courier New&quot;&gt;&lt;b style=&quot;font-size: 12px;&quot;&gt;cfgmclk_bufg_inst&lt;/b&gt;&lt;/font&gt;" style="text;html=1;strokeColor=none;fillColor=none;align=center;verticalAlign=middle;whiteSpace=wrap;rounded=0;fontSize=18;" parent="1" vertex="1">
          <mxGeometry x="829" y="-874" width="99.5" height="13" as="geometry" />
        </mxCell>
        <mxCell id="-JCz-ZJJVY7_VpqyZrt4-201" style="edgeStyle=orthogonalEdgeStyle;rounded=0;orthogonalLoop=1;jettySize=auto;html=1;" parent="1" source="-JCz-ZJJVY7_VpqyZrt4-194" target="-JCz-ZJJVY7_VpqyZrt4-198" edge="1">
          <mxGeometry relative="1" as="geometry" />
        </mxCell>
        <mxCell id="-JCz-ZJJVY7_VpqyZrt4-194" value="&lt;font face=&quot;Courier New&quot;&gt;&lt;b&gt;cfgmclk_int&lt;/b&gt;&lt;/font&gt;" style="rounded=1;whiteSpace=wrap;html=1;" parent="1" vertex="1">
          <mxGeometry x="1001" y="-898" width="113" height="18" as="geometry" />
        </mxCell>
        <mxCell id="-JCz-ZJJVY7_VpqyZrt4-198" value="ICAPE3" style="rounded=0;whiteSpace=wrap;html=1;fillColor=#f5f5f5;fontColor=#333333;strokeColor=#666666;shadow=1;" parent="1" vertex="1">
          <mxGeometry x="1163" y="-919" width="120" height="60" as="geometry" />
        </mxCell>
        <mxCell id="-JCz-ZJJVY7_VpqyZrt4-199" value="&lt;font style=&quot;font-size: 12px;&quot; face=&quot;Courier New&quot;&gt;&lt;b&gt;icape3_inst&lt;/b&gt;&lt;/font&gt;" style="text;html=1;strokeColor=none;fillColor=none;align=center;verticalAlign=middle;whiteSpace=wrap;rounded=0;fontSize=18;" parent="1" vertex="1">
          <mxGeometry x="1176" y="-859" width="99.5" height="13" as="geometry" />
        </mxCell>
        <mxCell id="-JCz-ZJJVY7_VpqyZrt4-202" value="axil_cdc" style="rounded=0;whiteSpace=wrap;html=1;fillColor=#f5f5f5;fontColor=#333333;strokeColor=#666666;shadow=1;" parent="1" vertex="1">
          <mxGeometry x="1561" y="-626" width="120" height="33" as="geometry" />
        </mxCell>
        <mxCell id="-JCz-ZJJVY7_VpqyZrt4-204" value="&lt;font size=&quot;1&quot; face=&quot;Courier New&quot;&gt;&lt;b style=&quot;font-size: 12px;&quot;&gt;cms_axil_cdc_inst&lt;/b&gt;&lt;/font&gt;" style="text;html=1;strokeColor=none;fillColor=none;align=center;verticalAlign=middle;whiteSpace=wrap;rounded=0;fontSize=18;" parent="1" vertex="1">
          <mxGeometry x="1574" y="-590" width="99.5" height="13" as="geometry" />
        </mxCell>
        <mxCell id="-JCz-ZJJVY7_VpqyZrt4-206" value="cms_wrapper" style="rounded=0;whiteSpace=wrap;html=1;fillColor=#f5f5f5;fontColor=#333333;strokeColor=#666666;shadow=1;" parent="1" vertex="1">
          <mxGeometry x="1561" y="-557" width="120" height="33" as="geometry" />
        </mxCell>
        <mxCell id="-JCz-ZJJVY7_VpqyZrt4-207" value="&lt;font size=&quot;1&quot; face=&quot;Courier New&quot;&gt;&lt;b style=&quot;font-size: 12px;&quot;&gt;cms_inst&lt;/b&gt;&lt;/font&gt;" style="text;html=1;strokeColor=none;fillColor=none;align=center;verticalAlign=middle;whiteSpace=wrap;rounded=0;fontSize=18;" parent="1" vertex="1">
          <mxGeometry x="1574" y="-522" width="99.5" height="13" as="geometry" />
        </mxCell>
        <mxCell id="-JCz-ZJJVY7_VpqyZrt4-213" style="edgeStyle=orthogonalEdgeStyle;rounded=0;orthogonalLoop=1;jettySize=auto;html=1;entryX=0;entryY=0.25;entryDx=0;entryDy=0;" parent="1" source="-JCz-ZJJVY7_VpqyZrt4-209" target="-JCz-ZJJVY7_VpqyZrt4-211" edge="1">
          <mxGeometry relative="1" as="geometry" />
        </mxCell>
        <mxCell id="-JCz-ZJJVY7_VpqyZrt4-209" value="&lt;font face=&quot;Courier New&quot;&gt;&lt;b&gt;pcie_refclk_p&lt;br&gt;&lt;/b&gt;&lt;/font&gt;&lt;font style=&quot;font-size: 10px;&quot; color=&quot;#3333ff&quot;&gt;differential pcie refclk (p)&lt;/font&gt;" style="rounded=1;whiteSpace=wrap;html=1;" parent="1" vertex="1">
          <mxGeometry x="486" y="-773" width="144" height="36" as="geometry" />
        </mxCell>
        <mxCell id="-JCz-ZJJVY7_VpqyZrt4-214" style="edgeStyle=orthogonalEdgeStyle;rounded=0;orthogonalLoop=1;jettySize=auto;html=1;entryX=0;entryY=0.75;entryDx=0;entryDy=0;" parent="1" source="-JCz-ZJJVY7_VpqyZrt4-210" target="-JCz-ZJJVY7_VpqyZrt4-211" edge="1">
          <mxGeometry relative="1" as="geometry" />
        </mxCell>
        <mxCell id="-JCz-ZJJVY7_VpqyZrt4-210" value="&lt;font face=&quot;Courier New&quot;&gt;&lt;b&gt;pcie_refclk_n&lt;br&gt;&lt;/b&gt;&lt;/font&gt;&lt;font style=&quot;font-size: 10px;&quot; color=&quot;#3333ff&quot;&gt;differential pcie refclk (n)&lt;/font&gt;" style="rounded=1;whiteSpace=wrap;html=1;" parent="1" vertex="1">
          <mxGeometry x="486" y="-722" width="144" height="36" as="geometry" />
        </mxCell>
        <mxCell id="-JCz-ZJJVY7_VpqyZrt4-216" style="edgeStyle=orthogonalEdgeStyle;rounded=0;orthogonalLoop=1;jettySize=auto;html=1;entryX=0;entryY=0.5;entryDx=0;entryDy=0;exitX=1;exitY=0.25;exitDx=0;exitDy=0;" parent="1" source="-JCz-ZJJVY7_VpqyZrt4-211" target="-JCz-ZJJVY7_VpqyZrt4-215" edge="1">
          <mxGeometry relative="1" as="geometry" />
        </mxCell>
        <mxCell id="-JCz-ZJJVY7_VpqyZrt4-218" style="edgeStyle=orthogonalEdgeStyle;rounded=0;orthogonalLoop=1;jettySize=auto;html=1;entryX=0;entryY=0.5;entryDx=0;entryDy=0;exitX=1;exitY=0.75;exitDx=0;exitDy=0;" parent="1" source="-JCz-ZJJVY7_VpqyZrt4-211" target="-JCz-ZJJVY7_VpqyZrt4-217" edge="1">
          <mxGeometry relative="1" as="geometry" />
        </mxCell>
        <mxCell id="-JCz-ZJJVY7_VpqyZrt4-211" value="IBUFDS_GTE4" style="rounded=0;whiteSpace=wrap;html=1;fillColor=#f5f5f5;fontColor=#333333;strokeColor=#666666;shadow=1;" parent="1" vertex="1">
          <mxGeometry x="893.87" y="-760" width="120" height="60" as="geometry" />
        </mxCell>
        <mxCell id="-JCz-ZJJVY7_VpqyZrt4-212" value="&lt;font size=&quot;1&quot; face=&quot;Courier New&quot;&gt;&lt;b style=&quot;font-size: 12px;&quot;&gt;ibufds_gte4_pcie_mgt_refclk_inst&lt;/b&gt;&lt;/font&gt;" style="text;html=1;strokeColor=none;fillColor=none;align=center;verticalAlign=middle;whiteSpace=wrap;rounded=0;fontSize=18;" parent="1" vertex="1">
          <mxGeometry x="836" y="-694.5" width="235.75" height="13" as="geometry" />
        </mxCell>
        <mxCell id="-JCz-ZJJVY7_VpqyZrt4-221" style="edgeStyle=orthogonalEdgeStyle;rounded=0;orthogonalLoop=1;jettySize=auto;html=1;entryX=0;entryY=0.25;entryDx=0;entryDy=0;" parent="1" source="-JCz-ZJJVY7_VpqyZrt4-215" target="-JCz-ZJJVY7_VpqyZrt4-219" edge="1">
          <mxGeometry relative="1" as="geometry" />
        </mxCell>
        <mxCell id="-JCz-ZJJVY7_VpqyZrt4-215" value="&lt;font face=&quot;Courier New&quot;&gt;&lt;b&gt;pcie_sys_clk_gt&lt;/b&gt;&lt;/font&gt;" style="rounded=1;whiteSpace=wrap;html=1;" parent="1" vertex="1">
          <mxGeometry x="1257" y="-760" width="113" height="18" as="geometry" />
        </mxCell>
        <mxCell id="-JCz-ZJJVY7_VpqyZrt4-222" style="edgeStyle=orthogonalEdgeStyle;rounded=0;orthogonalLoop=1;jettySize=auto;html=1;entryX=0;entryY=0.75;entryDx=0;entryDy=0;" parent="1" source="-JCz-ZJJVY7_VpqyZrt4-217" target="-JCz-ZJJVY7_VpqyZrt4-219" edge="1">
          <mxGeometry relative="1" as="geometry" />
        </mxCell>
        <mxCell id="-JCz-ZJJVY7_VpqyZrt4-217" value="&lt;font face=&quot;Courier New&quot;&gt;&lt;b&gt;pcie_sys_clk&lt;/b&gt;&lt;/font&gt;" style="rounded=1;whiteSpace=wrap;html=1;" parent="1" vertex="1">
          <mxGeometry x="1257" y="-708" width="113" height="18" as="geometry" />
        </mxCell>
        <mxCell id="-JCz-ZJJVY7_VpqyZrt4-224" style="edgeStyle=orthogonalEdgeStyle;rounded=0;orthogonalLoop=1;jettySize=auto;html=1;entryX=0;entryY=0.5;entryDx=0;entryDy=0;" parent="1" source="-JCz-ZJJVY7_VpqyZrt4-219" target="-JCz-ZJJVY7_VpqyZrt4-223" edge="1">
          <mxGeometry relative="1" as="geometry" />
        </mxCell>
        <mxCell id="-JCz-ZJJVY7_VpqyZrt4-219" value="pcie4_uscale_plus_0" style="rounded=0;whiteSpace=wrap;html=1;fillColor=#f5f5f5;fontColor=#333333;strokeColor=#666666;shadow=1;" parent="1" vertex="1">
          <mxGeometry x="1419" y="-754.5" width="120" height="60" as="geometry" />
        </mxCell>
        <mxCell id="-JCz-ZJJVY7_VpqyZrt4-220" value="&lt;font size=&quot;1&quot; face=&quot;Courier New&quot;&gt;&lt;b style=&quot;font-size: 12px;&quot;&gt;pcie4_uscale_plus_inst&lt;/b&gt;&lt;/font&gt;" style="text;html=1;strokeColor=none;fillColor=none;align=center;verticalAlign=middle;whiteSpace=wrap;rounded=0;fontSize=18;" parent="1" vertex="1">
          <mxGeometry x="1432" y="-697" width="99.5" height="21" as="geometry" />
        </mxCell>
        <mxCell id="-JCz-ZJJVY7_VpqyZrt4-228" style="edgeStyle=orthogonalEdgeStyle;rounded=0;orthogonalLoop=1;jettySize=auto;html=1;entryX=0;entryY=0.5;entryDx=0;entryDy=0;" parent="1" source="-JCz-ZJJVY7_VpqyZrt4-223" target="-JCz-ZJJVY7_VpqyZrt4-227" edge="1">
          <mxGeometry relative="1" as="geometry" />
        </mxCell>
        <mxCell id="-JCz-ZJJVY7_VpqyZrt4-232" style="edgeStyle=orthogonalEdgeStyle;rounded=0;orthogonalLoop=1;jettySize=auto;html=1;entryX=0;entryY=0.5;entryDx=0;entryDy=0;" parent="1" source="-JCz-ZJJVY7_VpqyZrt4-223" target="-JCz-ZJJVY7_VpqyZrt4-230" edge="1">
          <mxGeometry relative="1" as="geometry" />
        </mxCell>
        <mxCell id="-JCz-ZJJVY7_VpqyZrt4-238" style="edgeStyle=orthogonalEdgeStyle;rounded=0;orthogonalLoop=1;jettySize=auto;html=1;entryX=0;entryY=0.5;entryDx=0;entryDy=0;" parent="1" source="-JCz-ZJJVY7_VpqyZrt4-223" target="-JCz-ZJJVY7_VpqyZrt4-233" edge="1">
          <mxGeometry relative="1" as="geometry" />
        </mxCell>
        <mxCell id="-JCz-ZJJVY7_VpqyZrt4-242" style="edgeStyle=orthogonalEdgeStyle;rounded=0;orthogonalLoop=1;jettySize=auto;html=1;entryX=0;entryY=0.25;entryDx=0;entryDy=0;" parent="1" source="-JCz-ZJJVY7_VpqyZrt4-223" target="-JCz-ZJJVY7_VpqyZrt4-240" edge="1">
          <mxGeometry relative="1" as="geometry">
            <Array as="points">
              <mxPoint x="1755" y="-724" />
              <mxPoint x="1755" y="-510" />
            </Array>
          </mxGeometry>
        </mxCell>
        <mxCell id="-JCz-ZJJVY7_VpqyZrt4-223" value="&lt;font face=&quot;Courier New&quot;&gt;&lt;b&gt;pcie_user_clk&lt;/b&gt;&lt;/font&gt;" style="rounded=1;whiteSpace=wrap;html=1;" parent="1" vertex="1">
          <mxGeometry x="1569.5" y="-733.5" width="113" height="18" as="geometry" />
        </mxCell>
        <mxCell id="-JCz-ZJJVY7_VpqyZrt4-227" value="sync_signal" style="rounded=0;whiteSpace=wrap;html=1;fillColor=#f5f5f5;fontColor=#333333;strokeColor=#666666;shadow=1;" parent="1" vertex="1">
          <mxGeometry x="1828" y="-698.5" width="78" height="60" as="geometry" />
        </mxCell>
        <mxCell id="-JCz-ZJJVY7_VpqyZrt4-229" value="&lt;font face=&quot;Courier New&quot; style=&quot;font-size: 12px;&quot;&gt;&lt;b style=&quot;font-size: 12px;&quot;&gt;sync_signal_inst&lt;/b&gt;&lt;/font&gt;" style="text;html=1;strokeColor=none;fillColor=none;align=center;verticalAlign=middle;whiteSpace=wrap;rounded=0;fontSize=12;" parent="1" vertex="1">
          <mxGeometry x="1830.75" y="-634" width="99.5" height="21" as="geometry" />
        </mxCell>
        <mxCell id="-JCz-ZJJVY7_VpqyZrt4-230" value="debounce_switch" style="rounded=0;whiteSpace=wrap;html=1;fillColor=#f5f5f5;fontColor=#333333;strokeColor=#666666;shadow=1;" parent="1" vertex="1">
          <mxGeometry x="1828" y="-600" width="117.25" height="60" as="geometry" />
        </mxCell>
        <mxCell id="-JCz-ZJJVY7_VpqyZrt4-231" value="&lt;font face=&quot;Courier New&quot;&gt;&lt;b&gt;debounce_switch_inst&lt;/b&gt;&lt;/font&gt;" style="text;html=1;strokeColor=none;fillColor=none;align=center;verticalAlign=middle;whiteSpace=wrap;rounded=0;fontSize=12;" parent="1" vertex="1">
          <mxGeometry x="1849.25" y="-540" width="99.5" height="21" as="geometry" />
        </mxCell>
        <mxCell id="-JCz-ZJJVY7_VpqyZrt4-233" value="sync_signal" style="rounded=0;whiteSpace=wrap;html=1;fillColor=#f5f5f5;fontColor=#333333;strokeColor=#666666;shadow=1;" parent="1" vertex="1">
          <mxGeometry x="1828" y="-800" width="78" height="60" as="geometry" />
        </mxCell>
        <mxCell id="-JCz-ZJJVY7_VpqyZrt4-234" value="&lt;font face=&quot;Courier New&quot;&gt;&lt;b&gt;flash_sync_signal_inst&lt;/b&gt;&lt;/font&gt;" style="text;html=1;strokeColor=none;fillColor=none;align=center;verticalAlign=middle;whiteSpace=wrap;rounded=0;fontSize=12;" parent="1" vertex="1">
          <mxGeometry x="1857.25" y="-737.5" width="99.5" height="21" as="geometry" />
        </mxCell>
        <mxCell id="-JCz-ZJJVY7_VpqyZrt4-235" value="&lt;font color=&quot;#3333ff&quot; size=&quot;1&quot; style=&quot;&quot;&gt;&lt;b style=&quot;font-size: 20px;&quot;&gt;&lt;i&gt;250MHz&lt;/i&gt;&lt;/b&gt;&lt;/font&gt;" style="text;html=1;strokeColor=none;fillColor=none;align=center;verticalAlign=middle;whiteSpace=wrap;rounded=0;" parent="1" vertex="1">
          <mxGeometry x="1592" y="-767" width="60" height="30" as="geometry" />
        </mxCell>
        <mxCell id="-JCz-ZJJVY7_VpqyZrt4-236" value="&lt;font color=&quot;#3333ff&quot; size=&quot;1&quot; style=&quot;&quot;&gt;&lt;b style=&quot;font-size: 20px;&quot;&gt;&lt;i&gt;50MHz&lt;/i&gt;&lt;/b&gt;&lt;/font&gt;" style="text;html=1;strokeColor=none;fillColor=none;align=center;verticalAlign=middle;whiteSpace=wrap;rounded=0;" parent="1" vertex="1">
          <mxGeometry x="1287.5" y="-569" width="60" height="30" as="geometry" />
        </mxCell>
        <mxCell id="-JCz-ZJJVY7_VpqyZrt4-237" value="&lt;font color=&quot;#3333ff&quot; size=&quot;1&quot; style=&quot;&quot;&gt;&lt;b style=&quot;font-size: 20px;&quot;&gt;&lt;i&gt;125MHz&lt;/i&gt;&lt;/b&gt;&lt;/font&gt;" style="text;html=1;strokeColor=none;fillColor=none;align=center;verticalAlign=middle;whiteSpace=wrap;rounded=0;" parent="1" vertex="1">
          <mxGeometry x="1287.5" y="-486" width="60" height="30" as="geometry" />
        </mxCell>
        <mxCell id="-JCz-ZJJVY7_VpqyZrt4-310" style="edgeStyle=orthogonalEdgeStyle;rounded=0;orthogonalLoop=1;jettySize=auto;html=1;entryX=1;entryY=0.5;entryDx=0;entryDy=0;exitX=1;exitY=0.5;exitDx=0;exitDy=0;" parent="1" source="-JCz-ZJJVY7_VpqyZrt4-240" edge="1">
          <mxGeometry relative="1" as="geometry">
            <mxPoint x="2095.5" y="-225" as="targetPoint" />
            <Array as="points">
              <mxPoint x="2068" y="-487" />
              <mxPoint x="2167" y="-487" />
              <mxPoint x="2167" y="-225" />
            </Array>
          </mxGeometry>
        </mxCell>
        <mxCell id="-JCz-ZJJVY7_VpqyZrt4-319" style="edgeStyle=orthogonalEdgeStyle;rounded=0;orthogonalLoop=1;jettySize=auto;html=1;entryX=1;entryY=0.5;entryDx=0;entryDy=0;exitX=1;exitY=0.5;exitDx=0;exitDy=0;" parent="1" source="-JCz-ZJJVY7_VpqyZrt4-240" edge="1">
          <mxGeometry relative="1" as="geometry">
            <mxPoint x="2095.5" y="-195" as="targetPoint" />
            <Array as="points">
              <mxPoint x="2068" y="-491" />
              <mxPoint x="2170" y="-491" />
              <mxPoint x="2170" y="-195" />
            </Array>
          </mxGeometry>
        </mxCell>
        <mxCell id="-JCz-ZJJVY7_VpqyZrt4-324" style="edgeStyle=orthogonalEdgeStyle;rounded=0;orthogonalLoop=1;jettySize=auto;html=1;entryX=1;entryY=0.5;entryDx=0;entryDy=0;exitX=1;exitY=0.75;exitDx=0;exitDy=0;" parent="1" source="-JCz-ZJJVY7_VpqyZrt4-240" target="-JCz-ZJJVY7_VpqyZrt4-320" edge="1">
          <mxGeometry relative="1" as="geometry">
            <Array as="points">
              <mxPoint x="2068" y="-472" />
              <mxPoint x="2116" y="-472" />
              <mxPoint x="2116" y="-375" />
            </Array>
          </mxGeometry>
        </mxCell>
        <mxCell id="-JCz-ZJJVY7_VpqyZrt4-325" style="edgeStyle=orthogonalEdgeStyle;rounded=0;orthogonalLoop=1;jettySize=auto;html=1;entryX=1;entryY=0.5;entryDx=0;entryDy=0;exitX=1;exitY=0.75;exitDx=0;exitDy=0;" parent="1" source="-JCz-ZJJVY7_VpqyZrt4-240" target="-JCz-ZJJVY7_VpqyZrt4-321" edge="1">
          <mxGeometry relative="1" as="geometry">
            <Array as="points">
              <mxPoint x="2068" y="-475" />
              <mxPoint x="2119" y="-475" />
              <mxPoint x="2119" y="-349" />
            </Array>
          </mxGeometry>
        </mxCell>
        <mxCell id="-JCz-ZJJVY7_VpqyZrt4-329" style="edgeStyle=orthogonalEdgeStyle;rounded=0;orthogonalLoop=1;jettySize=auto;html=1;entryX=1;entryY=0.5;entryDx=0;entryDy=0;" parent="1" source="-JCz-ZJJVY7_VpqyZrt4-240" target="-JCz-ZJJVY7_VpqyZrt4-326" edge="1">
          <mxGeometry relative="1" as="geometry">
            <Array as="points">
              <mxPoint x="2122" y="-478" />
              <mxPoint x="2122" y="-324" />
            </Array>
          </mxGeometry>
        </mxCell>
        <mxCell id="-JCz-ZJJVY7_VpqyZrt4-340" style="edgeStyle=orthogonalEdgeStyle;rounded=0;orthogonalLoop=1;jettySize=auto;html=1;entryX=1;entryY=0.5;entryDx=0;entryDy=0;" parent="1" source="-JCz-ZJJVY7_VpqyZrt4-240" target="-JCz-ZJJVY7_VpqyZrt4-337" edge="1">
          <mxGeometry relative="1" as="geometry">
            <Array as="points">
              <mxPoint x="2173" y="-495" />
              <mxPoint x="2173" y="-181" />
            </Array>
          </mxGeometry>
        </mxCell>
        <mxCell id="-JCz-ZJJVY7_VpqyZrt4-240" value="fpga_core" style="rounded=0;whiteSpace=wrap;html=1;fillColor=#f5f5f5;fontColor=#333333;strokeColor=#666666;shadow=1;" parent="1" vertex="1">
          <mxGeometry x="1993" y="-525" width="75" height="60" as="geometry" />
        </mxCell>
        <mxCell id="-JCz-ZJJVY7_VpqyZrt4-241" value="&lt;font face=&quot;Courier New&quot;&gt;&lt;b&gt;core_inst&lt;/b&gt;&lt;/font&gt;" style="text;html=1;strokeColor=none;fillColor=none;align=center;verticalAlign=middle;whiteSpace=wrap;rounded=0;fontSize=12;" parent="1" vertex="1">
          <mxGeometry x="1977" y="-463" width="99.5" height="21" as="geometry" />
        </mxCell>
        <mxCell id="-JCz-ZJJVY7_VpqyZrt4-243" value="" style="rounded=1;whiteSpace=wrap;html=1;arcSize=2;shadow=1;fillColor=#d5e8d4;strokeColor=#82b366;" parent="1" vertex="1">
          <mxGeometry x="433" y="-315" width="218" height="207" as="geometry" />
        </mxCell>
        <mxCell id="-JCz-ZJJVY7_VpqyZrt4-262" style="edgeStyle=orthogonalEdgeStyle;rounded=0;orthogonalLoop=1;jettySize=auto;html=1;entryX=0;entryY=0.5;entryDx=0;entryDy=0;exitX=1;exitY=0.25;exitDx=0;exitDy=0;" parent="1" source="-JCz-ZJJVY7_VpqyZrt4-244" target="-JCz-ZJJVY7_VpqyZrt4-260" edge="1">
          <mxGeometry relative="1" as="geometry" />
        </mxCell>
        <mxCell id="-JCz-ZJJVY7_VpqyZrt4-263" style="edgeStyle=orthogonalEdgeStyle;rounded=0;orthogonalLoop=1;jettySize=auto;html=1;exitX=1;exitY=0.75;exitDx=0;exitDy=0;" parent="1" source="-JCz-ZJJVY7_VpqyZrt4-244" target="-JCz-ZJJVY7_VpqyZrt4-261" edge="1">
          <mxGeometry relative="1" as="geometry" />
        </mxCell>
        <mxCell id="-JCz-ZJJVY7_VpqyZrt4-244" value="IBUFDS_GTE4" style="rounded=0;whiteSpace=wrap;html=1;fillColor=#f5f5f5;fontColor=#333333;strokeColor=#666666;shadow=1;" parent="1" vertex="1">
          <mxGeometry x="771.87" y="-295" width="120" height="60" as="geometry" />
        </mxCell>
        <mxCell id="-JCz-ZJJVY7_VpqyZrt4-268" style="edgeStyle=orthogonalEdgeStyle;rounded=0;orthogonalLoop=1;jettySize=auto;html=1;exitX=1;exitY=0.25;exitDx=0;exitDy=0;" parent="1" source="-JCz-ZJJVY7_VpqyZrt4-245" target="-JCz-ZJJVY7_VpqyZrt4-266" edge="1">
          <mxGeometry relative="1" as="geometry" />
        </mxCell>
        <mxCell id="-JCz-ZJJVY7_VpqyZrt4-269" style="edgeStyle=orthogonalEdgeStyle;rounded=0;orthogonalLoop=1;jettySize=auto;html=1;entryX=0;entryY=0.5;entryDx=0;entryDy=0;exitX=1;exitY=0.75;exitDx=0;exitDy=0;" parent="1" source="-JCz-ZJJVY7_VpqyZrt4-245" target="-JCz-ZJJVY7_VpqyZrt4-267" edge="1">
          <mxGeometry relative="1" as="geometry" />
        </mxCell>
        <mxCell id="-JCz-ZJJVY7_VpqyZrt4-245" value="IBUFDS_GTE4" style="rounded=0;whiteSpace=wrap;html=1;fillColor=#f5f5f5;fontColor=#333333;strokeColor=#666666;shadow=1;" parent="1" vertex="1">
          <mxGeometry x="771.87" y="-199" width="120" height="60" as="geometry" />
        </mxCell>
        <mxCell id="-JCz-ZJJVY7_VpqyZrt4-252" style="edgeStyle=orthogonalEdgeStyle;rounded=0;orthogonalLoop=1;jettySize=auto;html=1;entryX=0;entryY=0.25;entryDx=0;entryDy=0;exitX=1;exitY=0.5;exitDx=0;exitDy=0;" parent="1" source="-JCz-ZJJVY7_VpqyZrt4-246" target="-JCz-ZJJVY7_VpqyZrt4-244" edge="1">
          <mxGeometry relative="1" as="geometry">
            <Array as="points">
              <mxPoint x="630" y="-289" />
              <mxPoint x="699" y="-289" />
              <mxPoint x="699" y="-280" />
            </Array>
          </mxGeometry>
        </mxCell>
        <mxCell id="-JCz-ZJJVY7_VpqyZrt4-246" value="&lt;font face=&quot;Courier New&quot;&gt;&lt;b&gt;qsfp0_mgt_refclk_1_p&lt;/b&gt;&lt;br&gt;&lt;/font&gt;&lt;font style=&quot;font-size: 10px;&quot; color=&quot;#3333ff&quot;&gt;differential qsfp refclk (p)&lt;/font&gt;" style="rounded=1;whiteSpace=wrap;html=1;" parent="1" vertex="1">
          <mxGeometry x="446" y="-305" width="184" height="36" as="geometry" />
        </mxCell>
        <mxCell id="-JCz-ZJJVY7_VpqyZrt4-286" style="edgeStyle=orthogonalEdgeStyle;rounded=0;orthogonalLoop=1;jettySize=auto;html=1;entryX=0;entryY=0.75;entryDx=0;entryDy=0;" parent="1" source="-JCz-ZJJVY7_VpqyZrt4-247" target="-JCz-ZJJVY7_VpqyZrt4-244" edge="1">
          <mxGeometry relative="1" as="geometry">
            <Array as="points">
              <mxPoint x="700" y="-240" />
              <mxPoint x="700" y="-250" />
            </Array>
          </mxGeometry>
        </mxCell>
        <mxCell id="-JCz-ZJJVY7_VpqyZrt4-247" value="&lt;font face=&quot;Courier New&quot;&gt;&lt;b&gt;qsfp0_mgt_refclk_1_n&lt;/b&gt;&lt;br&gt;&lt;/font&gt;&lt;font style=&quot;font-size: 10px;&quot; color=&quot;#3333ff&quot;&gt;differential qsfp refclk (n)&lt;/font&gt;" style="rounded=1;whiteSpace=wrap;html=1;" parent="1" vertex="1">
          <mxGeometry x="444" y="-258" width="186" height="36" as="geometry" />
        </mxCell>
        <mxCell id="-JCz-ZJJVY7_VpqyZrt4-257" value="&lt;font face=&quot;Courier New&quot;&gt;&lt;b style=&quot;font-size: 12px;&quot;&gt;ibufds_gte4_qsfp0_mgt_refclk_1_inst&lt;/b&gt;&lt;/font&gt;" style="text;html=1;strokeColor=none;fillColor=none;align=center;verticalAlign=middle;whiteSpace=wrap;rounded=0;fontSize=18;" parent="1" vertex="1">
          <mxGeometry x="714" y="-229" width="235.75" height="13" as="geometry" />
        </mxCell>
        <mxCell id="-JCz-ZJJVY7_VpqyZrt4-258" value="&lt;font face=&quot;Courier New&quot;&gt;&lt;b style=&quot;font-size: 12px;&quot;&gt;ibufds_gte4_qsfp1_mgt_refclk_1_inst&lt;/b&gt;&lt;/font&gt;" style="text;html=1;strokeColor=none;fillColor=none;align=center;verticalAlign=middle;whiteSpace=wrap;rounded=0;fontSize=18;" parent="1" vertex="1">
          <mxGeometry x="714" y="-131" width="235.75" height="13" as="geometry" />
        </mxCell>
        <mxCell id="-JCz-ZJJVY7_VpqyZrt4-298" style="edgeStyle=orthogonalEdgeStyle;rounded=0;orthogonalLoop=1;jettySize=auto;html=1;entryX=0;entryY=0.75;entryDx=0;entryDy=0;" parent="1" source="-JCz-ZJJVY7_VpqyZrt4-260" target="-JCz-ZJJVY7_VpqyZrt4-281" edge="1">
          <mxGeometry relative="1" as="geometry">
            <Array as="points">
              <mxPoint x="1427" y="-292" />
              <mxPoint x="1427" y="-323" />
            </Array>
          </mxGeometry>
        </mxCell>
        <mxCell id="-JCz-ZJJVY7_VpqyZrt4-260" value="&lt;font face=&quot;Courier New&quot;&gt;&lt;b&gt;qsfp0_mgt_refclk_1&lt;/b&gt;&lt;/font&gt;" style="rounded=1;whiteSpace=wrap;html=1;" parent="1" vertex="1">
          <mxGeometry x="968" y="-301.5" width="184" height="18" as="geometry" />
        </mxCell>
        <mxCell id="-JCz-ZJJVY7_VpqyZrt4-273" style="edgeStyle=orthogonalEdgeStyle;rounded=0;orthogonalLoop=1;jettySize=auto;html=1;entryX=0;entryY=0.5;entryDx=0;entryDy=0;" parent="1" source="-JCz-ZJJVY7_VpqyZrt4-261" target="-JCz-ZJJVY7_VpqyZrt4-270" edge="1">
          <mxGeometry relative="1" as="geometry" />
        </mxCell>
        <mxCell id="-JCz-ZJJVY7_VpqyZrt4-261" value="&lt;font face=&quot;Courier New&quot;&gt;&lt;b&gt;qsfp0_mgt_refclk_1_int&lt;/b&gt;&lt;/font&gt;" style="rounded=1;whiteSpace=wrap;html=1;" parent="1" vertex="1">
          <mxGeometry x="968" y="-245" width="183" height="18" as="geometry" />
        </mxCell>
        <mxCell id="-JCz-ZJJVY7_VpqyZrt4-309" style="edgeStyle=orthogonalEdgeStyle;rounded=0;orthogonalLoop=1;jettySize=auto;html=1;entryX=0;entryY=0.75;entryDx=0;entryDy=0;" parent="1" source="-JCz-ZJJVY7_VpqyZrt4-266" edge="1">
          <mxGeometry relative="1" as="geometry">
            <mxPoint x="1800.9899999999998" y="-194.5" as="targetPoint" />
          </mxGeometry>
        </mxCell>
        <mxCell id="-JCz-ZJJVY7_VpqyZrt4-266" value="&lt;font face=&quot;Courier New&quot;&gt;&lt;b&gt;qsfp1_mgt_refclk_1&lt;/b&gt;&lt;/font&gt;" style="rounded=1;whiteSpace=wrap;html=1;" parent="1" vertex="1">
          <mxGeometry x="968" y="-203" width="184" height="18" as="geometry" />
        </mxCell>
        <mxCell id="-JCz-ZJJVY7_VpqyZrt4-274" style="edgeStyle=orthogonalEdgeStyle;rounded=0;orthogonalLoop=1;jettySize=auto;html=1;" parent="1" source="-JCz-ZJJVY7_VpqyZrt4-267" target="-JCz-ZJJVY7_VpqyZrt4-272" edge="1">
          <mxGeometry relative="1" as="geometry" />
        </mxCell>
        <mxCell id="-JCz-ZJJVY7_VpqyZrt4-267" value="&lt;font face=&quot;Courier New&quot;&gt;&lt;b&gt;qsfp1_mgt_refclk_1_int&lt;/b&gt;&lt;/font&gt;" style="rounded=1;whiteSpace=wrap;html=1;" parent="1" vertex="1">
          <mxGeometry x="968" y="-146.5" width="183" height="18" as="geometry" />
        </mxCell>
        <mxCell id="-JCz-ZJJVY7_VpqyZrt4-280" style="edgeStyle=orthogonalEdgeStyle;rounded=0;orthogonalLoop=1;jettySize=auto;html=1;" parent="1" source="-JCz-ZJJVY7_VpqyZrt4-270" target="-JCz-ZJJVY7_VpqyZrt4-277" edge="1">
          <mxGeometry relative="1" as="geometry" />
        </mxCell>
        <mxCell id="-JCz-ZJJVY7_VpqyZrt4-270" value="BUFG_GT" style="rounded=0;whiteSpace=wrap;html=1;fillColor=#f5f5f5;fontColor=#333333;strokeColor=#666666;shadow=1;" parent="1" vertex="1">
          <mxGeometry x="1214" y="-252.5" width="120" height="33" as="geometry" />
        </mxCell>
        <mxCell id="-JCz-ZJJVY7_VpqyZrt4-279" style="edgeStyle=orthogonalEdgeStyle;rounded=0;orthogonalLoop=1;jettySize=auto;html=1;entryX=0;entryY=0.5;entryDx=0;entryDy=0;" parent="1" source="-JCz-ZJJVY7_VpqyZrt4-272" target="-JCz-ZJJVY7_VpqyZrt4-296" edge="1">
          <mxGeometry relative="1" as="geometry">
            <mxPoint x="1386" y="-137.5" as="targetPoint" />
          </mxGeometry>
        </mxCell>
        <mxCell id="-JCz-ZJJVY7_VpqyZrt4-272" value="BUFG_GT" style="rounded=0;whiteSpace=wrap;html=1;fillColor=#f5f5f5;fontColor=#333333;strokeColor=#666666;shadow=1;" parent="1" vertex="1">
          <mxGeometry x="1214" y="-154" width="120" height="33" as="geometry" />
        </mxCell>
        <mxCell id="-JCz-ZJJVY7_VpqyZrt4-275" value="&lt;font size=&quot;1&quot; face=&quot;Courier New&quot;&gt;&lt;b style=&quot;font-size: 12px;&quot;&gt;bufg_gt_qsfp0_mgt_refclk_1_inst&lt;/b&gt;&lt;/font&gt;" style="text;html=1;strokeColor=none;fillColor=none;align=center;verticalAlign=middle;whiteSpace=wrap;rounded=0;fontSize=18;" parent="1" vertex="1">
          <mxGeometry x="1156.13" y="-273" width="235.75" height="13" as="geometry" />
        </mxCell>
        <mxCell id="-JCz-ZJJVY7_VpqyZrt4-276" value="&lt;font size=&quot;1&quot; face=&quot;Courier New&quot;&gt;&lt;b style=&quot;font-size: 12px;&quot;&gt;bufg_gt_qsfp1_mgt_refclk_1_inst&lt;/b&gt;&lt;/font&gt;" style="text;html=1;strokeColor=none;fillColor=none;align=center;verticalAlign=middle;whiteSpace=wrap;rounded=0;fontSize=18;" parent="1" vertex="1">
          <mxGeometry x="1156.13" y="-174" width="235.75" height="13" as="geometry" />
        </mxCell>
        <mxCell id="-JCz-ZJJVY7_VpqyZrt4-295" style="edgeStyle=orthogonalEdgeStyle;rounded=0;orthogonalLoop=1;jettySize=auto;html=1;entryX=0;entryY=0.5;entryDx=0;entryDy=0;exitX=1;exitY=0.5;exitDx=0;exitDy=0;" parent="1" source="-JCz-ZJJVY7_VpqyZrt4-277" target="-JCz-ZJJVY7_VpqyZrt4-291" edge="1">
          <mxGeometry relative="1" as="geometry">
            <Array as="points">
              <mxPoint x="1605" y="-236" />
            </Array>
          </mxGeometry>
        </mxCell>
        <mxCell id="-JCz-ZJJVY7_VpqyZrt4-350" style="edgeStyle=orthogonalEdgeStyle;rounded=0;orthogonalLoop=1;jettySize=auto;html=1;entryX=0;entryY=0.5;entryDx=0;entryDy=0;exitX=1;exitY=0.5;exitDx=0;exitDy=0;" parent="1" source="-JCz-ZJJVY7_VpqyZrt4-277" edge="1">
          <mxGeometry relative="1" as="geometry">
            <Array as="points">
              <mxPoint x="1603" y="-236" />
              <mxPoint x="1603" y="-475" />
            </Array>
            <mxPoint x="1570.5" y="-231" as="sourcePoint" />
            <mxPoint x="1754" y="-475" as="targetPoint" />
          </mxGeometry>
        </mxCell>
        <mxCell id="-JCz-ZJJVY7_VpqyZrt4-351" style="edgeStyle=orthogonalEdgeStyle;rounded=0;orthogonalLoop=1;jettySize=auto;html=1;entryX=0;entryY=0.528;entryDx=0;entryDy=0;entryPerimeter=0;" parent="1" source="-JCz-ZJJVY7_VpqyZrt4-277" target="-JCz-ZJJVY7_VpqyZrt4-166" edge="1">
          <mxGeometry relative="1" as="geometry">
            <Array as="points">
              <mxPoint x="1603" y="-236" />
              <mxPoint x="1603" y="-340" />
              <mxPoint x="466" y="-340" />
              <mxPoint x="466" y="-497" />
            </Array>
          </mxGeometry>
        </mxCell>
        <mxCell id="-JCz-ZJJVY7_VpqyZrt4-277" value="&lt;font face=&quot;Courier New&quot;&gt;&lt;b&gt;qsfp0_mgt_refclk_1_bufg&lt;/b&gt;&lt;/font&gt;" style="rounded=1;whiteSpace=wrap;html=1;" parent="1" vertex="1">
          <mxGeometry x="1387.5" y="-246" width="183" height="20" as="geometry" />
        </mxCell>
        <mxCell id="-JCz-ZJJVY7_VpqyZrt4-281" value="cmac_gty_wrapper" style="rounded=0;whiteSpace=wrap;html=1;fillColor=#f5f5f5;fontColor=#333333;strokeColor=#666666;shadow=1;" parent="1" vertex="1">
          <mxGeometry x="1800.99" y="-401" width="117.25" height="103" as="geometry" />
        </mxCell>
        <mxCell id="-JCz-ZJJVY7_VpqyZrt4-282" value="&lt;font face=&quot;Courier New&quot;&gt;&lt;b&gt;qsfp0_cmac_inst&lt;/b&gt;&lt;/font&gt;" style="text;html=1;strokeColor=none;fillColor=none;align=center;verticalAlign=middle;whiteSpace=wrap;rounded=0;fontSize=12;" parent="1" vertex="1">
          <mxGeometry x="1809.8600000000001" y="-297" width="99.5" height="21" as="geometry" />
        </mxCell>
        <mxCell id="-JCz-ZJJVY7_VpqyZrt4-289" style="edgeStyle=orthogonalEdgeStyle;rounded=0;orthogonalLoop=1;jettySize=auto;html=1;entryX=0;entryY=0.25;entryDx=0;entryDy=0;" parent="1" source="-JCz-ZJJVY7_VpqyZrt4-287" target="-JCz-ZJJVY7_VpqyZrt4-245" edge="1">
          <mxGeometry relative="1" as="geometry">
            <Array as="points">
              <mxPoint x="705" y="-195" />
              <mxPoint x="705" y="-184" />
            </Array>
          </mxGeometry>
        </mxCell>
        <mxCell id="-JCz-ZJJVY7_VpqyZrt4-287" value="&lt;font face=&quot;Courier New&quot;&gt;&lt;b&gt;qsfp1_mgt_refclk_1_p&lt;/b&gt;&lt;br&gt;&lt;/font&gt;&lt;font style=&quot;font-size: 10px;&quot; color=&quot;#3333ff&quot;&gt;differential qsfp refclk (p)&lt;/font&gt;" style="rounded=1;whiteSpace=wrap;html=1;" parent="1" vertex="1">
          <mxGeometry x="445" y="-213" width="184" height="36" as="geometry" />
        </mxCell>
        <mxCell id="-JCz-ZJJVY7_VpqyZrt4-290" style="edgeStyle=orthogonalEdgeStyle;rounded=0;orthogonalLoop=1;jettySize=auto;html=1;entryX=0;entryY=0.75;entryDx=0;entryDy=0;" parent="1" source="-JCz-ZJJVY7_VpqyZrt4-288" target="-JCz-ZJJVY7_VpqyZrt4-245" edge="1">
          <mxGeometry relative="1" as="geometry">
            <Array as="points">
              <mxPoint x="707" y="-142" />
              <mxPoint x="707" y="-154" />
            </Array>
          </mxGeometry>
        </mxCell>
        <mxCell id="-JCz-ZJJVY7_VpqyZrt4-288" value="&lt;font face=&quot;Courier New&quot;&gt;&lt;b&gt;qsfp1_mgt_refclk_1_n&lt;/b&gt;&lt;br&gt;&lt;/font&gt;&lt;font style=&quot;font-size: 10px;&quot; color=&quot;#3333ff&quot;&gt;differential qsfp refclk (n)&lt;/font&gt;" style="rounded=1;whiteSpace=wrap;html=1;" parent="1" vertex="1">
          <mxGeometry x="444" y="-160" width="186" height="36" as="geometry" />
        </mxCell>
        <mxCell id="-JCz-ZJJVY7_VpqyZrt4-291" value="sync_reset" style="rounded=0;whiteSpace=wrap;html=1;fillColor=#f5f5f5;fontColor=#333333;strokeColor=#666666;shadow=1;" parent="1" vertex="1">
          <mxGeometry x="1648.75" y="-266" width="78" height="60" as="geometry" />
        </mxCell>
        <mxCell id="-JCz-ZJJVY7_VpqyZrt4-292" value="&lt;font face=&quot;Courier New&quot;&gt;&lt;b&gt;qsfp0_sync_reset_inst&lt;/b&gt;&lt;/font&gt;" style="text;html=1;strokeColor=none;fillColor=none;align=center;verticalAlign=middle;whiteSpace=wrap;rounded=0;fontSize=12;" parent="1" vertex="1">
          <mxGeometry x="1638" y="-287" width="99.5" height="21" as="geometry" />
        </mxCell>
        <mxCell id="-JCz-ZJJVY7_VpqyZrt4-301" style="edgeStyle=orthogonalEdgeStyle;rounded=0;orthogonalLoop=1;jettySize=auto;html=1;entryX=0;entryY=0.5;entryDx=0;entryDy=0;" parent="1" source="-JCz-ZJJVY7_VpqyZrt4-296" target="-JCz-ZJJVY7_VpqyZrt4-299" edge="1">
          <mxGeometry relative="1" as="geometry">
            <mxPoint x="1609" y="-137.5" as="targetPoint" />
          </mxGeometry>
        </mxCell>
        <mxCell id="-JCz-ZJJVY7_VpqyZrt4-296" value="&lt;font face=&quot;Courier New&quot;&gt;&lt;b&gt;qsfp1_mgt_refclk_1_bufg&lt;/b&gt;&lt;/font&gt;" style="rounded=1;whiteSpace=wrap;html=1;" parent="1" vertex="1">
          <mxGeometry x="1387.5" y="-147.5" width="183" height="20" as="geometry" />
        </mxCell>
        <mxCell id="-JCz-ZJJVY7_VpqyZrt4-299" value="sync_reset" style="rounded=0;whiteSpace=wrap;html=1;fillColor=#f5f5f5;fontColor=#333333;strokeColor=#666666;shadow=1;" parent="1" vertex="1">
          <mxGeometry x="1648.75" y="-167.5" width="78" height="60" as="geometry" />
        </mxCell>
        <mxCell id="-JCz-ZJJVY7_VpqyZrt4-300" value="&lt;font face=&quot;Courier New&quot;&gt;&lt;b&gt;qsfp1_sync_reset_inst&lt;/b&gt;&lt;/font&gt;" style="text;html=1;strokeColor=none;fillColor=none;align=center;verticalAlign=middle;whiteSpace=wrap;rounded=0;fontSize=12;" parent="1" vertex="1">
          <mxGeometry x="1638" y="-105" width="99.5" height="21" as="geometry" />
        </mxCell>
        <mxCell id="-JCz-ZJJVY7_VpqyZrt4-323" value="" style="edgeStyle=orthogonalEdgeStyle;rounded=0;orthogonalLoop=1;jettySize=auto;html=1;entryX=1;entryY=0.25;entryDx=0;entryDy=0;" parent="1" source="-JCz-ZJJVY7_VpqyZrt4-320" target="-JCz-ZJJVY7_VpqyZrt4-281" edge="1">
          <mxGeometry relative="1" as="geometry" />
        </mxCell>
        <mxCell id="-JCz-ZJJVY7_VpqyZrt4-320" value="&lt;font face=&quot;Courier New&quot;&gt;&lt;b&gt;qsfp0_tx_clk_int&lt;/b&gt;&lt;/font&gt;" style="rounded=1;whiteSpace=wrap;html=1;" parent="1" vertex="1">
          <mxGeometry x="1941" y="-384" width="154.5" height="18" as="geometry" />
        </mxCell>
        <mxCell id="-JCz-ZJJVY7_VpqyZrt4-322" style="edgeStyle=orthogonalEdgeStyle;rounded=0;orthogonalLoop=1;jettySize=auto;html=1;entryX=1;entryY=0.5;entryDx=0;entryDy=0;" parent="1" source="-JCz-ZJJVY7_VpqyZrt4-321" target="-JCz-ZJJVY7_VpqyZrt4-281" edge="1">
          <mxGeometry relative="1" as="geometry" />
        </mxCell>
        <mxCell id="-JCz-ZJJVY7_VpqyZrt4-321" value="&lt;font face=&quot;Courier New&quot;&gt;&lt;b&gt;qsfp0_rx_clk_int&lt;/b&gt;&lt;/font&gt;" style="rounded=1;whiteSpace=wrap;html=1;" parent="1" vertex="1">
          <mxGeometry x="1941" y="-358.5" width="154.5" height="18" as="geometry" />
        </mxCell>
        <mxCell id="-JCz-ZJJVY7_VpqyZrt4-327" style="edgeStyle=orthogonalEdgeStyle;rounded=0;orthogonalLoop=1;jettySize=auto;html=1;entryX=1;entryY=0.75;entryDx=0;entryDy=0;" parent="1" source="-JCz-ZJJVY7_VpqyZrt4-326" target="-JCz-ZJJVY7_VpqyZrt4-281" edge="1">
          <mxGeometry relative="1" as="geometry" />
        </mxCell>
        <mxCell id="-JCz-ZJJVY7_VpqyZrt4-326" value="&lt;font face=&quot;Courier New&quot;&gt;&lt;b&gt;qsfp0_rx_ptp_clk_int&lt;/b&gt;&lt;/font&gt;" style="rounded=1;whiteSpace=wrap;html=1;" parent="1" vertex="1">
          <mxGeometry x="1941" y="-333" width="154.5" height="18" as="geometry" />
        </mxCell>
        <mxCell id="-JCz-ZJJVY7_VpqyZrt4-330" value="cmac_gty_wrapper" style="rounded=0;whiteSpace=wrap;html=1;fillColor=#f5f5f5;fontColor=#333333;strokeColor=#666666;shadow=1;" parent="1" vertex="1">
          <mxGeometry x="1800.99" y="-258" width="117.25" height="103" as="geometry" />
        </mxCell>
        <mxCell id="-JCz-ZJJVY7_VpqyZrt4-331" value="&lt;font face=&quot;Courier New&quot;&gt;&lt;b&gt;qsfp1_cmac_inst&lt;/b&gt;&lt;/font&gt;" style="text;html=1;strokeColor=none;fillColor=none;align=center;verticalAlign=middle;whiteSpace=wrap;rounded=0;fontSize=12;" parent="1" vertex="1">
          <mxGeometry x="1809.8600000000001" y="-154" width="99.5" height="21" as="geometry" />
        </mxCell>
        <mxCell id="-JCz-ZJJVY7_VpqyZrt4-332" value="" style="edgeStyle=orthogonalEdgeStyle;rounded=0;orthogonalLoop=1;jettySize=auto;html=1;entryX=1;entryY=0.25;entryDx=0;entryDy=0;" parent="1" source="-JCz-ZJJVY7_VpqyZrt4-333" target="-JCz-ZJJVY7_VpqyZrt4-330" edge="1">
          <mxGeometry relative="1" as="geometry" />
        </mxCell>
        <mxCell id="-JCz-ZJJVY7_VpqyZrt4-333" value="&lt;font face=&quot;Courier New&quot;&gt;&lt;b&gt;qsfp1_tx_clk_int&lt;/b&gt;&lt;/font&gt;" style="rounded=1;whiteSpace=wrap;html=1;" parent="1" vertex="1">
          <mxGeometry x="1941" y="-241" width="154.5" height="18" as="geometry" />
        </mxCell>
        <mxCell id="-JCz-ZJJVY7_VpqyZrt4-334" style="edgeStyle=orthogonalEdgeStyle;rounded=0;orthogonalLoop=1;jettySize=auto;html=1;entryX=1;entryY=0.5;entryDx=0;entryDy=0;" parent="1" source="-JCz-ZJJVY7_VpqyZrt4-335" target="-JCz-ZJJVY7_VpqyZrt4-330" edge="1">
          <mxGeometry relative="1" as="geometry" />
        </mxCell>
        <mxCell id="-JCz-ZJJVY7_VpqyZrt4-335" value="&lt;font face=&quot;Courier New&quot;&gt;&lt;b&gt;qsfp1_rx_clk_int&lt;/b&gt;&lt;/font&gt;" style="rounded=1;whiteSpace=wrap;html=1;" parent="1" vertex="1">
          <mxGeometry x="1941" y="-215.5" width="154.5" height="18" as="geometry" />
        </mxCell>
        <mxCell id="-JCz-ZJJVY7_VpqyZrt4-336" style="edgeStyle=orthogonalEdgeStyle;rounded=0;orthogonalLoop=1;jettySize=auto;html=1;entryX=1;entryY=0.75;entryDx=0;entryDy=0;" parent="1" source="-JCz-ZJJVY7_VpqyZrt4-337" target="-JCz-ZJJVY7_VpqyZrt4-330" edge="1">
          <mxGeometry relative="1" as="geometry" />
        </mxCell>
        <mxCell id="-JCz-ZJJVY7_VpqyZrt4-337" value="&lt;font face=&quot;Courier New&quot;&gt;&lt;b&gt;qsfp1_rx_ptp_clk_int&lt;/b&gt;&lt;/font&gt;" style="rounded=1;whiteSpace=wrap;html=1;" parent="1" vertex="1">
          <mxGeometry x="1941" y="-190" width="154.5" height="18" as="geometry" />
        </mxCell>
        <mxCell id="-JCz-ZJJVY7_VpqyZrt4-345" style="edgeStyle=orthogonalEdgeStyle;rounded=0;orthogonalLoop=1;jettySize=auto;html=1;entryX=0;entryY=0.5;entryDx=0;entryDy=0;" parent="1" source="-JCz-ZJJVY7_VpqyZrt4-343" target="-JCz-ZJJVY7_VpqyZrt4-240" edge="1">
          <mxGeometry relative="1" as="geometry">
            <Array as="points">
              <mxPoint x="1586" y="-447" />
              <mxPoint x="1586" y="-495" />
            </Array>
          </mxGeometry>
        </mxCell>
        <mxCell id="-JCz-ZJJVY7_VpqyZrt4-343" value="&lt;font face=&quot;Courier New&quot;&gt;&lt;b&gt;ptp_sample_clk&lt;/b&gt;&lt;/font&gt;" style="rounded=1;whiteSpace=wrap;html=1;" parent="1" vertex="1">
          <mxGeometry x="1427" y="-456" width="113" height="18" as="geometry" />
        </mxCell>
        <mxCell id="-JCz-ZJJVY7_VpqyZrt4-348" style="edgeStyle=orthogonalEdgeStyle;rounded=0;orthogonalLoop=1;jettySize=auto;html=1;entryX=0;entryY=0.75;entryDx=0;entryDy=0;" parent="1" source="-JCz-ZJJVY7_VpqyZrt4-347" target="-JCz-ZJJVY7_VpqyZrt4-240" edge="1">
          <mxGeometry relative="1" as="geometry" />
        </mxCell>
        <mxCell id="-JCz-ZJJVY7_VpqyZrt4-347" value="&lt;font face=&quot;Courier New&quot;&gt;&lt;b&gt;ptp_clk&lt;/b&gt;&lt;/font&gt;" style="rounded=1;whiteSpace=wrap;html=1;" parent="1" vertex="1">
          <mxGeometry x="1754" y="-490" width="73" height="20" as="geometry" />
        </mxCell>
        <mxCell id="-JCz-ZJJVY7_VpqyZrt4-352" value="&lt;font color=&quot;#3333ff&quot; size=&quot;1&quot; style=&quot;&quot;&gt;&lt;b style=&quot;font-size: 20px;&quot;&gt;&lt;i&gt;161MHz&lt;/i&gt;&lt;/b&gt;&lt;/font&gt;" style="text;html=1;strokeColor=none;fillColor=none;align=center;verticalAlign=middle;whiteSpace=wrap;rounded=0;" parent="1" vertex="1">
          <mxGeometry x="1492.5" y="-275" width="81.5" height="30" as="geometry" />
        </mxCell>
        <mxCell id="-JCz-ZJJVY7_VpqyZrt4-354" value="&lt;font color=&quot;#3333ff&quot; size=&quot;1&quot; style=&quot;&quot;&gt;&lt;b style=&quot;font-size: 20px;&quot;&gt;&lt;i&gt;161MHz&lt;/i&gt;&lt;/b&gt;&lt;/font&gt;" style="text;html=1;strokeColor=none;fillColor=none;align=center;verticalAlign=middle;whiteSpace=wrap;rounded=0;" parent="1" vertex="1">
          <mxGeometry x="1492.5" y="-176" width="81.5" height="30" as="geometry" />
        </mxCell>
        <mxCell id="-JCz-ZJJVY7_VpqyZrt4-369" style="edgeStyle=orthogonalEdgeStyle;rounded=0;orthogonalLoop=1;jettySize=auto;html=1;entryX=0;entryY=0.25;entryDx=0;entryDy=0;" parent="1" source="-JCz-ZJJVY7_VpqyZrt4-355" target="-JCz-ZJJVY7_VpqyZrt4-368" edge="1">
          <mxGeometry relative="1" as="geometry" />
        </mxCell>
        <mxCell id="-JCz-ZJJVY7_VpqyZrt4-355" value="&lt;font face=&quot;Courier New&quot;&gt;&lt;b&gt;clk_300mhz_0_p&lt;/b&gt;&lt;/font&gt;" style="rounded=1;whiteSpace=wrap;html=1;" parent="1" vertex="1">
          <mxGeometry x="444" y="-17" width="184" height="23" as="geometry" />
        </mxCell>
        <mxCell id="-JCz-ZJJVY7_VpqyZrt4-370" style="edgeStyle=orthogonalEdgeStyle;rounded=0;orthogonalLoop=1;jettySize=auto;html=1;entryX=0;entryY=0.75;entryDx=0;entryDy=0;" parent="1" source="-JCz-ZJJVY7_VpqyZrt4-358" target="-JCz-ZJJVY7_VpqyZrt4-368" edge="1">
          <mxGeometry relative="1" as="geometry" />
        </mxCell>
        <mxCell id="-JCz-ZJJVY7_VpqyZrt4-358" value="&lt;b style=&quot;border-color: var(--border-color); font-family: &amp;quot;Courier New&amp;quot;;&quot;&gt;clk_300mhz_0_n&lt;/b&gt;" style="rounded=1;whiteSpace=wrap;html=1;" parent="1" vertex="1">
          <mxGeometry x="444" y="13.5" width="184" height="23" as="geometry" />
        </mxCell>
        <mxCell id="-JCz-ZJJVY7_VpqyZrt4-372" style="edgeStyle=orthogonalEdgeStyle;rounded=0;orthogonalLoop=1;jettySize=auto;html=1;entryX=0;entryY=0.5;entryDx=0;entryDy=0;" parent="1" source="-JCz-ZJJVY7_VpqyZrt4-368" target="-JCz-ZJJVY7_VpqyZrt4-371" edge="1">
          <mxGeometry relative="1" as="geometry" />
        </mxCell>
        <mxCell id="-JCz-ZJJVY7_VpqyZrt4-368" value="ddr4_0" style="rounded=0;whiteSpace=wrap;html=1;fillColor=#f5f5f5;fontColor=#333333;strokeColor=#666666;shadow=1;" parent="1" vertex="1">
          <mxGeometry x="747" y="-20" width="120" height="60" as="geometry" />
        </mxCell>
        <mxCell id="-JCz-ZJJVY7_VpqyZrt4-399" style="edgeStyle=orthogonalEdgeStyle;rounded=0;orthogonalLoop=1;jettySize=auto;html=1;entryX=1;entryY=0;entryDx=0;entryDy=0;" parent="1" source="-JCz-ZJJVY7_VpqyZrt4-371" target="-JCz-ZJJVY7_VpqyZrt4-240" edge="1">
          <mxGeometry relative="1" as="geometry">
            <Array as="points">
              <mxPoint x="2280" y="10" />
              <mxPoint x="2280" y="-545" />
              <mxPoint x="2068" y="-545" />
            </Array>
          </mxGeometry>
        </mxCell>
        <mxCell id="-JCz-ZJJVY7_VpqyZrt4-371" value="&lt;font face=&quot;Courier New&quot;&gt;&lt;b&gt;ddr_clk[0]&lt;/b&gt;&lt;/font&gt;" style="rounded=1;whiteSpace=wrap;html=1;" parent="1" vertex="1">
          <mxGeometry x="933" y="-1.5" width="106" height="23" as="geometry" />
        </mxCell>
        <mxCell id="-JCz-ZJJVY7_VpqyZrt4-373" value="&lt;font face=&quot;Courier New&quot;&gt;&lt;b style=&quot;font-size: 12px;&quot;&gt;ddr_c0_inst&lt;/b&gt;&lt;/font&gt;" style="text;html=1;strokeColor=none;fillColor=none;align=center;verticalAlign=middle;whiteSpace=wrap;rounded=0;fontSize=18;" parent="1" vertex="1">
          <mxGeometry x="757.5" y="46" width="99" height="13" as="geometry" />
        </mxCell>
        <mxCell id="-JCz-ZJJVY7_VpqyZrt4-374" style="edgeStyle=orthogonalEdgeStyle;rounded=0;orthogonalLoop=1;jettySize=auto;html=1;entryX=0;entryY=0.25;entryDx=0;entryDy=0;" parent="1" source="-JCz-ZJJVY7_VpqyZrt4-381" target="-JCz-ZJJVY7_VpqyZrt4-378" edge="1">
          <mxGeometry relative="1" as="geometry" />
        </mxCell>
        <mxCell id="-JCz-ZJJVY7_VpqyZrt4-375" style="edgeStyle=orthogonalEdgeStyle;rounded=0;orthogonalLoop=1;jettySize=auto;html=1;entryX=0;entryY=0.75;entryDx=0;entryDy=0;" parent="1" source="-JCz-ZJJVY7_VpqyZrt4-376" target="-JCz-ZJJVY7_VpqyZrt4-378" edge="1">
          <mxGeometry relative="1" as="geometry" />
        </mxCell>
        <mxCell id="-JCz-ZJJVY7_VpqyZrt4-376" value="&lt;b style=&quot;border-color: var(--border-color); font-family: &amp;quot;Courier New&amp;quot;;&quot;&gt;clk_300mhz_1_n&lt;/b&gt;" style="rounded=1;whiteSpace=wrap;html=1;" parent="1" vertex="1">
          <mxGeometry x="444" y="125.5" width="184" height="23" as="geometry" />
        </mxCell>
        <mxCell id="-JCz-ZJJVY7_VpqyZrt4-377" style="edgeStyle=orthogonalEdgeStyle;rounded=0;orthogonalLoop=1;jettySize=auto;html=1;entryX=0;entryY=0.5;entryDx=0;entryDy=0;" parent="1" source="-JCz-ZJJVY7_VpqyZrt4-378" target="-JCz-ZJJVY7_VpqyZrt4-379" edge="1">
          <mxGeometry relative="1" as="geometry" />
        </mxCell>
        <mxCell id="-JCz-ZJJVY7_VpqyZrt4-378" value="ddr4_0" style="rounded=0;whiteSpace=wrap;html=1;fillColor=#f5f5f5;fontColor=#333333;strokeColor=#666666;shadow=1;" parent="1" vertex="1">
          <mxGeometry x="747" y="92" width="120" height="60" as="geometry" />
        </mxCell>
        <mxCell id="-JCz-ZJJVY7_VpqyZrt4-400" style="edgeStyle=orthogonalEdgeStyle;rounded=0;orthogonalLoop=1;jettySize=auto;html=1;entryX=0.75;entryY=0;entryDx=0;entryDy=0;" parent="1" source="-JCz-ZJJVY7_VpqyZrt4-379" target="-JCz-ZJJVY7_VpqyZrt4-240" edge="1">
          <mxGeometry relative="1" as="geometry">
            <Array as="points">
              <mxPoint x="2294" y="122" />
              <mxPoint x="2294" y="-551" />
              <mxPoint x="2049" y="-551" />
              <mxPoint x="2049" y="-525" />
            </Array>
          </mxGeometry>
        </mxCell>
        <mxCell id="-JCz-ZJJVY7_VpqyZrt4-379" value="&lt;font face=&quot;Courier New&quot;&gt;&lt;b&gt;ddr_clk[1]&lt;/b&gt;&lt;/font&gt;" style="rounded=1;whiteSpace=wrap;html=1;" parent="1" vertex="1">
          <mxGeometry x="933" y="110.5" width="106" height="23" as="geometry" />
        </mxCell>
        <mxCell id="-JCz-ZJJVY7_VpqyZrt4-380" value="&lt;font face=&quot;Courier New&quot;&gt;&lt;b style=&quot;font-size: 12px;&quot;&gt;ddr_c1_inst&lt;/b&gt;&lt;/font&gt;" style="text;html=1;strokeColor=none;fillColor=none;align=center;verticalAlign=middle;whiteSpace=wrap;rounded=0;fontSize=18;" parent="1" vertex="1">
          <mxGeometry x="757.5" y="158" width="99" height="13" as="geometry" />
        </mxCell>
        <mxCell id="-JCz-ZJJVY7_VpqyZrt4-381" value="&lt;font face=&quot;Courier New&quot;&gt;&lt;b&gt;clk_300mhz_1_p&lt;/b&gt;&lt;/font&gt;" style="rounded=1;whiteSpace=wrap;html=1;" parent="1" vertex="1">
          <mxGeometry x="444" y="95" width="184" height="23" as="geometry" />
        </mxCell>
        <mxCell id="-JCz-ZJJVY7_VpqyZrt4-382" style="edgeStyle=orthogonalEdgeStyle;rounded=0;orthogonalLoop=1;jettySize=auto;html=1;entryX=0;entryY=0.25;entryDx=0;entryDy=0;" parent="1" source="-JCz-ZJJVY7_VpqyZrt4-383" target="-JCz-ZJJVY7_VpqyZrt4-397" edge="1">
          <mxGeometry relative="1" as="geometry" />
        </mxCell>
        <mxCell id="-JCz-ZJJVY7_VpqyZrt4-383" value="&lt;font face=&quot;Courier New&quot;&gt;&lt;b&gt;clk_300mhz_2_p&lt;/b&gt;&lt;/font&gt;" style="rounded=1;whiteSpace=wrap;html=1;" parent="1" vertex="1">
          <mxGeometry x="444" y="208" width="184" height="23" as="geometry" />
        </mxCell>
        <mxCell id="-JCz-ZJJVY7_VpqyZrt4-384" style="edgeStyle=orthogonalEdgeStyle;rounded=0;orthogonalLoop=1;jettySize=auto;html=1;entryX=0;entryY=0.75;entryDx=0;entryDy=0;" parent="1" source="-JCz-ZJJVY7_VpqyZrt4-385" target="-JCz-ZJJVY7_VpqyZrt4-397" edge="1">
          <mxGeometry relative="1" as="geometry" />
        </mxCell>
        <mxCell id="-JCz-ZJJVY7_VpqyZrt4-385" value="&lt;b style=&quot;border-color: var(--border-color); font-family: &amp;quot;Courier New&amp;quot;;&quot;&gt;clk_300mhz_2_n&lt;/b&gt;" style="rounded=1;whiteSpace=wrap;html=1;" parent="1" vertex="1">
          <mxGeometry x="444" y="238.5" width="184" height="23" as="geometry" />
        </mxCell>
        <mxCell id="-JCz-ZJJVY7_VpqyZrt4-386" style="edgeStyle=orthogonalEdgeStyle;rounded=0;orthogonalLoop=1;jettySize=auto;html=1;entryX=0;entryY=0.5;entryDx=0;entryDy=0;" parent="1" source="-JCz-ZJJVY7_VpqyZrt4-397" target="-JCz-ZJJVY7_VpqyZrt4-387" edge="1">
          <mxGeometry relative="1" as="geometry" />
        </mxCell>
        <mxCell id="-JCz-ZJJVY7_VpqyZrt4-402" style="edgeStyle=orthogonalEdgeStyle;rounded=0;orthogonalLoop=1;jettySize=auto;html=1;entryX=0.5;entryY=0;entryDx=0;entryDy=0;" parent="1" source="-JCz-ZJJVY7_VpqyZrt4-387" target="-JCz-ZJJVY7_VpqyZrt4-240" edge="1">
          <mxGeometry relative="1" as="geometry">
            <Array as="points">
              <mxPoint x="2310" y="235" />
              <mxPoint x="2310" y="-557" />
              <mxPoint x="2031" y="-557" />
            </Array>
          </mxGeometry>
        </mxCell>
        <mxCell id="-JCz-ZJJVY7_VpqyZrt4-387" value="&lt;font face=&quot;Courier New&quot;&gt;&lt;b&gt;ddr_clk[2]&lt;/b&gt;&lt;/font&gt;" style="rounded=1;whiteSpace=wrap;html=1;" parent="1" vertex="1">
          <mxGeometry x="933" y="223.5" width="106" height="23" as="geometry" />
        </mxCell>
        <mxCell id="-JCz-ZJJVY7_VpqyZrt4-388" value="&lt;font face=&quot;Courier New&quot;&gt;&lt;b style=&quot;font-size: 12px;&quot;&gt;ddr_c2_inst&lt;/b&gt;&lt;/font&gt;" style="text;html=1;strokeColor=none;fillColor=none;align=center;verticalAlign=middle;whiteSpace=wrap;rounded=0;fontSize=18;" parent="1" vertex="1">
          <mxGeometry x="757.5" y="271" width="99" height="13" as="geometry" />
        </mxCell>
        <mxCell id="-JCz-ZJJVY7_VpqyZrt4-389" style="edgeStyle=orthogonalEdgeStyle;rounded=0;orthogonalLoop=1;jettySize=auto;html=1;entryX=0;entryY=0.25;entryDx=0;entryDy=0;" parent="1" source="-JCz-ZJJVY7_VpqyZrt4-396" target="-JCz-ZJJVY7_VpqyZrt4-393" edge="1">
          <mxGeometry relative="1" as="geometry" />
        </mxCell>
        <mxCell id="-JCz-ZJJVY7_VpqyZrt4-390" style="edgeStyle=orthogonalEdgeStyle;rounded=0;orthogonalLoop=1;jettySize=auto;html=1;entryX=0;entryY=0.75;entryDx=0;entryDy=0;" parent="1" source="-JCz-ZJJVY7_VpqyZrt4-391" target="-JCz-ZJJVY7_VpqyZrt4-393" edge="1">
          <mxGeometry relative="1" as="geometry" />
        </mxCell>
        <mxCell id="-JCz-ZJJVY7_VpqyZrt4-391" value="&lt;b style=&quot;border-color: var(--border-color); font-family: &amp;quot;Courier New&amp;quot;;&quot;&gt;clk_300mhz_3_n&lt;/b&gt;" style="rounded=1;whiteSpace=wrap;html=1;" parent="1" vertex="1">
          <mxGeometry x="444" y="350.5" width="184" height="23" as="geometry" />
        </mxCell>
        <mxCell id="-JCz-ZJJVY7_VpqyZrt4-392" style="edgeStyle=orthogonalEdgeStyle;rounded=0;orthogonalLoop=1;jettySize=auto;html=1;entryX=0;entryY=0.5;entryDx=0;entryDy=0;" parent="1" source="-JCz-ZJJVY7_VpqyZrt4-393" target="-JCz-ZJJVY7_VpqyZrt4-394" edge="1">
          <mxGeometry relative="1" as="geometry" />
        </mxCell>
        <mxCell id="-JCz-ZJJVY7_VpqyZrt4-393" value="ddr4_0" style="rounded=0;whiteSpace=wrap;html=1;fillColor=#f5f5f5;fontColor=#333333;strokeColor=#666666;shadow=1;" parent="1" vertex="1">
          <mxGeometry x="747" y="317" width="120" height="60" as="geometry" />
        </mxCell>
        <mxCell id="-JCz-ZJJVY7_VpqyZrt4-403" style="edgeStyle=orthogonalEdgeStyle;rounded=0;orthogonalLoop=1;jettySize=auto;html=1;entryX=0.25;entryY=0;entryDx=0;entryDy=0;" parent="1" source="-JCz-ZJJVY7_VpqyZrt4-394" target="-JCz-ZJJVY7_VpqyZrt4-240" edge="1">
          <mxGeometry relative="1" as="geometry">
            <Array as="points">
              <mxPoint x="2323" y="347" />
              <mxPoint x="2323" y="-562" />
              <mxPoint x="2012" y="-562" />
            </Array>
          </mxGeometry>
        </mxCell>
        <mxCell id="-JCz-ZJJVY7_VpqyZrt4-394" value="&lt;font face=&quot;Courier New&quot;&gt;&lt;b&gt;ddr_clk[3]&lt;/b&gt;&lt;/font&gt;" style="rounded=1;whiteSpace=wrap;html=1;" parent="1" vertex="1">
          <mxGeometry x="933" y="335.5" width="106" height="23" as="geometry" />
        </mxCell>
        <mxCell id="-JCz-ZJJVY7_VpqyZrt4-395" value="&lt;font face=&quot;Courier New&quot;&gt;&lt;b style=&quot;font-size: 12px;&quot;&gt;ddr_c3_inst&lt;/b&gt;&lt;/font&gt;" style="text;html=1;strokeColor=none;fillColor=none;align=center;verticalAlign=middle;whiteSpace=wrap;rounded=0;fontSize=18;" parent="1" vertex="1">
          <mxGeometry x="757.5" y="383" width="99" height="13" as="geometry" />
        </mxCell>
        <mxCell id="-JCz-ZJJVY7_VpqyZrt4-396" value="&lt;font face=&quot;Courier New&quot;&gt;&lt;b&gt;clk_300mhz_3_p&lt;/b&gt;&lt;/font&gt;" style="rounded=1;whiteSpace=wrap;html=1;" parent="1" vertex="1">
          <mxGeometry x="444" y="320" width="184" height="23" as="geometry" />
        </mxCell>
        <mxCell id="-JCz-ZJJVY7_VpqyZrt4-397" value="ddr4_0" style="rounded=0;whiteSpace=wrap;html=1;fillColor=#f5f5f5;fontColor=#333333;strokeColor=#666666;shadow=1;" parent="1" vertex="1">
          <mxGeometry x="747" y="205" width="120" height="60" as="geometry" />
        </mxCell>
        <mxCell id="7Onpa6XKDJo6FndSiPpH-13" value="" style="ellipse;whiteSpace=wrap;html=1;aspect=fixed;fillColor=#000000;movable=1;resizable=1;rotatable=1;deletable=1;editable=1;locked=0;connectable=1;" vertex="1" parent="1">
          <mxGeometry x="1598" y="-241" width="10" height="10" as="geometry" />
        </mxCell>
        <mxCell id="7Onpa6XKDJo6FndSiPpH-14" value="" style="ellipse;whiteSpace=wrap;html=1;aspect=fixed;fillColor=#000000;movable=1;resizable=1;rotatable=1;deletable=1;editable=1;locked=0;connectable=1;" vertex="1" parent="1">
          <mxGeometry x="1770.5" y="-380" width="10" height="10" as="geometry" />
        </mxCell>
        <mxCell id="7Onpa6XKDJo6FndSiPpH-15" value="" style="ellipse;whiteSpace=wrap;html=1;aspect=fixed;fillColor=#000000;movable=1;resizable=1;rotatable=1;deletable=1;editable=1;locked=0;connectable=1;" vertex="1" parent="1">
          <mxGeometry x="1462" y="-582" width="10" height="10" as="geometry" />
        </mxCell>
        <mxCell id="7Onpa6XKDJo6FndSiPpH-17" value="" style="ellipse;whiteSpace=wrap;html=1;aspect=fixed;fillColor=#000000;movable=1;resizable=1;rotatable=1;deletable=1;editable=1;locked=0;connectable=1;" vertex="1" parent="1">
          <mxGeometry x="1750" y="-575" width="10" height="10" as="geometry" />
        </mxCell>
        <mxCell id="7Onpa6XKDJo6FndSiPpH-18" value="" style="ellipse;whiteSpace=wrap;html=1;aspect=fixed;fillColor=#000000;movable=1;resizable=1;rotatable=1;deletable=1;editable=1;locked=0;connectable=1;" vertex="1" parent="1">
          <mxGeometry x="1750" y="-674" width="10" height="10" as="geometry" />
        </mxCell>
        <mxCell id="7Onpa6XKDJo6FndSiPpH-19" value="" style="ellipse;whiteSpace=wrap;html=1;aspect=fixed;fillColor=#000000;movable=1;resizable=1;rotatable=1;deletable=1;editable=1;locked=0;connectable=1;" vertex="1" parent="1">
          <mxGeometry x="1750" y="-730" width="10" height="10" as="geometry" />
        </mxCell>
        <mxCell id="7Onpa6XKDJo6FndSiPpH-20" value="&lt;font color=&quot;#ffffff&quot; style=&quot;font-size: 25px;&quot;&gt;1&lt;/font&gt;" style="ellipse;whiteSpace=wrap;html=1;aspect=fixed;fillColor=#000099;fontSize=25;fontStyle=1" vertex="1" parent="1">
          <mxGeometry x="345" y="-904" width="40.5" height="40.5" as="geometry" />
        </mxCell>
        <mxCell id="7Onpa6XKDJo6FndSiPpH-21" value="&lt;font color=&quot;#ffffff&quot; style=&quot;font-size: 25px;&quot;&gt;2&lt;/font&gt;" style="ellipse;whiteSpace=wrap;html=1;aspect=fixed;fillColor=#000099;fontSize=25;fontStyle=1" vertex="1" parent="1">
          <mxGeometry x="349" y="-747.25" width="40.5" height="40.5" as="geometry" />
        </mxCell>
        <mxCell id="7Onpa6XKDJo6FndSiPpH-22" value="&lt;font color=&quot;#ffffff&quot; style=&quot;font-size: 25px;&quot;&gt;3&lt;/font&gt;" style="ellipse;whiteSpace=wrap;html=1;aspect=fixed;fillColor=#000099;fontSize=25;fontStyle=1" vertex="1" parent="1">
          <mxGeometry x="349" y="-237" width="40.5" height="40.5" as="geometry" />
        </mxCell>
        <mxCell id="7Onpa6XKDJo6FndSiPpH-23" value="&lt;font color=&quot;#ffffff&quot; style=&quot;font-size: 25px;&quot;&gt;4&lt;/font&gt;" style="ellipse;whiteSpace=wrap;html=1;aspect=fixed;fillColor=#000099;fontSize=25;fontStyle=1" vertex="1" parent="1">
          <mxGeometry x="349" y="-443" width="40.5" height="40.5" as="geometry" />
        </mxCell>
        <mxCell id="7Onpa6XKDJo6FndSiPpH-24" value="&lt;font color=&quot;#ffffff&quot; style=&quot;font-size: 25px;&quot;&gt;5&lt;/font&gt;" style="ellipse;whiteSpace=wrap;html=1;aspect=fixed;fillColor=#000099;fontSize=25;fontStyle=1" vertex="1" parent="1">
          <mxGeometry x="349" y="157.75" width="40.5" height="40.5" as="geometry" />
        </mxCell>
      </root>
    </mxGraphModel>
  </diagram>
</mxfile>
